<?xml version="1.0" encoding="UTF-8" standalone="no"?>
<svg
   inkscape:version="1.2.1 (9c6d41e410, 2022-07-14)"
   sodipodi:docname="close.svg"
   style="enable-background:new"
   version="1.1"
   height="28"
   width="44"
   id="svg4306"
   xmlns:inkscape="http://www.inkscape.org/namespaces/inkscape"
   xmlns:sodipodi="http://sodipodi.sourceforge.net/DTD/sodipodi-0.dtd"
   xmlns="http://www.w3.org/2000/svg"
   xmlns:svg="http://www.w3.org/2000/svg"
   xmlns:rdf="http://www.w3.org/1999/02/22-rdf-syntax-ns#"
   xmlns:cc="http://creativecommons.org/ns#"
   xmlns:dc="http://purl.org/dc/elements/1.1/">
  <metadata
     id="metadata31">
    <rdf:RDF>
      <cc:Work
         rdf:about="">
        <dc:format>image/svg+xml</dc:format>
        <dc:type
           rdf:resource="http://purl.org/dc/dcmitype/StillImage" />
      </cc:Work>
    </rdf:RDF>
  </metadata>
  <defs
     id="defs29">
    <filter
       id="filter11290"
       x="-0.024"
       y="-0.024"
       width="1.048"
       height="1.048"
       color-interpolation-filters="sRGB">
      <feGaussianBlur
         stdDeviation="0.15875313"
         id="feGaussianBlur880" />
    </filter>
    <linearGradient
       id="linearGradient1005"
       x1="2.9667001"
       x2="16.101"
       y1="14.069"
       y2="0.93425"
       gradientTransform="translate(-0.0080452,-5.0139e-5)"
       gradientUnits="userSpaceOnUse">
      <stop
         stop-color="#ff7d50"
         offset="0"
         id="stop883" />
      <stop
         stop-color="#fa4b5a"
         offset=".51596"
         id="stop885" />
      <stop
         stop-color="#ff509b"
         offset="1"
         id="stop887" />
    </linearGradient>
    <clipPath
       id="aw">
      <path
         d="m 481,318 h 22 v 22 h -22 z"
         id="path890" />
    </clipPath>
    <clipPath
       id="av">
      <path
         d="m 507,318 h 22 v 22 h -22 z"
         id="path893" />
    </clipPath>
    <clipPath
       id="au">
      <path
         d="m 530,318 h 22 v 22 h -22 z"
         id="path896" />
    </clipPath>
    <clipPath
       id="at">
      <path
         d="m 672,1064 c 0,-1.105 4.925,-2 11,-2 6.075,0 11,0.895 11,2 0,1.105 -4.925,2 -11,2 -6.075,0 -11,-0.895 -11,-2"
         id="path899" />
    </clipPath>
    <clipPath
       id="as">
      <path
         d="m 660,1057 h 51 v 65.001 h -51 z"
         id="path902" />
    </clipPath>
    <clipPath
       id="ar">
      <path
         d="m 659,517 h 53 v 18 h -53 z"
         id="path905" />
    </clipPath>
    <clipPath
       id="aq">
      <path
         d="m 659,500 h 53 v 18 h -53 z"
         id="path908" />
    </clipPath>
    <clipPath
       id="ap">
      <path
         d="m 648,112 h 73 v 60 h -73 z"
         id="path911" />
    </clipPath>
    <clipPath
       id="ao">
      <path
         d="m 826,1056 h 59 v 60 h -59 z"
         id="path914" />
    </clipPath>
    <clipPath
       id="an">
      <path
         d="M 805,276 H 905 V 376 H 805 Z"
         id="path917" />
    </clipPath>
    <clipPath
       id="am">
      <path
         d="m 145,1063.8 h 74.152 v 45.21 H 145 Z"
         id="path920" />
    </clipPath>
    <clipPath
       id="al">
      <path
         d="m 151,667 h 57 v 57 h -57 z"
         id="path923" />
    </clipPath>
    <clipPath
       id="ak">
      <path
         d="m 154,697 h 51 v 51 h -51 z"
         id="path926" />
    </clipPath>
    <clipPath
       id="aj">
      <path
         d="m 500.04,864.45 h 36.012 v 67.52 H 500.04 Z"
         id="path929" />
    </clipPath>
    <clipPath
       id="ai">
      <path
         d="m 836,870.54 h 47 v 55.539 h -47 z"
         id="path932" />
    </clipPath>
    <clipPath
       id="ah">
      <path
         d="m 318.03,702.35 h 62.848 v 37.991 H 318.03 Z"
         id="path935" />
    </clipPath>
    <clipPath
       id="ag">
      <path
         d="m 485.03,133.35 h 62.847 v 37.991 H 485.03 Z"
         id="path938" />
    </clipPath>
    <clipPath
       id="af">
      <path
         d="m 493.37,677.93 h 45.643 v 68.067 H 493.37 Z"
         id="path941" />
    </clipPath>
    <clipPath
       id="ae">
      <path
         d="m 144.34,1018.2 h 71.467 v 78 H 144.34 Z"
         id="path944" />
    </clipPath>
    <clipPath
       id="ad">
      <path
         d="m 293.21,1068.6 66.323,-38.292 36.047,62.435 -66.323,38.292 z"
         id="path947" />
    </clipPath>
    <clipPath
       id="ac">
      <path
         d="m 488.86,1054.5 h 10 v 10.706 h -10 z"
         id="path950" />
    </clipPath>
    <clipPath
       id="ab">
      <path
         d="m 508,1066.8 h 10.001 v 10.705 H 508 Z"
         id="path953" />
    </clipPath>
    <clipPath
       id="aa">
      <path
         d="m 525,1045.8 h 10 v 10.706 h -10 z"
         id="path956" />
    </clipPath>
    <clipPath
       id="z">
      <path
         d="m 836,1043.7 h 25.5 v 31.5 H 836 Z"
         id="path959" />
    </clipPath>
    <clipPath
       id="y">
      <path
         d="m 838,1062.2 h 24 v 24 h -24 z"
         id="path962" />
    </clipPath>
    <clipPath
       id="x">
      <path
         d="m 134,489.24 h 7 v 6 h -7 z"
         id="path965" />
    </clipPath>
    <clipPath
       id="w">
      <path
         d="m 216,489.24 h 7 v 6 h -7 z"
         id="path968" />
    </clipPath>
    <clipPath
       id="v">
      <path
         d="m 838,477.24 h 22 v 22 h -22 z"
         id="path971" />
    </clipPath>
    <clipPath
       id="u">
      <path
         d="m 704,1061.2 h 25 v 25 h -25 z"
         id="path974" />
    </clipPath>
    <clipPath
       id="t">
      <path
         d="m 663.04,1078.6 -1.808,-3.514 -21.07,-47.453 c 13.336,-18.439 48.336,-26.938 73.836,-3.439 0.842,0 6.476,6.246 6,7 l -18.386,25.895 c -0.483,0.765 -1.453,0.946 -2.177,0.431 l -15.505,-11.011 c -0.359,-0.255 -0.847,-0.153 -1.07,0.238 l -18.272,31.869 c -0.218,0.384 -0.502,0.578 -0.782,0.578 -0.282,0 -0.561,-0.197 -0.766,-0.594"
         id="path977" />
    </clipPath>
    <clipPath
       id="s">
      <path
         d="m 127,820.24 h 100 v 100 H 127 Z"
         id="path980" />
    </clipPath>
    <clipPath
       id="r">
      <path
         d="m 809,680.24 c 0,-22.092 17.908,-40 40,-40 22.092,0 40,17.908 40,40 0,22.091 -17.908,40 -40,40 -22.092,0 -40,-17.909 -40,-40"
         id="path983" />
    </clipPath>
    <clipPath
       id="q">
      <path
         d="m 658,469.24 h 44 v 45 h -44 z"
         id="path986" />
    </clipPath>
    <clipPath
       id="p">
      <path
         d="m 651,271.24 h 58 v 58 h -58 z"
         id="path989" />
    </clipPath>
    <clipPath
       id="o">
      <path
         d="m 662,307.24 h 38 v 8 h -38 z"
         id="path992" />
    </clipPath>
    <clipPath
       id="n">
      <path
         d="m 858.98,137.24 c 0.013,-0.101 0.021,-0.203 0.021,-0.307 v -6.693 h 15.75 c 1.237,0 2.25,-1.013 2.25,-2.25 v -11.25 l -27,-4.5 -27,4.5 v -2.25 l 27,-4.5 27,4.5 v -27 c 0,-1.237 -1.013,-2.25 -2.25,-2.25 h -49.5 c -1.237,0 -2.25,1.013 -2.25,2.25 v -4.25 h 54 v 54 z m -35.979,0 v -9.25 c 0,1.237 1.013,2.25 2.25,2.25 h 15.75 v 6.693 c 0,0.104 0.007,0.207 0.02,0.307 z m 22.5,-7 h 9 v 4.5 h -9 z m 1.125,-9 c -0.62,0 -1.125,-0.506 -1.125,-1.125 v -2.25 c 0,-0.619 0.505,-1.125 1.125,-1.125 h 6.75 c 0.619,0 1.125,0.506 1.125,1.125 v 2.25 c 0,0.619 -0.506,1.125 -1.125,1.125 z"
         id="path995" />
    </clipPath>
    <clipPath
       id="m">
      <path
         d="m 531.27,136.24 c 6.325,-2.29 10.727,-8.277 10.727,-15.484 0,-11.316 -10.2,-20.563 -25.65,-34.575 l -4.35,-3.941 -4.35,3.941 c -15.45,14.012 -25.65,23.259 -25.65,34.575 V 81.24 h 60 v 55 z m -26.983,0 c 2.995,-1.052 5.686,-2.883 7.71,-5.25 2.024,2.367 4.715,4.198 7.71,5.25 z m -22.29,0 v -15.484 c 0,7.207 4.402,13.194 10.727,15.484 z"
         id="path998" />
    </clipPath>
    <clipPath
       id="l">
      <path
         d="m 648,79.241 h 64 v 64 h -64 z"
         id="path1001" />
    </clipPath>
    <clipPath
       id="k">
      <path
         d="m 500,691.74 c 0,-3.037 2.463,-5.5 5.5,-5.5 3.037,0 5.5,2.463 5.5,5.5 0,3.037 -2.463,5.5 -5.5,5.5 -3.037,0 -5.5,-2.463 -5.5,-5.5"
         id="path1004" />
    </clipPath>
    <clipPath
       id="j">
      <path
         d="m 500,669.74 c 0,-3.037 2.463,-5.5 5.5,-5.5 3.037,0 5.5,2.463 5.5,5.5 0,3.038 -2.463,5.5 -5.5,5.5 -3.037,0 -5.5,-2.462 -5.5,-5.5"
         id="path1007" />
    </clipPath>
    <clipPath
       id="i">
      <path
         d="m 494,680.74 c 0,-3.037 2.462,-5.5 5.5,-5.5 3.038,0 5.5,2.463 5.5,5.5 0,3.038 -2.462,5.5 -5.5,5.5 -3.038,0 -5.5,-2.462 -5.5,-5.5"
         id="path1010" />
    </clipPath>
    <clipPath
       id="h">
      <path
         d="m 513,691.74 c 0,-3.037 2.463,-5.5 5.5,-5.5 3.037,0 5.5,2.463 5.5,5.5 0,3.037 -2.463,5.5 -5.5,5.5 -3.037,0 -5.5,-2.463 -5.5,-5.5"
         id="path1013" />
    </clipPath>
    <clipPath
       id="g">
      <path
         d="m 513,669.74 c 0,-3.037 2.463,-5.5 5.5,-5.5 3.037,0 5.5,2.463 5.5,5.5 0,3.038 -2.463,5.5 -5.5,5.5 -3.037,0 -5.5,-2.462 -5.5,-5.5"
         id="path1016" />
    </clipPath>
    <clipPath
       id="f-0">
      <path
         d="m 507,680.74 c 0,-3.037 2.463,-5.5 5.5,-5.5 3.037,0 5.5,2.463 5.5,5.5 0,3.038 -2.463,5.5 -5.5,5.5 -3.037,0 -5.5,-2.462 -5.5,-5.5"
         id="path1019" />
    </clipPath>
    <clipPath
       id="e-7">
      <path
         d="m 520,680.74 c 0,-3.037 2.463,-5.5 5.5,-5.5 3.037,0 5.5,2.463 5.5,5.5 0,3.038 -2.463,5.5 -5.5,5.5 -3.037,0 -5.5,-2.462 -5.5,-5.5"
         id="path1022" />
    </clipPath>
    <clipPath
       id="d-8">
      <path
         d="m 321,322.24 c -4.97,0 -9,-4.029 -9,-9 0,-4.97 4.03,-9 9,-9 h 45 c 4.971,0 9,4.03 9,9 0,4.971 -4.029,9 -9,9 z"
         id="path1025" />
    </clipPath>
    <clipPath
       id="c">
      <path
         d="m 322,297.24 c -4.971,0 -9,-4.029 -9,-9 0,-4.97 4.029,-9 9,-9 h 45 c 4.971,0 9,4.03 9,9 0,4.971 -4.029,9 -9,9 z"
         id="path1028" />
    </clipPath>
    <clipPath
       id="b-6">
      <path
         d="m 155,83.24 h 44 v 53 h -44 z"
         id="path1031" />
    </clipPath>
    <filter
       id="filter2174"
       x="-0.15989"
       y="-0.094876997"
       width="1.3198"
       height="1.1898"
       color-interpolation-filters="sRGB">
      <feGaussianBlur
         stdDeviation="0.25608494"
         id="feGaussianBlur1034" />
    </filter>
  </defs>
  <sodipodi:namedview
     inkscape:document-rotation="0"
     inkscape:bbox-nodes="true"
     inkscape:snap-bbox="true"
     inkscape:current-layer="svg4306"
     inkscape:window-maximized="1"
     inkscape:window-y="0"
     inkscape:window-x="0"
     inkscape:cy="78.562495"
     inkscape:cx="19.124999"
     inkscape:zoom="8.0000005"
     showgrid="true"
     id="namedview27"
     inkscape:window-height="1005"
     inkscape:window-width="1920"
     inkscape:pageshadow="2"
     inkscape:pageopacity="0"
     guidetolerance="10"
     gridtolerance="10"
     objecttolerance="10"
     borderopacity="1"
     bordercolor="#666666"
     pagecolor="#c8c8c8"
     inkscape:snap-bbox-edge-midpoints="false"
     inkscape:pagecheckerboard="0"
     inkscape:snap-nodes="false"
     inkscape:showpageshadow="0"
     inkscape:deskcolor="#c8c8c8">
    <inkscape:grid
       id="grid878"
       type="xygrid"
       originx="0"
       originy="0" />
  </sodipodi:namedview>
  <g
     transform="matrix(3.7795276,0,0,3.7795276,3.5000049,-0.99999899)"
     id="active-center">
    <g
       transform="matrix(1.1578947,0,0,0.87500005,-1.538762,8.8304688)"
       id="use1626">
      <rect
         y="-9.7895832"
         x="0.52916652"
         height="8.4666662"
         width="10.054167"
         id="rect715"
         style="opacity:0.003;fill:#000000;fill-opacity:1;stroke-width:0.348723" />
    </g>
    <g
       transform="translate(-19.446877,20.6375)"
       id="use1638">
      <rect
         y="-19.579166"
         x="21.431252"
         height="5.8208332"
         width="5.8208332"
         id="rect709"
         style="opacity:0.003;fill:#000000;fill-opacity:1;stroke-width:0.220007" />
      <path
         class="ColorScheme-Text"
         id="path711"
         style="color:#232629;fill:#ffffff;fill-opacity:1"
         d="m 25.531259,-17.991669 c -0.03397,0 -0.06819,0.01276 -0.09405,0.03876 l -1.09709,1.097091 -1.098125,-1.097091 c -0.05148,-0.05063 -0.134038,-0.05063 -0.185518,0 -0.05063,0.05148 -0.05063,0.134039 0,0.185519 l 1.098641,1.098641 -1.097091,1.098124 c -0.05063,0.05148 -0.05063,0.13404 0,0.185518 0.05148,0.05063 0.13404,0.05063 0.185518,0 l 1.098125,-1.09709 1.09709,1.09709 c 0.05172,0.05199 0.135866,0.05199 0.187586,0 0.05063,-0.05148 0.05063,-0.13404 0,-0.185518 l -1.098124,-1.098124 1.096573,-1.098641 c 0.05063,-0.05148 0.05063,-0.134039 0,-0.185519 -0.02586,-0.026 -0.05957,-0.03876 -0.09353,-0.03876 z" />
    </g>
  </g>
  <g
     id="inactive-center">
    <g
       transform="matrix(4.376295,0,0,3.3070868,41.684212,32.375002)"
       id="use1624">
      <rect
         y="-9.7895832"
         x="0.52916652"
         height="8.4666662"
         width="10.054167"
         id="rect4383"
         style="opacity:0.003;fill:#000000;fill-opacity:1;stroke-width:0.348723" />
    </g>
    <g
       transform="matrix(3.7795276,0,0,3.7795276,-26.000003,76.999998)"
       id="use1644">
      <rect
         y="-19.579166"
         x="21.431252"
         height="5.8208332"
         width="5.8208332"
         id="rect4387"
         style="opacity:0.003;fill:#000000;fill-opacity:1;stroke-width:0.220007" />
      <path
         class="ColorScheme-Text"
         id="path4389"
         style="color:#232629;fill:#ffffff;fill-opacity:1;opacity:0.4"
         d="m 25.531259,-17.991669 c -0.03397,0 -0.06819,0.01276 -0.09405,0.03876 l -1.09709,1.097091 -1.098125,-1.097091 c -0.05148,-0.05063 -0.134038,-0.05063 -0.185518,0 -0.05063,0.05148 -0.05063,0.134039 0,0.185519 l 1.098641,1.098641 -1.097091,1.098124 c -0.05063,0.05148 -0.05063,0.13404 0,0.185518 0.05148,0.05063 0.13404,0.05063 0.185518,0 l 1.098125,-1.09709 1.09709,1.09709 c 0.05172,0.05199 0.135866,0.05199 0.187586,0 0.05063,-0.05148 0.05063,-0.13404 0,-0.185518 l -1.098124,-1.098124 1.096573,-1.098641 c 0.05063,-0.05148 0.05063,-0.134039 0,-0.185519 -0.02586,-0.026 -0.05957,-0.03876 -0.09353,-0.03876 z" />
    </g>
  </g>
  <g
     id="deactivated-center"
     transform="translate(43.999999)">
    <g
       transform="matrix(4.376295,0,0,3.3070868,41.684212,32.375002)"
       id="g7325">
      <rect
         y="-9.7895832"
         x="0.52916652"
         height="8.4666662"
         width="10.054167"
         id="rect7323"
         style="opacity:0.003;fill:#000000;fill-opacity:1;stroke-width:0.348723" />
    </g>
    <g
       transform="matrix(3.7795276,0,0,3.7795276,-26.000003,76.999998)"
       id="g7331">
      <rect
         y="-19.579166"
         x="21.431252"
         height="5.8208332"
         width="5.8208332"
         id="rect7327"
         style="opacity:0.003;fill:#000000;fill-opacity:1;stroke-width:0.220007" />
      <path
         class="ColorScheme-Text"
         id="path7329"
         style="color:#232629;opacity:0.4;fill:#ffffff;fill-opacity:1"
         d="m 25.531259,-17.991669 c -0.03397,0 -0.06819,0.01276 -0.09405,0.03876 l -1.09709,1.097091 -1.098125,-1.097091 c -0.05148,-0.05063 -0.134038,-0.05063 -0.185518,0 -0.05063,0.05148 -0.05063,0.134039 0,0.185519 l 1.098641,1.098641 -1.097091,1.098124 c -0.05063,0.05148 -0.05063,0.13404 0,0.185518 0.05148,0.05063 0.13404,0.05063 0.185518,0 l 1.098125,-1.09709 1.09709,1.09709 c 0.05172,0.05199 0.135866,0.05199 0.187586,0 0.05063,-0.05148 0.05063,-0.13404 0,-0.185518 l -1.098124,-1.098124 1.096573,-1.098641 c 0.05063,-0.05148 0.05063,-0.134039 0,-0.185519 -0.02586,-0.026 -0.05957,-0.03876 -0.09353,-0.03876 z" />
    </g>
  </g>
  <g
     transform="matrix(3.7795276,0,0,3.7795276,-45.000005,28)"
     id="hover-center">
    <g
       id="use1628"
       transform="matrix(1.1578947,0,0,0.87500003,11.293531,17.363282)">
      <path
         id="path8990"
         style="color:#232629;opacity:1;fill:#c32d1e;fill-opacity:1;stroke-width:3.804;stroke-miterlimit:4;stroke-dasharray:none"
         d="m -50,-96 v 28 h 44 v -22 a 5.9999999,5.9999999 0 0 0 -6,-6 z"
         transform="matrix(0.22850379,0,0,0.30238094,11.954357,9.1848201)" />
    </g>
    <g
       id="use1634"
       transform="translate(-12.699999,25.929166)">
      <rect
         y="-25.135416"
         x="27.516666"
         height="5.8208327"
         width="5.8208327"
         id="rect8984"
         style="opacity:0.003;fill:#000000;fill-opacity:1;stroke-width:0.220007" />
      <path
         d="m 31.616921,-23.547916 c -0.03397,0 -0.06819,0.01276 -0.09405,0.03876 l -1.09709,1.097091 -1.098125,-1.097091 c -0.05148,-0.05063 -0.134038,-0.05063 -0.185518,0 -0.05063,0.05148 -0.05063,0.134039 0,0.185519 l 1.098641,1.098641 -1.097091,1.098124 c -0.05063,0.05148 -0.05063,0.13404 0,0.185518 0.05148,0.05063 0.13404,0.05063 0.185518,0 l 1.098125,-1.09709 1.09709,1.09709 c 0.05172,0.05199 0.135866,0.05199 0.187586,0 0.05063,-0.05148 0.05063,-0.13404 0,-0.185518 l -1.098124,-1.098124 1.096573,-1.098641 c 0.05063,-0.05148 0.05063,-0.134039 0,-0.185519 -0.02586,-0.026 -0.05957,-0.03876 -0.09353,-0.03876 z"
         style="color:#232629;fill:#ffffff;fill-opacity:1"
         id="path8986"
         class="ColorScheme-Text" />
    </g>
  </g>
  <g
     transform="matrix(3.7795276,0,0,3.7795276,-95.000007,56.000002)"
     id="pressed-center">
    <g
       id="use1630"
       transform="matrix(1.1578947,0,0,0.87500004,24.522698,26.623699)">
      <path
         id="use10661"
         style="color:#232629;fill:#9b2319;fill-opacity:1;stroke-width:0.999918;stroke-miterlimit:4;stroke-dasharray:none"
         d="m 0.5291683,-30.427084 v 8.466666 H 10.583335 v -6.65238 a 1.3710227,1.8142856 0 0 0 -1.3710227,-1.814286 z" />
    </g>
    <g
       id="use1640"
       transform="translate(0.5291675,25.929166)">
      <rect
         style="opacity:0.003;fill:#000000;fill-opacity:1;stroke-width:0.220007"
         id="rect10655"
         width="5.8208318"
         height="5.8208318"
         x="27.516666"
         y="-25.135416" />
      <path
         d="m 31.616922,-23.547916 c -0.03397,0 -0.06819,0.01276 -0.09405,0.03876 l -1.097091,1.097091 -1.098125,-1.097091 c -0.05148,-0.05063 -0.134038,-0.05063 -0.185517,0 -0.05063,0.05148 -0.05063,0.134039 0,0.185519 l 1.098641,1.098641 -1.097091,1.098124 c -0.05063,0.05148 -0.05063,0.13404 0,0.185518 0.05148,0.05063 0.13404,0.05063 0.185518,0 l 1.098125,-1.09709 1.09709,1.09709 c 0.05172,0.05199 0.135866,0.05199 0.187586,0 0.05063,-0.05148 0.05063,-0.13404 0,-0.185518 l -1.098124,-1.098124 1.096573,-1.098641 c 0.05063,-0.05148 0.05063,-0.134039 0,-0.185519 -0.02586,-0.026 -0.05957,-0.03876 -0.09353,-0.03876 z"
         style="color:#232629;fill:#ffffff;fill-opacity:1"
         id="path10657"
         class="ColorScheme-Text" />
    </g>
  </g>
</svg>
