<?xml version="1.0" encoding="UTF-8" standalone="no"?>
<svg
   width="32"
   height="32"
   version="1.1"
   id="svg12"
   sodipodi:docname="audacious.svg"
   inkscape:version="1.3 (0e150ed6c4, 2023-07-21)"
   xmlns:inkscape="http://www.inkscape.org/namespaces/inkscape"
   xmlns:sodipodi="http://sodipodi.sourceforge.net/DTD/sodipodi-0.dtd"
   xmlns="http://www.w3.org/2000/svg"
   xmlns:svg="http://www.w3.org/2000/svg"
   xmlns:rdf="http://www.w3.org/1999/02/22-rdf-syntax-ns#"
   xmlns:cc="http://creativecommons.org/ns#"
   xmlns:dc="http://purl.org/dc/elements/1.1/">
  <style
     id="current-color-scheme"
     type="text/css">&#10;.ColorScheme-Text { &#10;    color:#eceff4;&#10;}&#10;</style>
  <metadata
     id="metadata18">
    <rdf:RDF>
      <cc:Work
         rdf:about="">
        <dc:format>image/svg+xml</dc:format>
        <dc:type
           rdf:resource="http://purl.org/dc/dcmitype/StillImage" />
      </cc:Work>
    </rdf:RDF>
  </metadata>
  <defs
     id="defs16" />
  <sodipodi:namedview
     pagecolor="#e6e6e6"
     bordercolor="#000000"
     borderopacity="1"
     objecttolerance="10"
     gridtolerance="10"
     guidetolerance="10"
     inkscape:pageopacity="0"
     inkscape:pageshadow="2"
     inkscape:window-width="1920"
     inkscape:window-height="941"
     id="namedview14"
     showgrid="true"
     inkscape:zoom="9.8125"
     inkscape:cx="19.66879"
     inkscape:cy="14.369427"
     inkscape:window-x="0"
     inkscape:window-y="34"
     inkscape:window-maximized="1"
     inkscape:current-layer="svg12"
     inkscape:lockguides="true"
     inkscape:document-rotation="0"
     inkscape:showpageshadow="false"
     inkscape:pagecheckerboard="0"
     inkscape:deskcolor="#d1d1d1">
    <inkscape:grid
       type="xygrid"
       id="grid882"
       originx="-1e-06"
       originy="0"
       spacingy="1"
       spacingx="1"
       units="px"
       visible="true"
       dotted="false" />
  </sodipodi:namedview>
  <g
     inkscape:groupmode="layer"
     id="layer1"
     inkscape:label="ColorScheme-Text" />
  <g
     id="audacious">
    <rect
       style="opacity:0.00100002"
       width="32"
       height="32"
       x="0"
       y="0.00024320123"
       id="rect9" />
    <path
       style="color:#000000;fill:#000000;stroke-linecap:round;-inkscape-stroke:none;fill-opacity:1"
       d="M 18.205078,2.171875 C 13.259215,1.3854905 8.0985132,3.2985065 4.8925781,7.4765625 0.61799797,13.047304 1.1344713,20.933299 6.0996094,25.898437 a 0.5,0.5 0 0 0 0.7070312,0 0.5,0.5 0 0 0 0,-0.707031 C 2.1908872,20.575653 1.7117585,13.264679 5.6855469,8.0859375 9.6593353,2.9071957 16.844926,1.4764038 22.498047,4.7402344 c 5.65312,3.2638306 8.009746,10.2036026 5.511719,16.2343746 -2.498028,6.030773 -9.069764,9.271515 -15.375,7.582032 A 0.5,0.5 0 0 0 12.021484,28.910156 0.5,0.5 0 0 0 12.375,29.521484 C 19.157505,31.338851 26.24648,27.844688 28.933594,21.357422 31.620707,14.870156 29.079074,7.3858828 22.998047,3.875 21.47779,2.9972793 19.853699,2.4340032 18.205078,2.171875 Z"
       id="path3" />
    <path
       d="m 21.000042,9.9985778 c -0.553304,0 -0.999948,0.4466462 -0.999948,0.9999522 v 0.533306 c -1.079944,-0.969952 -2.516547,-1.5532562 -4.083137,-1.529925 -3.236504,0.04333 -5.869711,2.67987 -5.916373,5.916378 -0.04668,3.373168 2.709864,6.129697 6.083033,6.083036 1.499932,-0.02002 2.873197,-0.599967 3.916477,-1.536596 v 0.533309 c 0,0.553314 0.446644,0.999957 0.999948,0.999957 C 21.553356,21.997995 22,21.551352 22,20.998038 V 10.99853 C 22,10.445224 21.553356,9.9985778 21.000042,9.9985778 Z m -5.133078,9.9961812 c -2.096568,-0.06996 -3.796485,-1.769916 -3.863145,-3.863147 -0.07669,-2.309887 1.819907,-4.20646 4.129799,-4.129797 2.096561,0.07 3.796479,1.769913 3.863145,3.863143 0.07669,2.309887 -1.819916,4.206459 -4.129799,4.129801 z"
       p-id="6902"
       id="path7"
       sodipodi:nodetypes="sscccccsssssccccc"
       style="fill:#000000;fill-opacity:1" />
  </g>
  <g
     id="22-22-audacious">
    <rect
       style="opacity:0.00100002"
       width="22"
       height="22"
       x="32"
       y="10.000001"
       id="rect2" />
    <path
       d="m 42.999826,29.000001 h -0.5 c -0.276375,0 -0.499969,-0.224125 -0.499969,-0.5 0,-0.276375 0.223594,-0.5 0.499969,-0.5 h 0.5 c 3.865906,0 6.999875,-3.13425 6.999875,-7.000063 0,-3.865687 -3.133969,-6.999937 -6.999875,-6.999937 -3.865656,0 -6.999906,3.13425 -6.999906,6.999937 0,2.290094 1.10475,4.317469 2.804655,5.594313 l -0.0051,0.0073 c 0.120849,0.09136 0.200443,0.234887 0.200443,0.39845 0,0.275844 -0.223626,0.5 -0.5,0.5 -0.112563,0 -0.214844,-0.03906 -0.298594,-0.101563 l -0.0012,0.0019 C 36.257281,25.940939 35,23.61722 35,20.999938 c 0,-4.418437 3.581469,-7.999937 7.999875,-7.999937 4.417906,0 8.000125,3.5815 8.000125,7.999937 0,4.418094 -3.582219,8.000063 -8.000125,8.000063 z m 6.999875,-8.000063 v 0 0 0 0 0 l 0.04413,-0.01015 -0.04215,0.0097 0.0076,-0.0085 8e-4,0.005 0.03769,-0.01851 -0.0548,0.0193 0.01943,0.0032 0.0065,8.67e-4 -0.01926,-8.67e-4 v 0 l 0.01273,-3.1e-5 0.0065,8.67e-4 0.02487,-0.01101 z"
       id="path2-6"
       sodipodi:nodetypes="ssssssssccssccssssscccccccccccccccccccc"
       class="ColorScheme-Text"
       style="fill:#000000;fill-opacity:1" />
    <path
       d="m 45.500021,17.999169 c -0.276651,0 -0.499974,0.223323 -0.499974,0.499977 v 0.266652 c -0.539971,-0.484976 -1.258272,-0.776628 -2.041569,-0.764963 -1.61825,0.02167 -2.934854,1.339936 -2.958186,2.95819 -0.02334,1.686584 1.354932,3.064848 3.041518,3.041517 0.749966,-0.01001 1.436597,-0.299983 1.958237,-0.768298 v 0.266655 c 0,0.276656 0.223323,0.499978 0.499974,0.499978 C 45.776678,23.998877 46,23.775555 46,23.498899 v -4.999753 c 0,-0.276654 -0.223322,-0.499977 -0.499979,-0.499977 z m -2.566539,4.998091 c -1.048284,-0.03498 -1.898242,-0.884959 -1.931571,-1.931574 -0.03834,-1.154944 0.909953,-2.10323 2.064899,-2.064898 1.048281,0.03501 1.898239,0.884956 1.931572,1.93157 0.03834,1.154945 -0.909957,2.10323 -2.0649,2.064902 z"
       p-id="6902"
       id="path8"
       sodipodi:nodetypes="sscccccsssssccccc"
       style="fill:#000000;fill-opacity:1;stroke-width:0.857143" />
  </g>
</svg>
