<?xml version="1.0" encoding="UTF-8" standalone="no"?>
<svg
   width="16"
   height="16"
   version="1.1"
   id="svg3638"
   sodipodi:docname="microphone.svg"
   inkscape:version="1.3.2 (091e20ef0f, 2023-11-25, custom)"
   xmlns:inkscape="http://www.inkscape.org/namespaces/inkscape"
   xmlns:sodipodi="http://sodipodi.sourceforge.net/DTD/sodipodi-0.dtd"
   xmlns="http://www.w3.org/2000/svg"
   xmlns:svg="http://www.w3.org/2000/svg">
  <sodipodi:namedview
     id="namedview3640"
     pagecolor="#c8c8c8"
     bordercolor="#666666"
     borderopacity="1.0"
     inkscape:showpageshadow="2"
     inkscape:pageopacity="0"
     inkscape:pagecheckerboard="0"
     inkscape:deskcolor="#d1d1d1"
     showgrid="true"
     inkscape:zoom="8"
     inkscape:cx="10.25"
     inkscape:cy="-2.375"
     inkscape:window-width="1920"
     inkscape:window-height="1003"
     inkscape:window-x="0"
     inkscape:window-y="0"
     inkscape:window-maximized="1"
     inkscape:current-layer="svg3638">
    <inkscape:grid
       type="xygrid"
       id="grid3759"
       originx="0"
       originy="0"
       spacingy="1"
       spacingx="1"
       units="px"
       visible="true" />
  </sodipodi:namedview>
  <defs
     id="defs3632">
    <style
       id="current-color-scheme"
       type="text/css">.ColorScheme-Text { color:#333333
; } .ColorScheme-Highlight { color:#5294e2; }</style>
  </defs>
  <g
     id="microphone-sensitivity-high">
    <rect
       id="rect3862"
       width="16"
       height="16"
       x="0"
       y="0"
       rx="0"
       ry="0"
       style="fill:none" />
    <g
       id="g2232"
       transform="translate(0,16)">
      <path
         id="rect2218"
         d="m 8.5,-14 c -0.069036,0 -0.1378441,0.0029 -0.2050781,0.0098 -0.067234,0.0068 -0.1321681,0.01793 -0.1972657,0.03125 -0.065098,0.01332 -0.1307335,0.02935 -0.1933593,0.04883 -0.062626,0.01948 -0.1237747,0.0411 -0.1835938,0.06641 -0.059819,0.0253 -0.1171508,0.05515 -0.1738281,0.08594 -0.056677,0.03079 -0.1128153,0.06367 -0.1660156,0.09961 -0.0532,0.03594 -0.1029555,0.07447 -0.1523438,0.115234 -0.049388,0.04076 -0.097337,0.08366 -0.1425781,0.128907 -0.045241,0.04524 -0.088147,0.09319 -0.1289063,0.142578 -0.040759,0.04939 -0.079293,0.09914 -0.1152343,0.152343 -0.035941,0.0532 -0.068821,0.109339 -0.099609,0.166016 -0.030789,0.05668 -0.060636,0.114009 -0.085937,0.173828 -0.025301,0.05982 -0.046928,0.120968 -0.066406,0.183594 -0.019479,0.06263 -0.035507,0.128262 -0.048828,0.193359 -0.013321,0.0651 -0.024422,0.130032 -0.03125,0.197266 C 6.5029376,-12.137844 6.5,-12.069035 6.5,-12 v 4 c 0,0.069039 0.00294,0.137842 0.00977,0.205078 0.00683,0.067237 0.017929,0.132167 0.03125,0.197266 0.013321,0.065099 0.02935,0.130732 0.048828,0.193359 0.019479,0.062627 0.041105,0.123774 0.066406,0.183594 0.025301,0.05982 0.055149,0.117151 0.085937,0.173828 0.030789,0.056677 0.063668,0.112816 0.099609,0.166016 0.035941,0.0532 0.074476,0.102956 0.1152343,0.152343 0.040759,0.049388 0.083665,0.097338 0.1289063,0.142578 0.045241,0.045241 0.09319,0.088149 0.1425781,0.128907 0.049388,0.040758 0.099144,0.079294 0.1523438,0.115234 0.0532,0.035941 0.1093383,0.068822 0.1660156,0.099609 0.056677,0.030788 0.114009,0.060638 0.1738281,0.085938 0.059819,0.0253 0.1209679,0.046928 0.1835938,0.066406 0.062626,0.019478 0.1282618,0.035508 0.1933593,0.048828 0.065098,0.013321 0.1300316,0.024423 0.1972657,0.03125 C 8.3621559,-6.002938 8.4309645,-6 8.5,-6 c 0.069037,0 0.1378426,-0.00294 0.2050781,-0.00977 0.067236,-0.00683 0.1321671,-0.017929 0.1972657,-0.03125 0.065098,-0.01332 0.1307328,-0.02935 0.1933593,-0.048828 0.062627,-0.019478 0.1237743,-0.041106 0.1835938,-0.066406 0.059819,-0.0253 0.1171508,-0.05515 0.1738281,-0.085938 0.056677,-0.030787 0.1128155,-0.063668 0.1660156,-0.099609 0.0532,-0.03594 0.1029559,-0.074476 0.1523438,-0.115234 0.049388,-0.040758 0.097338,-0.083666 0.1425781,-0.128907 0.045241,-0.04524 0.08815,-0.09319 0.1289065,-0.142578 0.04076,-0.049387 0.07929,-0.099143 0.115234,-0.152343 0.03594,-0.0532 0.06882,-0.109339 0.09961,-0.166016 0.03079,-0.056677 0.06064,-0.114008 0.08594,-0.173828 0.0253,-0.05982 0.04693,-0.120967 0.06641,-0.183594 0.01948,-0.062627 0.03551,-0.12826 0.04883,-0.193359 0.01332,-0.065099 0.02442,-0.130029 0.03125,-0.197266 C 10.497062,-7.862158 10.5,-7.930961 10.5,-8 v -4 c 0,-0.06903 -0.0029,-0.137844 -0.0098,-0.205078 -0.0068,-0.06723 -0.01793,-0.132168 -0.03125,-0.197266 -0.01332,-0.0651 -0.02935,-0.130733 -0.04883,-0.193359 -0.01948,-0.06263 -0.0411,-0.123775 -0.06641,-0.183594 -0.0253,-0.05982 -0.05515,-0.117151 -0.08594,-0.173828 -0.03079,-0.05668 -0.06367,-0.112815 -0.09961,-0.166016 -0.03594,-0.0532 -0.07448,-0.102955 -0.115234,-0.152343 -0.04076,-0.04939 -0.083666,-0.09734 -0.1289065,-0.142578 -0.045241,-0.04524 -0.09319,-0.08815 -0.1425781,-0.128907 -0.049388,-0.04076 -0.099144,-0.07929 -0.1523438,-0.115234 -0.0532,-0.03594 -0.1093383,-0.06882 -0.1660156,-0.09961 -0.056677,-0.03079 -0.1140087,-0.06064 -0.1738281,-0.08594 -0.059819,-0.0253 -0.1209673,-0.04693 -0.1835938,-0.06641 -0.062627,-0.01948 -0.1282608,-0.03551 -0.1933593,-0.04883 -0.065099,-0.01332 -0.1300302,-0.02442 -0.1972657,-0.03125 C 8.6378426,-13.997062 8.5690374,-14 8.5,-14 Z"
         sodipodi:nodetypes="scsscssccccsssscssssssssssssssssssssssssssccsssscsscsscsscsccsssscs"
         style="fill:#000000;fill-opacity:1;opacity:0.5" />
      <path
         id="path309"
         d="M 3.5,-8.5 C 3.2238603,-8.5 3,-8.2761397 3,-8 c 0,2.8690171 2.1967528,5.2258159 5,5.4785156 V -0.5 C 8,-0.22390028 8.2238603,0 8.5,0 8.7760997,0 9,-0.22390028 9,-0.5 V -2.5214844 C 11.803297,-2.7741841 14,-5.1309829 14,-8 14,-8.2761397 13.7761,-8.5 13.5,-8.5 13.2239,-8.5 13,-8.2761397 13,-8 13,-5.5146825 10.985298,-3.5 8.5,-3.5 6.0147225,-3.5 4,-5.5146825 4,-8 4,-8.2761397 3.7761397,-8.5 3.5,-8.5 Z"
         style="fill:#000000;fill-opacity:1" />
      <path
         id="path937"
         d="m 8.5,-15 c -1.6568483,0 -3,1.343152 -3,3 v 4 c 0,1.6568183 1.3431517,3 3,3 1.656898,0 3,-1.3431817 3,-3 v -4 c 0,-1.656848 -1.343102,-3 -3,-3 z m 0,1 c 1.1045989,0 2,0.895431 2,2 v 4 c 0,1.1046189 -0.8954011,2 -2,2 -1.1045689,0 -2,-0.8953811 -2,-2 v -4 c 0,-1.104569 0.8954311,-2 2,-2 z"
         style="fill:#000000;fill-opacity:1"
         sodipodi:nodetypes="ssssssssssssss" />
    </g>
  </g>
  <g
     id="microphone-sensitivity-medium">
    <rect
       id="rect3875"
       width="16"
       height="16"
       x="16"
       y="0"
       rx="0"
       ry="0"
       style="fill:none" />
    <g
       id="g2240"
       transform="translate(16,16)">
      <path
         id="path2234"
         style="opacity:0.3;fill:#000000;fill-opacity:1;fill-rule:evenodd;stroke:none;stroke-width:3.78;stroke-linecap:round;stroke-linejoin:round;paint-order:stroke fill markers"
         d="m 8.5,-14 c -0.069036,0 -0.1378441,0.0029 -0.2050781,0.0098 -0.067234,0.0068 -0.1321681,0.01793 -0.1972657,0.03125 -0.065098,0.01332 -0.1307335,0.02935 -0.1933593,0.04883 -0.062626,0.01948 -0.1237747,0.0411 -0.1835938,0.06641 -0.059819,0.0253 -0.1171508,0.05515 -0.1738281,0.08594 -0.056677,0.03079 -0.1128153,0.06367 -0.1660156,0.09961 -0.0532,0.03594 -0.1029555,0.07447 -0.1523438,0.115234 -0.049388,0.04076 -0.097337,0.08366 -0.1425781,0.128907 -0.045241,0.04524 -0.088147,0.09319 -0.1289063,0.142578 -0.040759,0.04939 -0.079293,0.09914 -0.1152343,0.152343 -0.035941,0.0532 -0.068821,0.109339 -0.099609,0.166016 -0.030789,0.05668 -0.060636,0.114009 -0.085937,0.173828 -0.025301,0.05982 -0.046928,0.120968 -0.066406,0.183594 -0.019479,0.06263 -0.035507,0.128262 -0.048828,0.193359 -0.013321,0.0651 -0.024422,0.130032 -0.03125,0.197266 C 6.5029376,-12.137844 6.5,-12.069035 6.5,-12 v 4 c 0,0.069039 0.00294,0.137842 0.00977,0.205078 0.00683,0.067237 0.017929,0.132167 0.03125,0.197266 0.013321,0.065099 0.02935,0.130732 0.048828,0.193359 0.019479,0.062627 0.041105,0.123774 0.066406,0.183594 0.025301,0.05982 0.055149,0.117151 0.085937,0.173828 0.030789,0.056677 0.063668,0.112816 0.099609,0.166016 0.035941,0.0532 0.074476,0.102956 0.1152343,0.152343 0.040759,0.049388 0.083665,0.097338 0.1289063,0.142578 0.045241,0.045241 0.09319,0.088149 0.1425781,0.128907 0.049388,0.040758 0.099144,0.079294 0.1523438,0.115234 0.0532,0.035941 0.1093383,0.068822 0.1660156,0.099609 0.056677,0.030788 0.114009,0.060638 0.1738281,0.085938 0.059819,0.0253 0.1209679,0.046928 0.1835938,0.066406 0.062626,0.019478 0.1282618,0.035508 0.1933593,0.048828 0.065098,0.013321 0.1300316,0.024423 0.1972657,0.03125 C 8.3621559,-6.002938 8.4309645,-6 8.5,-6 c 0.069037,0 0.1378426,-0.00294 0.2050781,-0.00977 0.067236,-0.00683 0.1321671,-0.017929 0.1972657,-0.03125 0.065098,-0.01332 0.1307328,-0.02935 0.1933593,-0.048828 0.062627,-0.019478 0.1237743,-0.041106 0.1835938,-0.066406 0.059819,-0.0253 0.1171508,-0.05515 0.1738281,-0.085938 0.056677,-0.030787 0.1128155,-0.063668 0.1660156,-0.099609 0.0532,-0.03594 0.1029559,-0.074476 0.1523438,-0.115234 0.049388,-0.040758 0.097338,-0.083666 0.1425781,-0.128907 0.045241,-0.04524 0.08815,-0.09319 0.1289065,-0.142578 0.04076,-0.049387 0.07929,-0.099143 0.115234,-0.152343 0.03594,-0.0532 0.06882,-0.109339 0.09961,-0.166016 0.03079,-0.056677 0.06064,-0.114008 0.08594,-0.173828 0.0253,-0.05982 0.04693,-0.120967 0.06641,-0.183594 0.01948,-0.062627 0.03551,-0.12826 0.04883,-0.193359 0.01332,-0.065099 0.02442,-0.130029 0.03125,-0.197266 C 10.497062,-7.862158 10.5,-7.930961 10.5,-8 v -4 c 0,-0.06903 -0.0029,-0.137844 -0.0098,-0.205078 -0.0068,-0.06723 -0.01793,-0.132168 -0.03125,-0.197266 -0.01332,-0.0651 -0.02935,-0.130733 -0.04883,-0.193359 -0.01948,-0.06263 -0.0411,-0.123775 -0.06641,-0.183594 -0.0253,-0.05982 -0.05515,-0.117151 -0.08594,-0.173828 -0.03079,-0.05668 -0.06367,-0.112815 -0.09961,-0.166016 -0.03594,-0.0532 -0.07448,-0.102955 -0.115234,-0.152343 -0.04076,-0.04939 -0.083666,-0.09734 -0.1289065,-0.142578 -0.045241,-0.04524 -0.09319,-0.08815 -0.1425781,-0.128907 -0.049388,-0.04076 -0.099144,-0.07929 -0.1523438,-0.115234 -0.0532,-0.03594 -0.1093383,-0.06882 -0.1660156,-0.09961 -0.056677,-0.03079 -0.1140087,-0.06064 -0.1738281,-0.08594 -0.059819,-0.0253 -0.1209673,-0.04693 -0.1835938,-0.06641 -0.062627,-0.01948 -0.1282608,-0.03551 -0.1933593,-0.04883 -0.065099,-0.01332 -0.1300302,-0.02442 -0.1972657,-0.03125 C 8.6378426,-13.997062 8.5690374,-14 8.5,-14 Z"
         sodipodi:nodetypes="scsscssscsssssscsssssssssssssssssssssssssssssssscsscsscsssssssssscs" />
      <path
         id="path2236"
         d="M 3.5,-8.5 C 3.2238603,-8.5 3,-8.2761397 3,-8 c 0,2.8690171 2.1967528,5.2258159 5,5.4785156 V -0.5 C 8,-0.22390028 8.2238603,0 8.5,0 8.7760997,0 9,-0.22390028 9,-0.5 V -2.5214844 C 11.803297,-2.7741841 14,-5.1309829 14,-8 14,-8.2761397 13.7761,-8.5 13.5,-8.5 13.2239,-8.5 13,-8.2761397 13,-8 13,-5.5146825 10.985298,-3.5 8.5,-3.5 6.0147225,-3.5 4,-5.5146825 4,-8 4,-8.2761397 3.7761397,-8.5 3.5,-8.5 Z"
         style="fill:#000000;fill-opacity:1" />
      <path
         id="path2238"
         d="m 8.5,-15 c -1.6568483,0 -3,1.343152 -3,3 v 4 c 0,1.6568183 1.3431517,3 3,3 1.656898,0 3,-1.3431817 3,-3 v -4 c 0,-1.656848 -1.343102,-3 -3,-3 z m 0,1 c 1.1045989,0 2,0.895431 2,2 v 4 c 0,1.1046189 -0.8954011,2 -2,2 -1.1045689,0 -2,-0.8953811 -2,-2 v -4 c 0,-1.104569 0.8954311,-2 2,-2 z"
         style="fill:#000000;fill-opacity:1"
         sodipodi:nodetypes="ssssssssssssss" />
    </g>
  </g>
  <g
     id="microphone-sensitivity-low">
    <rect
       id="rect3883"
       width="16"
       height="16"
       x="32"
       y="0"
       rx="0"
       ry="0"
       style="fill:none" />
    <g
       id="g2248"
       transform="translate(32,16)">
      <path
         id="path2242"
         style="opacity:0.1;fill:#000000;fill-opacity:1;fill-rule:evenodd;stroke:none;stroke-width:3.78;stroke-linecap:round;stroke-linejoin:round;paint-order:stroke fill markers"
         d="m 8.5,-14 c -0.069036,0 -0.1378441,0.0029 -0.2050781,0.0098 -0.067234,0.0068 -0.1321681,0.01793 -0.1972657,0.03125 -0.065098,0.01332 -0.1307335,0.02935 -0.1933593,0.04883 -0.062626,0.01948 -0.1237747,0.0411 -0.1835938,0.06641 -0.059819,0.0253 -0.1171508,0.05515 -0.1738281,0.08594 -0.056677,0.03079 -0.1128153,0.06367 -0.1660156,0.09961 -0.0532,0.03594 -0.1029555,0.07447 -0.1523438,0.115234 -0.049388,0.04076 -0.097337,0.08366 -0.1425781,0.128907 -0.045241,0.04524 -0.088147,0.09319 -0.1289063,0.142578 -0.040759,0.04939 -0.079293,0.09914 -0.1152343,0.152343 -0.035941,0.0532 -0.068821,0.109339 -0.099609,0.166016 -0.030789,0.05668 -0.060636,0.114009 -0.085937,0.173828 -0.025301,0.05982 -0.046928,0.120968 -0.066406,0.183594 -0.019479,0.06263 -0.035507,0.128262 -0.048828,0.193359 -0.013321,0.0651 -0.024422,0.130032 -0.03125,0.197266 C 6.5029376,-12.137844 6.5,-12.069035 6.5,-12 v 4 c 0,0.069039 0.00294,0.137842 0.00977,0.205078 0.00683,0.067237 0.017929,0.132167 0.03125,0.197266 0.013321,0.065099 0.02935,0.130732 0.048828,0.193359 0.019479,0.062627 0.041105,0.123774 0.066406,0.183594 0.025301,0.05982 0.055149,0.117151 0.085937,0.173828 0.030789,0.056677 0.063668,0.112816 0.099609,0.166016 0.035941,0.0532 0.074476,0.102956 0.1152343,0.152343 0.040759,0.049388 0.083665,0.097338 0.1289063,0.142578 0.045241,0.045241 0.09319,0.088149 0.1425781,0.128907 0.049388,0.040758 0.099144,0.079294 0.1523438,0.115234 0.0532,0.035941 0.1093383,0.068822 0.1660156,0.099609 0.056677,0.030788 0.114009,0.060638 0.1738281,0.085938 0.059819,0.0253 0.1209679,0.046928 0.1835938,0.066406 0.062626,0.019478 0.1282618,0.035508 0.1933593,0.048828 0.065098,0.013321 0.1300316,0.024423 0.1972657,0.03125 C 8.3621559,-6.002938 8.4309645,-6 8.5,-6 c 0.069037,0 0.1378426,-0.00294 0.2050781,-0.00977 0.067236,-0.00683 0.1321671,-0.017929 0.1972657,-0.03125 0.065098,-0.01332 0.1307328,-0.02935 0.1933593,-0.048828 0.062627,-0.019478 0.1237743,-0.041106 0.1835938,-0.066406 0.059819,-0.0253 0.1171508,-0.05515 0.1738281,-0.085938 0.056677,-0.030787 0.1128155,-0.063668 0.1660156,-0.099609 0.0532,-0.03594 0.1029559,-0.074476 0.1523438,-0.115234 0.049388,-0.040758 0.097338,-0.083666 0.1425781,-0.128907 0.045241,-0.04524 0.08815,-0.09319 0.1289065,-0.142578 0.04076,-0.049387 0.07929,-0.099143 0.115234,-0.152343 0.03594,-0.0532 0.06882,-0.109339 0.09961,-0.166016 0.03079,-0.056677 0.06064,-0.114008 0.08594,-0.173828 0.0253,-0.05982 0.04693,-0.120967 0.06641,-0.183594 0.01948,-0.062627 0.03551,-0.12826 0.04883,-0.193359 0.01332,-0.065099 0.02442,-0.130029 0.03125,-0.197266 C 10.497062,-7.862158 10.5,-7.930961 10.5,-8 v -4 c 0,-0.06903 -0.0029,-0.137844 -0.0098,-0.205078 -0.0068,-0.06723 -0.01793,-0.132168 -0.03125,-0.197266 -0.01332,-0.0651 -0.02935,-0.130733 -0.04883,-0.193359 -0.01948,-0.06263 -0.0411,-0.123775 -0.06641,-0.183594 -0.0253,-0.05982 -0.05515,-0.117151 -0.08594,-0.173828 -0.03079,-0.05668 -0.06367,-0.112815 -0.09961,-0.166016 -0.03594,-0.0532 -0.07448,-0.102955 -0.115234,-0.152343 -0.04076,-0.04939 -0.083666,-0.09734 -0.1289065,-0.142578 -0.045241,-0.04524 -0.09319,-0.08815 -0.1425781,-0.128907 -0.049388,-0.04076 -0.099144,-0.07929 -0.1523438,-0.115234 -0.0532,-0.03594 -0.1093383,-0.06882 -0.1660156,-0.09961 -0.056677,-0.03079 -0.1140087,-0.06064 -0.1738281,-0.08594 -0.059819,-0.0253 -0.1209673,-0.04693 -0.1835938,-0.06641 -0.062627,-0.01948 -0.1282608,-0.03551 -0.1933593,-0.04883 -0.065099,-0.01332 -0.1300302,-0.02442 -0.1972657,-0.03125 C 8.6378426,-13.997062 8.5690374,-14 8.5,-14 Z"
         sodipodi:nodetypes="scsscssssssssssssssssssssssssssssssssssssssssssscsscsscssssssssssss" />
      <path
         id="path2244"
         d="M 3.5,-8.5 C 3.2238603,-8.5 3,-8.2761397 3,-8 c 0,2.8690171 2.1967528,5.2258159 5,5.4785156 V -0.5 C 8,-0.22390028 8.2238603,0 8.5,0 8.7760997,0 9,-0.22390028 9,-0.5 V -2.5214844 C 11.803297,-2.7741841 14,-5.1309829 14,-8 14,-8.2761397 13.7761,-8.5 13.5,-8.5 13.2239,-8.5 13,-8.2761397 13,-8 13,-5.5146825 10.985298,-3.5 8.5,-3.5 6.0147225,-3.5 4,-5.5146825 4,-8 4,-8.2761397 3.7761397,-8.5 3.5,-8.5 Z"
         style="fill:#000000;fill-opacity:1" />
      <path
         id="path2246"
         d="m 8.5,-15 c -1.6568483,0 -3,1.343152 -3,3 v 4 c 0,1.6568183 1.3431517,3 3,3 1.656898,0 3,-1.3431817 3,-3 v -4 c 0,-1.656848 -1.343102,-3 -3,-3 z m 0,1 c 1.1045989,0 2,0.895431 2,2 v 4 c 0,1.1046189 -0.8954011,2 -2,2 -1.1045689,0 -2,-0.8953811 -2,-2 v -4 c 0,-1.104569 0.8954311,-2 2,-2 z"
         style="fill:#000000;fill-opacity:1"
         sodipodi:nodetypes="ssssssssssssss" />
    </g>
  </g>
  <g
     id="microphone-sensitivity-muted">
    <rect
       id="rect3889"
       width="16"
       height="16"
       x="48"
       y="0"
       rx="0"
       ry="0"
       style="fill:none" />
    <rect
       style="fill:#000000;fill-opacity:1;fill-rule:evenodd;stroke:none;stroke-width:4.3001;stroke-linecap:round;stroke-linejoin:round;paint-order:stroke fill markers"
       id="rect3006"
       width="22"
       height="1"
       x="34.360794"
       y="-34.441128"
       ry="0.5"
       transform="rotate(45)" />
    <g
       id="g2256"
       transform="translate(48,16)">
      <path
         id="path2252"
         d="M 3.5,-8.5 C 3.2238603,-8.5 3,-8.2761397 3,-8 c 0,2.8690171 2.1967528,5.2258159 5,5.4785156 V -0.5 C 8,-0.22390028 8.2238603,0 8.5,0 8.7760997,0 9,-0.22390028 9,-0.5 V -2.5214844 C 11.803297,-2.7741841 14,-5.1309829 14,-8 14,-8.2761397 13.7761,-8.5 13.5,-8.5 13.2239,-8.5 13,-8.2761397 13,-8 13,-5.5146825 10.985298,-3.5 8.5,-3.5 6.0147225,-3.5 4,-5.5146825 4,-8 4,-8.2761397 3.7761397,-8.5 3.5,-8.5 Z"
         style="opacity:0.2;fill:#000000;fill-opacity:1" />
      <path
         id="path2254"
         d="m 8.5,-15 c -1.6568483,0 -3,1.343152 -3,3 v 4 c 0,1.6568183 1.3431517,3 3,3 1.656898,0 3,-1.3431817 3,-3 v -4 c 0,-1.656848 -1.343102,-3 -3,-3 z m 0,1 c 1.1045989,0 2,0.895431 2,2 v 4 c 0,1.1046189 -0.8954011,2 -2,2 -1.1045689,0 -2,-0.8953811 -2,-2 v -4 c 0,-1.104569 0.8954311,-2 2,-2 z"
         style="opacity:0.2;fill:#000000;fill-opacity:1"
         sodipodi:nodetypes="ssssssssssssss" />
    </g>
  </g>
</svg>
