<?xml version="1.0" encoding="UTF-8" standalone="no"?>
<svg
   id="svg7384"
   width="32"
   height="32"
   version="1.1"
   style="enable-background:new"
   sodipodi:docname="office.svg"
   inkscape:version="1.1.1 (3bf5ae0d25, 2021-09-20, custom)"
   xmlns:inkscape="http://www.inkscape.org/namespaces/inkscape"
   xmlns:sodipodi="http://sodipodi.sourceforge.net/DTD/sodipodi-0.dtd"
   xmlns="http://www.w3.org/2000/svg"
   xmlns:svg="http://www.w3.org/2000/svg"
   xmlns:rdf="http://www.w3.org/1999/02/22-rdf-syntax-ns#"
   xmlns:cc="http://creativecommons.org/ns#"
   xmlns:dc="http://purl.org/dc/elements/1.1/">
  <metadata
     id="metadata11">
    <rdf:RDF>
      <cc:Work
         rdf:about="">
        <dc:format>image/svg+xml</dc:format>
        <dc:type
           rdf:resource="http://purl.org/dc/dcmitype/StillImage" />
        <dc:title />
      </cc:Work>
    </rdf:RDF>
  </metadata>
  <sodipodi:namedview
     pagecolor="#c8c8c8"
     bordercolor="#666666"
     borderopacity="1"
     objecttolerance="10"
     gridtolerance="10"
     guidetolerance="10"
     inkscape:pageopacity="0"
     inkscape:pageshadow="2"
     inkscape:window-width="1920"
     inkscape:window-height="963"
     id="namedview9"
     showgrid="true"
     inkscape:zoom="16"
     inkscape:cx="-2.46875"
     inkscape:cy="13.25"
     inkscape:window-x="0"
     inkscape:window-y="40"
     inkscape:window-maximized="1"
     inkscape:current-layer="svg7384"
     inkscape:snap-bbox="true"
     inkscape:bbox-nodes="true"
     inkscape:document-rotation="0"
     inkscape:pagecheckerboard="0">
    <inkscape:grid
       type="xygrid"
       id="grid815" />
  </sodipodi:namedview>
  <defs
     id="defs8">
    <style
       id="current-color-scheme"
       type="text/css">
   .ColorScheme-Text { color:#dedede; } .ColorScheme-Highlight { color:#5294e2; } .ColorScheme-ButtonBackground { color:#dedede; }
  </style>
    <style
       type="text/css"
       id="current-color-scheme-5">
   .ColorScheme-Text { color:#dedede; } .ColorScheme-Highlight { color:#5294e2; } .ColorScheme-ButtonBackground { color:#dedede; }
  </style>
    <style
       type="text/css"
       id="style819" />
  </defs>
  <g
     id="office-chart-pie">
    <rect
       style="color:#bebebe;display:inline;overflow:visible;visibility:visible;opacity:0.514644;fill:none;stroke:none;stroke-width:3;marker:none;enable-background:accumulate"
       id="rect35722"
       width="32"
       height="32"
       x="-3.3789063e-05"
       y="-3.8671874e-06" />
    <path
       id="path2145"
       style="fill:#000000;fill-opacity:1;stroke-width:7.41341"
       d="m 18.808203,3.4999214 c -0.650339,-0.0054 -1.052735,0.2207031 -1.052735,0.2207031 0,0 -11.0689419,4.7377103 -11.4335929,5.0351563 -0.364349,0.297519 -0.320313,1.4667962 -0.320313,1.4667962 v 12.056641 c 0,0.350656 0.397749,0.680632 0.773438,0.859375 0.375766,0.178745 1.044921,0 1.044921,0 0,0 2.8650039,-1.76022 3.0175789,-1.890625 0.152952,-0.130405 0.105468,-0.617188 0.105468,-0.617188 v -8.810547 c 0,-1.093866 1.63086,-1.701171 1.63086,-1.701171 l 4.503906,-1.6992187 c 0.335707,-0.1003856 1.649801,-0.4112244 1.720703,0.8339843 -1.85e-4,2.5976954 1.57e-4,7.9669964 0,14.0937494 H 10.58164 c 0,0 -0.7343419,-0.04408 -1.0312499,0.466797 -0.296907,0.510864 -0.250279,1.110746 0.015625,1.291016 0.265682,0.180271 8.1132249,3.156536 8.3320319,3.261719 0.156454,0.0752 0.665992,0.202557 1.265624,0.08594 l 0.01563,-0.0039 c 0.132405,-0.0267 0.269925,-0.06516 0.408203,-0.119141 l 4.845703,-2.09375 c 0,0 1.5625,-0.390082 1.5625,-1.892578 V 8.1542183 c 0,0 0.129767,-1.6900746 -1.019531,-2.1894531 -1.090617,-0.473812 -4.65246,-2.1388131 -5.271485,-2.3125 -0.05643,-0.01693 -0.112895,-0.038314 -0.167969,-0.052734 -0.266045,-0.06967 -0.511739,-0.097809 -0.728519,-0.09961 z m -0.0098,19.8476556 -0.002,-2.322265 c -0.0126,0.253279 -0.189869,2.251873 -2.667969,2.318359 z" />
  </g>
</svg>
