<?xml version="1.0" encoding="UTF-8" standalone="no"?>
<svg
   viewBox="0 0 22 22"
   id="svg"
   version="1.1"
   width="100%"
   height="100%"
   sodipodi:docname="quassel.svg"
   inkscape:version="1.1 (c4e8f9ed74, 2021-05-24)"
   xmlns:inkscape="http://www.inkscape.org/namespaces/inkscape"
   xmlns:sodipodi="http://sodipodi.sourceforge.net/DTD/sodipodi-0.dtd"
   xmlns="http://www.w3.org/2000/svg"
   xmlns:svg="http://www.w3.org/2000/svg"
   xmlns:rdf="http://www.w3.org/1999/02/22-rdf-syntax-ns#"
   xmlns:cc="http://creativecommons.org/ns#"
   xmlns:dc="http://purl.org/dc/elements/1.1/">
  <metadata
     id="metadata16">
    <rdf:RDF>
      <cc:Work
         rdf:about="">
        <dc:format>image/svg+xml</dc:format>
        <dc:type
           rdf:resource="http://purl.org/dc/dcmitype/StillImage" />
        <dc:title />
      </cc:Work>
    </rdf:RDF>
  </metadata>
  <sodipodi:namedview
     pagecolor="#c8c8c8"
     bordercolor="#666666"
     borderopacity="1"
     objecttolerance="10"
     gridtolerance="10"
     guidetolerance="10"
     inkscape:pageopacity="0"
     inkscape:pageshadow="2"
     inkscape:window-width="1920"
     inkscape:window-height="959"
     id="namedview14"
     showgrid="true"
     inkscape:zoom="10.727273"
     inkscape:cx="-15.614406"
     inkscape:cy="7.8305083"
     inkscape:window-x="0"
     inkscape:window-y="40"
     inkscape:window-maximized="1"
     inkscape:current-layer="svg"
     inkscape:pagecheckerboard="0">
    <inkscape:grid
       type="xygrid"
       id="grid821" />
  </sodipodi:namedview>
  <defs
     id="defs81">
    <style
       id="current-color-scheme"
       type="text/css">.ColorScheme-Text{color:#D3DAE3}</style>
  </defs>
  <g
     id="quassel"
     transform="translate(-1 -1)">
    <path
       id="rect3881"
       fill="#fff"
       fill-opacity=".01"
       stroke="none"
       d="M1 1h22v22H1z" />
    <path
       style="color:#d3dae3;fill:#000000;-inkscape-stroke:none"
       d="m 11,3 a 8,8 0 1 0 0,16 8,8 0 0 0 0,-16 z m 0,1 a 7,7 0 1 1 0,14 7,7 0 0 1 0,-14 z m 2,7 a 3,3 0 1 0 0,6 3,3 0 0 0 0,-6 z"
       id="path2999"
       transform="translate(1 1)" />
  </g>
  <g
     transform="translate(-25 -1)"
     id="quassel_inactive">
    <path
       id="rect3777"
       fill="#fff"
       fill-opacity=".01"
       stroke="none"
       d="M1 1h22v22H1z" />
    <path
       style="color:#d3dae3;fill:#000000;-inkscape-stroke:none;opacity:0.2"
       d="m 11,3 a 8,8 0 1 0 0,16 8,8 0 0 0 0,-16 z m 0,1 a 7,7 0 1 1 0,14 7,7 0 0 1 0,-14 z m 2,7 a 3,3 0 1 0 0,6 3,3 0 0 0 0,-6 z"
       id="path3779"
       transform="translate(1 1)" />
  </g>
  <g
     transform="translate(23 -1)"
     id="quassel_message"
     stroke="none">
    <path
       id="rect3785"
       fill="#fff"
       fill-opacity=".01"
       d="M1 1h22v22H1z" />
    <path
       id="path3787"
       transform="translate(1 1)"
       d="M11 3a8 8 0 1 0 0 16 8 8 0 0 0 0-16zm0 1a7 7 0 1 1 0 14 7 7 0 0 1 0-14zm2 7a3 3 0 1 0 0 6 3 3 0 0 0 0-6z"
       fill="currentColor"
       fill-opacity="1"
       color="#3daee6"
       style="fill:#3278ff;fill-opacity:1" />
  </g>
</svg>
