<?xml version="1.0" encoding="UTF-8" standalone="no"?>
<svg
   width="32"
   height="32"
   viewBox="0 0 8.4666665 8.4666669"
   version="1.1"
   id="svg847"
   inkscape:version="1.1.1 (3bf5ae0d25, 2021-09-20, custom)"
   sodipodi:docname="activities.svg"
   xmlns:inkscape="http://www.inkscape.org/namespaces/inkscape"
   xmlns:sodipodi="http://sodipodi.sourceforge.net/DTD/sodipodi-0.dtd"
   xmlns="http://www.w3.org/2000/svg"
   xmlns:svg="http://www.w3.org/2000/svg"
   xmlns:rdf="http://www.w3.org/1999/02/22-rdf-syntax-ns#"
   xmlns:cc="http://creativecommons.org/ns#"
   xmlns:dc="http://purl.org/dc/elements/1.1/">
  <defs
     id="defs841" />
  <sodipodi:namedview
     id="base"
     pagecolor="#c8c8c8"
     bordercolor="#000000"
     borderopacity="1"
     inkscape:pageopacity="0"
     inkscape:pageshadow="2"
     inkscape:zoom="15.839192"
     inkscape:cx="39.364382"
     inkscape:cy="7.8918168"
     inkscape:document-units="px"
     inkscape:current-layer="layer1"
     inkscape:document-rotation="0"
     showgrid="true"
     units="px"
     inkscape:window-width="1920"
     inkscape:window-height="1005"
     inkscape:window-x="0"
     inkscape:window-y="0"
     inkscape:window-maximized="1"
     inkscape:snap-bbox="true"
     inkscape:bbox-nodes="true"
     inkscape:showpageshadow="false"
     inkscape:lockguides="false"
     inkscape:pagecheckerboard="0"
     inkscape:snap-smooth-nodes="true"
     inkscape:snap-nodes="true"
     inkscape:snap-bbox-edge-midpoints="true">
    <inkscape:grid
       type="xygrid"
       id="grid1410"
       originx="-8.4666677"
       originy="-2.6458333" />
  </sodipodi:namedview>
  <metadata
     id="metadata844">
    <rdf:RDF>
      <cc:Work
         rdf:about="">
        <dc:format>image/svg+xml</dc:format>
        <dc:type
           rdf:resource="http://purl.org/dc/dcmitype/StillImage" />
      </cc:Work>
    </rdf:RDF>
    <style
       id="current-color-scheme" />
  </metadata>
  <g
     inkscape:label="Layer 1"
     inkscape:groupmode="layer"
     id="layer1"
     transform="translate(-8.4666681,-2.6458333)">
    <g
       id="g2420"
       transform="translate(12.964583)">
      <path
         id="rect864"
         style="opacity:1;fill:#fefefe;fill-opacity:1;fill-rule:evenodd;stroke:none;stroke-width:0.264583;stroke-linecap:round;stroke-linejoin:round"
         d="m 16.933334,3.4395833 c -0.293158,0 -0.529166,0.2360083 -0.529166,0.5291667 v 2.3812499 c 0,0.2931583 0.236008,0.5291667 0.529166,0.5291667 h 2.38125 c 0.293159,0 0.529167,-0.2360084 0.529167,-0.5291667 V 3.96875 c 0,-0.2931584 -0.236008,-0.5291667 -0.529167,-0.5291667 z m 0,0.2645833 h 2.38125 c 0.14658,0 0.264584,0.1180043 0.264584,0.2645834 v 2.3812499 c 0,0.1465792 -0.118004,0.2645834 -0.264584,0.2645834 h -2.38125 c -0.146579,0 -0.264583,-0.1180042 -0.264583,-0.2645834 V 3.96875 c 0,-0.1465791 0.118004,-0.2645834 0.264583,-0.2645834 z" />
      <path
         id="path1542"
         style="opacity:1;fill:#fefefe;fill-opacity:1;fill-rule:evenodd;stroke:none;stroke-width:0.264583;stroke-linecap:round;stroke-linejoin:round"
         d="m 16.139584,4.2333334 c -0.293158,0 -0.529166,0.2360083 -0.529166,0.5291667 V 7.14375 c 0,0.2931583 0.236008,0.5291667 0.529166,0.5291667 h 2.38125 c 0.293159,0 0.529167,-0.2360084 0.529167,-0.5291667 V 4.7625001 c 0,-0.2931584 -0.236008,-0.5291667 -0.529167,-0.5291667 z m 0,0.2645833 h 2.38125 c 0.14658,0 0.264584,0.1180043 0.264584,0.2645834 V 7.14375 c 0,0.1465792 -0.118004,0.2645834 -0.264584,0.2645834 h -2.38125 c -0.146579,0 -0.264583,-0.1180042 -0.264583,-0.2645834 V 4.7625001 c 0,-0.1465791 0.118004,-0.2645834 0.264583,-0.2645834 z" />
    </g>
    <g
       id="g2253"
       transform="translate(-2.1166667,2.6458333)">
      <path
         id="rect1966"
         style="opacity:1;fill:#fefefe;fill-opacity:1;fill-rule:evenodd;stroke:none;stroke-width:0.999999;stroke-linecap:round;stroke-linejoin:round"
         d="m -20,-6 c -1.662,0 -3,1.3379999 -3,3 v 13 c 0,1.662 1.338,3 3,3 h 13 c 1.6620001,0 3,-1.338 3,-3 V -3 c 0,-1.6620001 -1.3379999,-3 -3,-3 z m 0,1 h 13 c 1.1079996,0 2,0.8920004 2,2 v 13 c 0,1.108 -0.8920004,2 -2,2 h -13 c -1.108,0 -2,-0.892 -2,-2 V -3 c 0,-1.1079996 0.892,-2 2,-2 z"
         transform="matrix(0.26458333,0,0,0.26458333,8.4666681,2.6458333)" />
      <path
         id="path2249"
         style="opacity:1;fill:#fefefe;fill-opacity:1;fill-rule:evenodd;stroke:none;stroke-width:0.264583;stroke-linecap:round;stroke-linejoin:round"
         d="m 1.8520838,2.38125 c -0.4397375,0 -0.79375,0.3540125 -0.79375,0.79375 v 3.4395833 c 0,0.4397375 0.3540125,0.79375 0.79375,0.79375 h 3.4395833 c 0.4397375,0 0.79375,-0.3540125 0.79375,-0.79375 V 3.175 c 0,-0.4397375 -0.3540125,-0.79375 -0.79375,-0.79375 z m 0,0.2645833 h 3.4395833 c 0.2931582,0 0.5291667,0.2360085 0.5291667,0.5291667 v 3.4395833 c 0,0.2931583 -0.2360085,0.5291667 -0.5291667,0.5291667 H 1.8520838 c -0.2931583,0 -0.5291667,-0.2360084 -0.5291667,-0.5291667 V 3.175 c 0,-0.2931582 0.2360084,-0.5291667 0.5291667,-0.5291667 z" />
    </g>
    <g
       id="22-22-activities">
      <rect
         style="opacity:0.003;fill:#000000;stroke-width:0.363802"
         id="rect1430-3-7-5"
         width="5.8208323"
         height="5.8208323"
         x="17.462502"
         y="2.6458333" />
      <g
         id="g1303"
         transform="translate(14.022917,5.8208334)">
        <path
           id="rect867"
           style="fill:#fefefe;fill-rule:evenodd;stroke-width:0.264583;stroke-linecap:round;stroke-linejoin:round;fill-opacity:1"
           d="m 6.3500004,-1.0583333 c -0.4397375,0 -0.79375,0.35401248 -0.79375,0.79374997 V 1.3229166 c 0,0.4397375 0.3540125,0.7937501 0.79375,0.79375 l 1.5875001,-10e-8 c 0.4397375,0 0.79375,-0.3540125 0.79375,-0.79375 v -1.58749989 c 0,-0.43973749 -0.3540125,-0.79374991 -0.79375,-0.79374991 z m 0,0.26458331 1.5875001,-6e-8 c 0.2931583,-1e-8 0.5291666,0.23600833 0.5291666,0.52916666 V 1.3229165 c 0,0.2931583 -0.2360083,0.5291667 -0.5291666,0.5291667 l -1.5875001,1e-7 C 6.0568421,1.8520834 5.8208338,1.6160749 5.8208338,1.3229166 v -1.58749993 c 0,-0.29315833 0.2360083,-0.52916665 0.5291666,-0.52916666 z"
           sodipodi:nodetypes="ssssssssssssssssss" />
        <path
           id="path1169"
           style="fill:#fefefe;fill-rule:evenodd;stroke-width:0.264583;stroke-linecap:round;stroke-linejoin:round;fill-opacity:1"
           d="m 5.5562504,-1.8520833 c -0.439738,0 -0.79375,0.3540125 -0.79375,0.79375 v 1.58749992 c 0,0.34684997 0.2203247,0.64026678 0.5291667,0.74879148 V 0.98805329 C 5.1332192,0.89683189 5.0270838,0.72584722 5.0270838,0.52916662 V -1.0583333 c 0,-0.2931583 0.2360076,-0.5291667 0.5291666,-0.5291667 l 1.5875001,-1e-7 c 0.1966812,0 0.3676652,0.1061355 0.4588867,0.2645834 H 7.8925419 C 7.7840175,-1.6317585 7.490601,-1.8520834 7.1437505,-1.8520834 Z"
           sodipodi:nodetypes="sssccssssccss" />
        <path
           id="path1171"
           style="fill:#fefefe;fill-rule:evenodd;stroke-width:0.264583;stroke-linecap:round;stroke-linejoin:round;fill-opacity:1"
           d="m 4.7625004,-2.6458333 c -0.4397379,0 -0.7937499,0.3540125 -0.7937499,0.79375 v 1.58749992 c 0,0.34685001 0.2203246,0.64026681 0.5291666,0.74879147 V 0.19430333 C 4.3394692,0.10308188 4.2333338,-0.06790277 4.2333338,-0.26458338 V -1.8520833 c 0,-0.2931583 0.2360077,-0.5291667 0.5291666,-0.5291667 l 1.5875001,-10e-8 c 0.1966812,0 0.3676652,0.1061355 0.4588867,0.2645834 H 7.098792 C 6.9902675,-2.4255085 6.696851,-2.6458334 6.3500005,-2.6458334 Z"
           sodipodi:nodetypes="sssccssssccss" />
      </g>
    </g>
    <g
       id="activities">
      <rect
         y="2.6458335"
         x="8.4666681"
         height="8.4666662"
         width="8.4666662"
         id="rect1430"
         style="opacity:0.003;fill:#000000;stroke-width:0.529167" />
      <g
         id="g3263">
        <path
           id="path1305"
           style="fill:#fefefe;fill-opacity:1;fill-rule:evenodd;stroke-width:0.264583;stroke-linecap:round;stroke-linejoin:round"
           d="m 12.435417,5.8208334 c -0.439738,0 -0.79375,0.3540125 -0.79375,0.79375 v 2.6458333 c 0,0.4397375 0.354012,0.7937503 0.79375,0.7937503 h 2.645833 c 0.439738,0 0.79375,-0.3540128 0.79375,-0.7937503 V 6.6145834 c 10e-7,-0.4397375 -0.354012,-0.79375 -0.79375,-0.79375 z m 0,0.2645833 h 2.645833 c 0.293159,0 0.529168,0.2360083 0.529167,0.5291667 v 2.6458333 c 0,0.2931583 -0.236008,0.5291667 -0.529167,0.5291667 h -2.645833 c -0.293158,0 -0.529167,-0.2360084 -0.529167,-0.5291667 V 6.6145834 c 0,-0.2931584 0.236009,-0.5291667 0.529167,-0.5291667 z"
           sodipodi:nodetypes="ssssssssssssssssss" />
        <path
           id="path1307"
           style="fill:#fefefe;fill-opacity:1;fill-rule:evenodd;stroke-width:0.264583;stroke-linecap:round;stroke-linejoin:round"
           d="m 11.377084,4.7625001 c -0.439738,0 -0.79375,0.3540125 -0.79375,0.79375 v 2.9104166 c 0,0.34685 0.220325,0.6402668 0.529166,0.7487916 V 8.9255534 C 10.954053,8.834332 10.847917,8.6633473 10.847917,8.4666667 V 5.5562501 c 0,-0.2931583 0.236008,-0.5291667 0.529167,-0.5291667 l 2.910416,-1e-7 c 0.196681,0 0.367665,0.1061355 0.458886,0.2645834 h 0.289905 C 14.927766,4.9828249 14.63435,4.7625 14.2875,4.7625 Z"
           sodipodi:nodetypes="sssccssssccss" />
        <path
           id="path1309"
           style="fill:#fefefe;fill-opacity:1;fill-rule:evenodd;stroke-width:0.264583;stroke-linecap:round;stroke-linejoin:round"
           d="m 10.31875,3.7041667 c -0.4397375,0 -0.7937495,0.3540125 -0.7937495,0.79375 v 2.9104167 c 0,0.34685 0.2203246,0.6402668 0.5291665,0.7487915 V 7.8672201 C 9.8957192,7.7759987 9.7895838,7.605014 9.7895838,7.4083334 V 4.4979167 c 0,-0.2931583 0.2360082,-0.5291667 0.5291662,-0.5291667 h 2.910417 c 0.196681,0 0.367665,0.1061355 0.458887,0.2645834 h 0.289905 C 13.869434,3.9244916 13.576018,3.7041667 13.229167,3.7041667 Z"
           sodipodi:nodetypes="sssccssssccss" />
      </g>
    </g>
  </g>
</svg>
