<?xml version="1.0" encoding="UTF-8" standalone="no"?>
<svg
   width="32"
   height="32"
   version="1.1"
   id="svg12"
   sodipodi:docname="choqok_offline.svg"
   inkscape:version="1.3.2 (091e20ef0f, 2023-11-25, custom)"
   xmlns:inkscape="http://www.inkscape.org/namespaces/inkscape"
   xmlns:sodipodi="http://sodipodi.sourceforge.net/DTD/sodipodi-0.dtd"
   xmlns="http://www.w3.org/2000/svg"
   xmlns:svg="http://www.w3.org/2000/svg"
   xmlns:rdf="http://www.w3.org/1999/02/22-rdf-syntax-ns#"
   xmlns:cc="http://creativecommons.org/ns#"
   xmlns:dc="http://purl.org/dc/elements/1.1/">
  <metadata
     id="metadata18">
    <rdf:RDF>
      <cc:Work
         rdf:about="">
        <dc:format>image/svg+xml</dc:format>
        <dc:type
           rdf:resource="http://purl.org/dc/dcmitype/StillImage" />
      </cc:Work>
    </rdf:RDF>
  </metadata>
  <defs
     id="defs16" />
  <sodipodi:namedview
     pagecolor="#c8c8c8"
     bordercolor="#000000"
     borderopacity="1"
     objecttolerance="10"
     gridtolerance="10"
     guidetolerance="10"
     inkscape:pageopacity="0"
     inkscape:pageshadow="2"
     inkscape:window-width="1920"
     inkscape:window-height="995"
     id="namedview14"
     showgrid="true"
     inkscape:zoom="13.876971"
     inkscape:cx="19.024325"
     inkscape:cy="13.115254"
     inkscape:window-x="0"
     inkscape:window-y="0"
     inkscape:window-maximized="1"
     inkscape:current-layer="svg12"
     inkscape:document-rotation="0"
     inkscape:lockguides="true"
     inkscape:showpageshadow="false"
     inkscape:pagecheckerboard="0"
     inkscape:deskcolor="#969696">
    <inkscape:grid
       type="xygrid"
       id="grid941"
       originx="0"
       originy="0"
       spacingy="1"
       spacingx="1"
       units="px"
       visible="true" />
  </sodipodi:namedview>
  <g
     id="choqok_offline">
    <rect
       style="opacity:0.00100002"
       width="32"
       height="32"
       x="0"
       y="0"
       id="rect7-3" />
    <path
       id="path837"
       d="M 4.59961,3.9570315 C 3.163703,3.9473315 1.999999,5.1063775 1.999999,6.5234377 V 22.472656 c 0,1.417099 1.16367,2.566405 2.599611,2.566405 h 1.400389 l 0.0019,2.171875 c 0,0.2129 0.0699,0.419145 0.199219,0.589845 0.33079,0.4364 0.956167,0.525617 1.398437,0.199219 l 4.011723,-2.960938 15.789113,0.08594 C 28.836167,25.143782 30,23.975694 30,22.558593 V 6.5664068 C 30,5.149347 28.836259,4.00967 27.400391,4 Z m 0,1 22.800831,0.042972 c 0.896179,0.006 1.59961,0.714067 1.59961,1.5664068 V 22.558592 c 0,0.8524 -0.703499,1.579037 -1.59961,1.566408 l -16.119191,-0.08594 -4.27539,3.15625 -0.002,0.002 h -0.002 l -0.002,-3.158251 H 4.599469 c -0.896169,0 -1.599609,-0.714005 -1.599609,-1.566405 V 6.5234377 c 0,-0.8523402 0.70346,-1.5724462 1.599609,-1.5664062 z"
       style="fill:#ff3232;fill-opacity:1"
       sodipodi:nodetypes="csssccccccssccccssccccccssssc" />
    <path
       id="path1"
       style="fill:#ff3232;fill-opacity:1;fill-rule:evenodd;stroke-width:0.453226"
       d="m 21.417968,16.164062 -9.140625,2.205079 c 3.670939,3.314859 7.069622,3.194145 8.72461,1.302734 1.654978,-1.8914 0.416015,-3.507813 0.416015,-3.507813 z m -0.636718,0.359376 c 0,0 0.941205,1.327456 -0.316406,2.880859 -1.257614,1.553423 -4.933131,1.691249 -7.722657,-1.03125 z" />
    <path
       id="path7"
       style="color:#000000;fill:#fbfbfb;fill-opacity:1;stroke-width:1.01347;stroke-linecap:round;stroke-linejoin:round;-inkscape-stroke:none"
       d="m 8.4785152,9.3242187 c -0.7234071,0.0089 -1.5103533,0.075297 -2.205078,0.5703125 A 0.69428487,0.66581983 0 0 0 5.9960936,10.429688 v 5.509765 a 0.69428487,0.66581983 0 0 0 0.2773436,0.535156 c 0.6981026,0.497472 1.5716706,0.796875 2.5117188,0.796875 1.0669755,0 2.165846,-0.213638 3.066406,-0.732421 0.900562,-0.518784 1.59961,-1.428452 1.59961,-2.580078 0,-1.151626 -0.602784,-2.263062 -1.453125,-3.126954 -0.850343,-0.8638911 -1.980378,-1.5078123 -3.212891,-1.5078123 -0.1003135,0 -0.203296,-0.00127 -0.3066408,0 z m 1.2363287,2.4296873 a 1.6299002,1.5438525 0 0 1 1.6308591,1.542969 1.6299002,1.5438525 0 0 1 -1.6308591,1.544922 1.6299002,1.5438525 0 0 1 -1.6289061,-1.544922 1.6299002,1.5438525 0 0 1 1.6289061,-1.542969 z" />
    <path
       id="path8"
       style="color:#000000;fill:#fbfbfb;fill-opacity:1;stroke-width:1.01347;stroke-linecap:round;stroke-linejoin:round;-inkscape-stroke:none"
       d="m 21.125,8 a 0.69428487,0.66581983 0 0 0 -0.533203,0.2421875 c -1.076352,1.2461925 -1.857235,2.8770705 -1.283204,4.5332035 0.401623,1.158721 1.371273,1.872863 2.425782,2.140625 1.054508,0.267759 2.203425,0.162276 3.240235,-0.160157 0.244049,-0.07593 0.467533,-0.173573 0.671875,-0.279297 a 0.69428487,0.66581983 0 0 0 0.363281,-0.585937 V 8.6660156 A 0.69428487,0.66581983 0 0 0 25.316406,8 Z m 0.697266,1.9882812 a 1.6299002,1.5438525 0 0 1 1.630859,1.5449218 1.6299002,1.5438525 0 0 1 -1.630859,1.542969 1.6299002,1.5438525 0 0 1 -1.628907,-1.542969 1.6299002,1.5438525 0 0 1 1.628907,-1.5449218 z" />
    <path
       inkscape:connector-curvature="0"
       id="path6"
       d="m 12.276671,18.369973 c 0,0 0.666721,-1.905078 4.158972,-2.764245 3.492263,-0.859148 5.153716,0.558744 5.153716,0.558744 0.465043,1.282776 -4.034641,3.275897 -4.034641,3.275897 0,0 -4.982223,0.254015 -5.278047,-1.070396 z"
       style="fill:#ff3232;fill-opacity:1" />
  </g>
  <g
     id="22-22-choqok_offline">
    <rect
       style="opacity:0.00100002"
       width="22"
       height="22"
       x="32"
       y="10"
       id="rect2-6" />
    <path
       id="path4411-1-6-3-7"
       style="fill:#ff3232;fill-opacity:1;fill-rule:evenodd;stroke-width:0.298135"
       d="m 46.396484,20.484375 -5.890625,1.482422 c 2.364747,2.226657 4.554983,2.143545 5.621094,0.873047 1.066104,-1.270492 0.269531,-2.355469 0.269531,-2.355469 z m -0.410156,0.242187 c 0,0 0.60505,0.890141 -0.205078,1.933594 -0.81013,1.043465 -3.177651,1.137352 -4.974609,-0.691406 z" />
    <path
       id="path10"
       style="color:#000000;fill:#eff0f1;stroke-linecap:round;stroke-linejoin:round;-inkscape-stroke:none"
       d="m 38.058594,15.888672 c -0.465631,0.0061 -0.97044,0.05221 -1.417969,0.384765 a 0.44724472,0.44724472 0 0 0 -0.181641,0.359375 v 3.701172 a 0.44724472,0.44724472 0 0 0 0.181641,0.359375 c 0.449705,0.334163 1.009675,0.535156 1.615234,0.535156 0.687326,0 1.396439,-0.143708 1.976563,-0.492187 0.580122,-0.348479 1.03125,-0.958852 1.03125,-1.732422 0,-0.77357 -0.387774,-1.521269 -0.935547,-2.101562 -0.547773,-0.580294 -1.278304,-1.013672 -2.072266,-1.013672 -0.06462,0 -0.130747,-8.71e-4 -0.197265,0 z m 0.798828,1.632812 a 1.0499498,1.037037 0 0 1 1.048828,1.03711 1.0499498,1.037037 0 0 1 -1.048828,1.037109 1.0499498,1.037037 0 0 1 -1.050781,-1.037109 1.0499498,1.037037 0 0 1 1.050781,-1.03711 z" />
    <path
       id="path9"
       style="color:#000000;fill:#eff0f1;stroke-linecap:round;stroke-linejoin:round;-inkscape-stroke:none"
       d="m 46.207031,15 a 0.44724472,0.44724472 0 0 0 -0.345703,0.162109 c -0.693363,0.837092 -1.193997,1.934418 -0.824219,3.046875 0.258718,0.778336 0.883208,1.257639 1.5625,1.4375 0.679295,0.179861 1.418046,0.10721 2.085938,-0.109375 0.15722,-0.05101 0.301973,-0.116493 0.433594,-0.1875 a 0.44724472,0.44724472 0 0 0 0.234375,-0.392578 V 15.447265 A 0.44724472,0.44724472 0 0 0 48.90625,15 Z m 0.449219,1.335937 a 1.0499498,1.037037 0 0 1 1.050781,1.03711 1.0499498,1.037037 0 0 1 -1.050781,1.037109 1.0499498,1.037037 0 0 1 -1.050781,-1.037109 1.0499498,1.037037 0 0 1 1.050781,-1.03711 z" />
    <path
       inkscape:connector-curvature="0"
       style="fill:#ff3232;fill-opacity:1;fill-rule:evenodd;stroke-width:0.298135"
       id="path4284-9-6-5"
       d="m 40.506679,21.966013 c 0,0 0.429489,-1.27968 2.679129,-1.8568 2.249647,-0.577107 3.319923,0.37532 3.319923,0.37532 0.299571,0.861666 -2.599037,2.200486 -2.599037,2.200486 0,0 -3.209451,0.170627 -3.400015,-0.719006 z" />
    <path
       id="path837-3"
       d="m 36.616557,12 c -1.435907,-0.0097 -2.59961,1.149346 -2.59961,2.566406 v 9.867188 c 0,1.4171 1.16367,2.566406 2.59961,2.566406 h 1.40039 l 0.0019,2.171875 c 10e-7,0.2129 0.0699,0.419144 0.199219,0.589844 0.33079,0.4364 0.956168,0.525618 1.398438,0.199219 L 43.628276,27 l 5.789062,2e-6 c 1.435776,0.01878 2.599609,-1.149308 2.599609,-2.566408 v -9.867188 c 0,-1.41706 -1.163742,-2.556736 -2.599609,-2.566406 z m 0,1 h 12.800781 c 0.896179,0.006 1.599609,0.714066 1.599609,1.566406 v 9.867188 c 0,0.8524 -0.703499,1.579036 -1.599609,1.566407 L 43.298197,26 l -4.27539,3.15625 -0.0019,0.002 h -0.002 L 39.016907,26 h -2.40039 c -0.89617,0 -1.59961,-0.714006 -1.59961,-1.566406 v -9.867188 c 0,-0.85234 0.70346,-1.572446 1.59961,-1.566406 z"
       style="fill:#ff3232;fill-opacity:1"
       sodipodi:nodetypes="csssccccccssccccssccccccsssc" />
  </g>
</svg>
