<?xml version="1.0" encoding="UTF-8" standalone="no"?>
<svg
   width="32"
   height="32"
   version="1.1"
   viewBox="0 0 32 32"
   id="svg33"
   sodipodi:docname="compass.svg"
   inkscape:version="1.1.1 (3bf5ae0d25, 2021-09-20, custom)"
   xmlns:inkscape="http://www.inkscape.org/namespaces/inkscape"
   xmlns:sodipodi="http://sodipodi.sourceforge.net/DTD/sodipodi-0.dtd"
   xmlns:xlink="http://www.w3.org/1999/xlink"
   xmlns="http://www.w3.org/2000/svg"
   xmlns:svg="http://www.w3.org/2000/svg">
  <sodipodi:namedview
     id="namedview35"
     pagecolor="#c8c8c8"
     bordercolor="#999999"
     borderopacity="1"
     inkscape:pageshadow="0"
     inkscape:pageopacity="0"
     inkscape:pagecheckerboard="0"
     showgrid="true"
     inkscape:zoom="8"
     inkscape:cx="0.0625"
     inkscape:cy="17.25"
     inkscape:window-width="1920"
     inkscape:window-height="1005"
     inkscape:window-x="0"
     inkscape:window-y="0"
     inkscape:window-maximized="1"
     inkscape:current-layer="svg33"
     inkscape:snap-bbox="true"
     inkscape:snap-bbox-edge-midpoints="false"
     inkscape:bbox-nodes="true"
     inkscape:snap-nodes="false">
    <inkscape:grid
       type="xygrid"
       id="grid852" />
  </sodipodi:namedview>
  <defs
     id="defs16">
    <linearGradient
       id="linearGradient860">
      <stop
         stop-color="#4deb47"
         offset="0"
         id="stop2" />
      <stop
         stop-color="#ffa000"
         offset="1"
         id="stop4" />
    </linearGradient>
    <linearGradient
       id="linearGradient11">
      <stop
         stop-color="#5df240"
         offset="0"
         id="stop7" />
      <stop
         stop-color="#fff400"
         offset="1"
         id="stop9" />
    </linearGradient>
    <style
       id="current-color-scheme"
       type="text/css">.ColorScheme-Text { color:#565656; } .ColorScheme-Highlight { color:#5294e2; }</style>
    <linearGradient
       id="linearGradient848"
       x2="22"
       y1="11"
       y2="11"
       gradientTransform="matrix(1.27272,0,0,1.27272,2,2.0546)"
       gradientUnits="userSpaceOnUse"
       xlink:href="#linearGradient860" />
    <linearGradient
       id="linearGradient877"
       x1="3"
       x2="19"
       y1="11"
       y2="11"
       gradientUnits="userSpaceOnUse"
       xlink:href="#linearGradient860"
       gradientTransform="translate(-24,10)" />
  </defs>
  <g
     id="compass">
    <rect
       style="opacity:0.001;fill:#fbfbfb;fill-opacity:1;fill-rule:evenodd;stroke:#fbfbfb;stroke-width:0.474848;stroke-linecap:butt;stroke-linejoin:round;stroke-miterlimit:4;stroke-dasharray:none;stroke-opacity:1;paint-order:stroke fill markers"
       id="rect16997"
       width="31.525152"
       height="31.525152"
       x="0.2374239"
       y="0.2374239"
       ry="0" />
    <g
       id="g16971">
      <path
         id="path4217"
         style="fill:#fbfbfb;fill-opacity:1;fill-rule:evenodd;stroke-width:10.7143;stroke-linecap:round;stroke-linejoin:round;paint-order:stroke fill markers"
         d="m 9.9540802,8.5004432 c -0.984519,0.065469 -1.747819,1.0847518 -1.349609,2.1210938 l 2.3984368,6.246094 c 0.729999,1.899999 2.230985,3.400735 4.130859,4.130859 l 6.244141,2.396485 c 1.263375,0.485374 2.502952,-0.752251 2.017578,-2.015626 l -2.398437,-6.246093 c -0.729998,-1.899874 -2.230861,-3.400862 -4.13086,-4.13086 l -6.24414,-2.396484 c -0.15792,-0.060676 -0.314856,-0.095415 -0.46875,-0.1054688 -0.06733,-0.0044 -0.133585,-0.00436 -0.1992188,0 z m -0.142578,1.0117188 6.4941408,2.496094 c 0.105328,0.04047 0.209009,0.08272 0.3125,0.128906 0.102588,0.04579 0.206135,0.09512 0.30664,0.146484 0.200629,0.102547 0.393751,0.214557 0.580078,0.335938 0.187203,0.121952 0.366638,0.254644 0.539063,0.394531 0.172375,0.139846 0.336926,0.288092 0.49414,0.445313 0.156374,0.156384 0.306611,0.320751 0.447266,0.49414 0.139868,0.172418 0.270624,0.351846 0.392578,0.539063 0.122614,0.188226 0.234385,0.383364 0.335938,0.582031 0.0507,0.0992 0.100164,0.198954 0.146484,0.302734 0.0462,0.10351 0.08844,0.209151 0.128906,0.314453 l 2.496094,6.494141 a 0.23238023,0.23238023 0 0 1 -0.298828,0.298828 l -6.498047,-2.49414 c -0.108108,-0.04154 -0.211701,-0.08587 -0.3125,-0.13086 -0.103709,-0.0463 -0.205438,-0.09572 -0.304688,-0.146484 -0.19853,-0.101519 -0.393819,-0.211305 -0.582031,-0.333985 -0.186981,-0.12188 -0.366644,-0.254544 -0.539062,-0.394531 -0.173095,-0.140537 -0.337748,-0.290722 -0.494141,-0.447265 -0.156914,-0.157061 -0.305456,-0.321575 -0.445312,-0.494141 -0.139603,-0.172256 -0.270621,-0.351664 -0.392578,-0.539063 -0.121919,-0.187332 -0.232093,-0.380598 -0.333985,-0.580078 -0.05129,-0.10042 -0.100684,-0.203958 -0.146484,-0.30664 -0.04615,-0.103451 -0.09038,-0.207146 -0.13086,-0.3125 L 9.5107212,9.812943 a 0.23238023,0.23238023 0 0 1 0.300781,-0.300781 z" />
      <g
         id="g16881"
         transform="translate(-72)">
        <path
           id="path4244"
           style="opacity:1;fill:#fbfbfb;fill-opacity:1;fill-rule:evenodd;stroke:none;stroke-width:0.982566;stroke-linecap:butt;stroke-linejoin:round;stroke-miterlimit:4;stroke-dasharray:none;stroke-opacity:1;paint-order:stroke fill markers"
           d="M 88,1 A 15,15 0 0 0 73,16 15,15 0 0 0 88,31 15,15 0 0 0 103,16 15,15 0 0 0 88,1 Z m 0,1 A 14,14 0 0 1 102,16 14,14 0 0 1 88,30 14,14 0 0 1 74,16 14,14 0 0 1 88,2 Z" />
        <rect
           style="opacity:1;fill:#fbfbfb;fill-opacity:1;fill-rule:evenodd;stroke:none;stroke-width:0.482;stroke-linecap:butt;stroke-linejoin:round;stroke-miterlimit:4;stroke-dasharray:none;stroke-opacity:1;paint-order:stroke fill markers"
           id="rect4501"
           width="2"
           height="4"
           x="87"
           y="1"
           ry="1" />
        <rect
           style="opacity:1;fill:#fbfbfb;fill-opacity:1;fill-rule:evenodd;stroke:none;stroke-width:0.482;stroke-linecap:butt;stroke-linejoin:round;stroke-miterlimit:4;stroke-dasharray:none;stroke-opacity:1;paint-order:stroke fill markers"
           id="rect4602"
           width="2"
           height="4"
           x="87"
           y="27"
           ry="1" />
        <rect
           style="opacity:1;fill:#fbfbfb;fill-opacity:1;fill-rule:evenodd;stroke:none;stroke-width:0.482;stroke-linecap:butt;stroke-linejoin:round;stroke-miterlimit:4;stroke-dasharray:none;stroke-opacity:1;paint-order:stroke fill markers"
           id="rect4604"
           width="2"
           height="4"
           x="15"
           y="-103"
           ry="1"
           transform="rotate(90)" />
        <rect
           style="opacity:1;fill:#fbfbfb;fill-opacity:1;fill-rule:evenodd;stroke:none;stroke-width:0.482;stroke-linecap:butt;stroke-linejoin:round;stroke-miterlimit:4;stroke-dasharray:none;stroke-opacity:1;paint-order:stroke fill markers"
           id="rect4606"
           width="2"
           height="4"
           x="15"
           y="-77"
           ry="1"
           transform="rotate(90)" />
      </g>
    </g>
  </g>
  <g
     id="22-22-compass">
    <rect
       style="opacity:0.00100002;fill:#000000;fill-opacity:1;fill-rule:evenodd;stroke-width:0.175709;stroke-linecap:round;stroke-linejoin:round;paint-order:stroke fill markers"
       id="rect35320"
       width="22"
       height="22"
       x="-25"
       y="10"
       ry="0" />
    <g
       id="g21877"
       transform="translate(31.500127)">
      <path
         id="path17994"
         style="opacity:1;fill:#fbfbfb;fill-opacity:1;fill-rule:evenodd;stroke:none;stroke-width:0.482;stroke-linecap:butt;stroke-linejoin:round;stroke-miterlimit:4;stroke-dasharray:none;stroke-opacity:1;paint-order:stroke fill markers"
         d="m -48.926392,16.503841 c -0.04602,0.0023 -0.09213,0.0076 -0.136719,0.01563 -0.04459,0.008 -0.08807,0.01991 -0.130859,0.0332 -0.04279,0.01329 -0.08438,0.02867 -0.125,0.04687 -0.04062,0.01821 -0.08108,0.03779 -0.119141,0.06055 -0.03806,0.02276 -0.07424,0.04925 -0.109375,0.07617 -0.03513,0.02692 -0.06973,0.05522 -0.101562,0.08594 -0.03183,0.03072 -0.06169,0.06352 -0.08984,0.09766 -0.02815,0.03414 -0.05403,0.07024 -0.07813,0.107422 -0.0241,0.03719 -0.04673,0.07538 -0.06641,0.115234 -0.01967,0.03985 -0.03592,0.0809 -0.05078,0.123047 -0.01487,0.04215 -0.02742,0.08483 -0.03711,0.128906 -0.0097,0.04407 -0.01735,0.08915 -0.02148,0.134766 -0.0041,0.04562 -0.0057,0.09188 -0.0039,0.138672 0.0018,0.04679 0.0075,0.09499 0.01563,0.142578 0.0081,0.04759 0.02037,0.09457 0.03516,0.142578 0.01479,0.04801 0.03284,0.09647 0.05469,0.144531 l 1.669922,3.671875 c 0.04924,0.108338 0.101819,0.21375 0.160156,0.316407 0.05834,0.102656 0.12251,0.20234 0.189453,0.298828 0.06694,0.09649 0.13783,0.189465 0.212891,0.279297 0.07506,0.08983 0.153637,0.177076 0.236328,0.259765 0.08269,0.08269 0.167979,0.161269 0.257813,0.236328 0.08983,0.07506 0.184761,0.145948 0.28125,0.212891 0.09649,0.06694 0.196172,0.129162 0.298828,0.1875 0.102656,0.05834 0.208072,0.112862 0.316406,0.162109 l 3.671875,1.669922 c 0.05915,0.02689 0.116771,0.04818 0.175781,0.06445 0.05901,0.01627 0.11956,0.02685 0.177735,0.0332 0.05817,0.0064 0.115234,0.0087 0.171875,0.0059 0.05664,-0.0029 0.111606,-0.01009 0.166015,-0.02148 0.05441,-0.01139 0.10868,-0.02766 0.160156,-0.04687 0.05148,-0.01921 0.100592,-0.04202 0.148438,-0.06836 0.04785,-0.02634 0.0932,-0.05513 0.136719,-0.08789 0.04352,-0.03276 0.08456,-0.06893 0.123047,-0.107422 0.03849,-0.03849 0.07466,-0.07953 0.107422,-0.123047 0.03276,-0.04352 0.06351,-0.09083 0.08984,-0.138672 0.02634,-0.04785 0.04915,-0.09696 0.06836,-0.148438 0.01921,-0.05148 0.03353,-0.103795 0.04492,-0.158203 0.01139,-0.05441 0.01861,-0.111327 0.02148,-0.167968 0.0029,-0.05664 0.0024,-0.113701 -0.0039,-0.171876 -0.0064,-0.05817 -0.01889,-0.116771 -0.03516,-0.175781 -0.01627,-0.05901 -0.03757,-0.118587 -0.06445,-0.177734 l -1.669922,-3.671875 c -0.04925,-0.108334 -0.101817,-0.213751 -0.160156,-0.316406 -0.05834,-0.102654 -0.12251,-0.202339 -0.189453,-0.298828 -0.06694,-0.09649 -0.137832,-0.189464 -0.212891,-0.279297 -0.07506,-0.08983 -0.153638,-0.177075 -0.236328,-0.259766 -0.08269,-0.08269 -0.16798,-0.161267 -0.257812,-0.236328 -0.08983,-0.07506 -0.184762,-0.145948 -0.28125,-0.212891 -0.09649,-0.06694 -0.196172,-0.129163 -0.298828,-0.1875 -0.102656,-0.05834 -0.20807,-0.112867 -0.316407,-0.162109 l -3.671875,-1.669922 c -0.04436,-0.02016 -0.08854,-0.03665 -0.132812,-0.05078 -0.04427,-0.01413 -0.08888,-0.0248 -0.132813,-0.0332 -0.04393,-0.0084 -0.08752,-0.0146 -0.130859,-0.01758 -0.04333,-0.003 -0.08447,-0.0041 -0.126953,-0.002 z m 0.146484,0.994141 a 0.2339789,0.2339789 0 0 1 0.109375,0.02148 l 3.5625,1.619141 c 0.08107,0.03684 0.160491,0.07688 0.238281,0.121094 0.07838,0.04453 0.15302,0.0929 0.22461,0.142578 0.07322,0.0508 0.143867,0.104116 0.210937,0.160156 0.06796,0.05679 0.133223,0.117578 0.195313,0.179688 0.06207,0.06207 0.121224,0.125729 0.177734,0.193359 0.05754,0.06885 0.110536,0.139418 0.160156,0.210938 0.04967,0.07159 0.09805,0.146249 0.142579,0.224609 0.04419,0.07777 0.08425,0.157241 0.121093,0.238281 l 1.619141,3.5625 a 0.2339789,0.2339789 0 0 1 -0.310547,0.310547 l -3.5625,-1.619141 c -0.08107,-0.03685 -0.160521,-0.0769 -0.238281,-0.121093 -0.07838,-0.04454 -0.153039,-0.09293 -0.224609,-0.142579 -0.07323,-0.05081 -0.143888,-0.104146 -0.210938,-0.160156 -0.06799,-0.05681 -0.133243,-0.117627 -0.195312,-0.179687 -0.06209,-0.06209 -0.119292,-0.12577 -0.175782,-0.19336 -0.05754,-0.06887 -0.112499,-0.139437 -0.162109,-0.210937 -0.04968,-0.0716 -0.09609,-0.146279 -0.140625,-0.22461 -0.04419,-0.07776 -0.0862,-0.159174 -0.123047,-0.240234 l -1.619141,-3.5625 a 0.2339789,0.2339789 0 0 1 0.201172,-0.330074 z" />
      <g
         id="g21868"
         transform="translate(11.499873)">
        <path
           id="path21532"
           style="opacity:1;fill:#fbfbfb;fill-opacity:1;fill-rule:evenodd;stroke:none;stroke-width:0.482;stroke-linecap:butt;stroke-linejoin:round;stroke-miterlimit:4;stroke-dasharray:none;stroke-opacity:1;paint-order:stroke fill markers"
           d="m -57,12 a 9,9 0 0 0 -9,9 9,9 0 0 0 9,9 9,9 0 0 0 9,-9 9,9 0 0 0 -9,-9 z m 0,1 a 8,8 0 0 1 8,8 8,8 0 0 1 -8,8 8,8 0 0 1 -8,-8 8,8 0 0 1 8,-8 z" />
        <rect
           style="opacity:1;fill:#fbfbfb;fill-opacity:1;fill-rule:evenodd;stroke:none;stroke-width:0.482;stroke-linecap:butt;stroke-linejoin:round;stroke-miterlimit:4;stroke-dasharray:none;stroke-opacity:1;paint-order:stroke fill markers"
           id="rect21756"
           width="1"
           height="3"
           x="-57"
           y="12"
           ry="0.5" />
        <rect
           style="opacity:1;fill:#fbfbfb;fill-opacity:1;fill-rule:evenodd;stroke:none;stroke-width:0.482;stroke-linecap:butt;stroke-linejoin:round;stroke-miterlimit:4;stroke-dasharray:none;stroke-opacity:1;paint-order:stroke fill markers"
           id="rect21857"
           width="1"
           height="3"
           x="-57"
           y="27"
           ry="0.5" />
        <rect
           style="opacity:1;fill:#fbfbfb;fill-opacity:1;fill-rule:evenodd;stroke:none;stroke-width:0.482;stroke-linecap:butt;stroke-linejoin:round;stroke-miterlimit:4;stroke-dasharray:none;stroke-opacity:1;paint-order:stroke fill markers"
           id="rect21859"
           width="1"
           height="3"
           x="21"
           y="48"
           ry="0.5"
           transform="rotate(90)" />
        <rect
           style="opacity:1;fill:#fbfbfb;fill-opacity:1;fill-rule:evenodd;stroke:none;stroke-width:0.482;stroke-linecap:butt;stroke-linejoin:round;stroke-miterlimit:4;stroke-dasharray:none;stroke-opacity:1;paint-order:stroke fill markers"
           id="rect21861"
           width="1"
           height="3"
           x="21"
           y="63"
           ry="0.5"
           transform="rotate(90)" />
      </g>
    </g>
  </g>
</svg>
