<?xml version="1.0" encoding="UTF-8" standalone="no"?>
<svg
   id="svg"
   inkscape:version="1.1 (c4e8f9ed74, 2021-05-24)"
   sodipodi:docname="configure.svg"
   version="1.1"
   viewBox="0 0 32 32"
   width="32"
   height="32"
   xmlns:inkscape="http://www.inkscape.org/namespaces/inkscape"
   xmlns:sodipodi="http://sodipodi.sourceforge.net/DTD/sodipodi-0.dtd"
   xmlns="http://www.w3.org/2000/svg"
   xmlns:svg="http://www.w3.org/2000/svg"
   xmlns:rdf="http://www.w3.org/1999/02/22-rdf-syntax-ns#"
   xmlns:cc="http://creativecommons.org/ns#"
   xmlns:dc="http://purl.org/dc/elements/1.1/">
  <metadata
     id="metadata15">
    <rdf:RDF>
      <cc:Work
         rdf:about="">
        <dc:format>image/svg+xml</dc:format>
        <dc:type
           rdf:resource="http://purl.org/dc/dcmitype/StillImage" />
        <dc:title />
      </cc:Work>
    </rdf:RDF>
  </metadata>
  <sodipodi:namedview
     id="namedview20"
     bordercolor="#666666"
     borderopacity="1"
     gridtolerance="10"
     guidetolerance="10"
     inkscape:current-layer="svg"
     inkscape:cx="-26.828111"
     inkscape:cy="0.26366694"
     inkscape:pageopacity="0"
     inkscape:pageshadow="2"
     inkscape:window-height="954"
     inkscape:window-maximized="1"
     inkscape:window-width="1920"
     inkscape:window-x="0"
     inkscape:window-y="40"
     inkscape:zoom="7.5853272"
     objecttolerance="10"
     pagecolor="#c8c8c8"
     showgrid="false"
     inkscape:pagecheckerboard="0" />
  <defs
     id="defs3">
    <style
       id="current-color-scheme"
       type="text/css">.ColorScheme-Text { color:#dedede; } .ColorScheme-Highlight { color:#5294e2; } .ColorScheme-ButtonBackground { color:#dedede; }</style>
  </defs>
  <g
     id="configure">
    <path
       style="fill:none"
       inkscape:connector-curvature="0"
       d="M 0,0 V 32 H 32 V 0 Z"
       id="path14-6" />
    <path
       style="color:#000000;fill:#fbfbfb;stroke-width:0.0235285;-inkscape-stroke:none"
       d="m 13.750673,26.494897 h 4.498653 v -2.54814 c 0,-0.298808 0.150582,-0.599978 0.449394,-0.750555 0.75056,-0.298815 1.498766,-0.750563 2.098743,-1.199955 0.298812,-0.150585 0.599978,-0.150585 0.89879,0 l 2.249326,1.348177 2.249325,-3.898672 -2.249325,-1.348185 c -0.298812,-0.29646 -0.449394,-0.597623 -0.298812,-0.896438 0,-0.449392 0.150582,-0.750555 0.150582,-1.199947 0,-0.4494 0,-0.750563 -0.150582,-1.199955 0,-0.298815 0.150582,-0.599978 0.298812,-0.750563 l 2.249325,-1.348185 -2.249325,-3.8986724 -2.249326,1.3481854 c -0.298812,0.150577 -0.599978,0.150577 -0.89879,0 C 20.197486,9.7025991 19.44928,9.2531991 18.69872,8.9520366 18.399908,8.6532216 18.249326,8.3520591 18.249326,8.0532441 V 5.5074589 h -4.498653 v 2.5481402 c 0,0.298815 -0.150582,0.5999775 -0.449394,0.7505625 -0.75056,0.2988075 -1.498767,0.750555 -2.098743,1.1999554 -0.298812,0.150577 -0.599978,0.150577 -0.89879,0 l -2.2493253,-1.1999554 -2.249326,3.8963174 2.249326,1.348185 c 0.298812,0.150585 0.449394,0.449393 0.298812,0.750563 0,0.449392 -0.150583,0.750555 -0.150583,1.199955 0,0.449392 0,0.750555 0.150583,1.199947 0.150582,0.298815 0,0.599978 -0.298812,0.750563 l -2.249326,1.348185 2.249326,3.898672 2.2493253,-1.348185 c 0.298812,-0.150577 0.599978,-0.150577 0.89879,0 0.599976,0.4494 1.348183,0.898793 2.098743,1.199955 0.298812,0.150585 0.449394,0.4494 0.449394,0.750563 z m 5.246859,1.498762 h -5.995065 c -0.449394,0 -0.75056,-0.298807 -0.75056,-0.750555 V 24.396149 C 11.65193,24.097342 11.051953,23.796172 10.602559,23.497364 l -2.3975563,1.498763 c -0.298812,0.150585 -0.750559,0.150585 -1.049371,-0.298808 l -2.999885,-5.246857 c -0.298813,-0.4494 -0.150583,-0.898793 0.298812,-1.049378 l 2.397555,-1.498762 v -1.799933 l -2.395203,-1.498762 c -0.449394,-0.150586 -0.599977,-0.599978 -0.298812,-1.049378 l 2.997533,-5.2468576 c 0.150582,-0.298815 0.599977,-0.4493925 1.049371,-0.150585 L 10.602559,8.6555766 C 11.051953,8.3567616 11.65193,7.9050141 12.251907,7.7567841 V 4.7569039 c 0,-0.4494 0.298812,-0.7505625 0.75056,-0.7505625 h 5.997418 c 0.449395,0 0.75056,0.298815 0.75056,0.7505625 v 2.8493027 c 0.599977,0.2988075 1.199953,0.5999775 1.649348,0.898785 l 2.397556,-1.4987627 c 0.298813,-0.150585 0.750561,-0.150585 1.049371,0.2988075 l 2.997534,5.2468646 c 0.298812,0.449393 0.150583,0.898785 -0.298813,1.049371 l -2.397555,1.498762 v 1.799933 l 2.397555,1.49877 c 0.298813,0.150577 0.449396,0.599977 0.298813,1.04937 l -2.997534,5.246857 c -0.150582,0.298815 -0.599976,0.449393 -1.049371,0.298815 l -2.397556,-1.49877 c -0.449395,0.298815 -1.049371,0.750563 -1.649348,0.898793 v 2.849302 c -0.0023,0.451748 -0.301165,0.750555 -0.752913,0.750555 z m -2.997533,-7.493827 c -2.548138,0 -4.498651,-1.948163 -4.498651,-4.49865 0,-2.550496 1.950513,-4.498658 4.498651,-4.498658 2.548139,0 4.498652,1.950517 4.498652,4.498658 0,2.548132 -1.950513,4.49865 -4.498652,4.49865 z m 0,-7.496183 c -1.649348,0 -2.997532,1.348178 -2.997532,2.997533 0,1.649347 1.348184,2.997532 2.997532,2.997532 1.649349,0 2.997533,-1.348185 2.997533,-2.997532 0,-1.649355 -1.348184,-2.997533 -2.997533,-2.997533 z"
       id="path839" />
  </g>
  <g
     id="22-22-configure">
    <path
       style="fill:none"
       inkscape:connector-curvature="0"
       d="M -22,10 V 32 H 0 V 10 Z"
       id="path9" />
    <path
       style="color:#000000;fill:#fbfbfb;stroke-width:0.0156856;-inkscape-stroke:none"
       d="m -12.499551,27.996595 h 2.9991018 v -1.69876 c 0,-0.19921 0.100388,-0.39998 0.299596,-0.50037 0.500373,-0.19921 0.999178,-0.50037 1.399163,-0.79997 0.199208,-0.10039 0.399984,-0.10039 0.599192,0 l 1.499551,0.89879 1.499551,-2.59912 -1.499551,-0.89879 c -0.199208,-0.19764 -0.299596,-0.39841 -0.199208,-0.59762 0,-0.2996 0.100388,-0.50038 0.100388,-0.79997 0,-0.2996 0,-0.50038 -0.100388,-0.79997 0,-0.19921 0.100388,-0.39999 0.199208,-0.50037 l 1.499551,-0.89879 -1.499551,-2.59912 -1.499551,0.89879 c -0.199208,0.10039 -0.399984,0.10039 -0.599192,0 -0.399985,-0.2996 -0.89879,-0.59919 -1.399163,-0.79997 -0.199208,-0.19921 -0.299596,-0.39999 -0.299596,-0.59919 v -1.69719 h -2.9991018 v 1.69875 c 0,0.19921 -0.100388,0.39999 -0.299596,0.50038 -0.500373,0.19921 -0.999178,0.50037 -1.399162,0.79997 -0.199208,0.10039 -0.399985,0.10039 -0.599193,0 l -1.499551,-0.79997 -1.499551,2.59755 1.499551,0.89879 c 0.199208,0.10038 0.299597,0.29959 0.199208,0.50037 0,0.29959 -0.100388,0.50037 -0.100388,0.79997 0,0.29959 0,0.50037 0.100388,0.79997 0.100389,0.19921 0,0.39998 -0.199208,0.50037 l -1.499551,0.89879 1.499551,2.59912 1.499551,-0.89879 c 0.199208,-0.10039 0.399985,-0.10039 0.599193,0 0.399984,0.29959 0.898789,0.59919 1.399162,0.79997 0.199208,0.10039 0.299596,0.29959 0.299596,0.50037 z m 3.4979058,0.99918 h -3.9967098 c -0.299596,0 -0.500373,-0.19921 -0.500373,-0.50038 v -1.89796 c -0.399985,-0.19921 -0.79997,-0.39999 -1.099566,-0.5992 l -1.59837,0.99918 c -0.199209,0.10039 -0.500374,0.10039 -0.699581,-0.19921 l -1.999924,-3.4979 c -0.199208,-0.2996 -0.100388,-0.59919 0.199208,-0.69958 l 1.59837,-0.99918 v -1.19995 l -1.596801,-0.99918 c -0.299597,-0.10039 -0.399985,-0.39999 -0.199208,-0.69958 l 1.998355,-3.49791 c 0.100388,-0.19921 0.399984,-0.2996 0.699581,-0.10039 l 1.59837,0.99918 c 0.299596,-0.19921 0.699581,-0.50037 1.099566,-0.59919 v -1.99993 c 0,-0.29959 0.199208,-0.50037 0.500373,-0.50037 h 3.9982788 c 0.299596,0 0.500373,0.19921 0.500373,0.50037 v 1.89954 c 0.399985,0.19921 0.799969,0.39998 1.099566,0.59919 l 1.59837,-0.99918 c 0.199208,-0.10038 0.500373,-0.10038 0.699582,0.19921 l 1.998355,3.49791 c 0.199207,0.29959 0.100388,0.59919 -0.199208,0.69958 l -1.598371,0.99918 v 1.19995 l 1.598371,0.99918 c 0.199208,0.10039 0.299596,0.39998 0.199208,0.69958 l -1.998355,3.49791 c -0.100389,0.1992 -0.399985,0.29959 -0.699582,0.1992 l -1.59837,-0.99917 c -0.299597,0.1992 -0.699581,0.50037 -1.099566,0.59919 v 1.89953 c -0.0016,0.30117 -0.200777,0.50038 -0.501942,0.50038 z M -11,23.999885 c -1.698759,0 -2.999101,-1.29877 -2.999101,-2.9991 0,-1.70033 1.300342,-2.9991 2.999101,-2.9991 1.6987588,0 2.9991008,1.30034 2.9991008,2.9991 0,1.69876 -1.300342,2.9991 -2.9991008,2.9991 z m 0,-4.99746 c -1.099566,0 -1.998355,0.89879 -1.998355,1.99836 0,1.09956 0.898789,1.99835 1.998355,1.99835 1.0995658,0 1.9983548,-0.89879 1.9983548,-1.99835 0,-1.09957 -0.898789,-1.99836 -1.9983548,-1.99836 z"
       id="path1068" />
  </g>
  <g
     id="16-16-configure">
    <path
       style="fill:none;stroke-width:0.727273"
       inkscape:connector-curvature="0"
       d="m -38,16 v 16 h 16 V 16 Z"
       id="path9-7" />
    <path
       style="color:#000000;fill:#fbfbfb;stroke-width:0.0117642;-inkscape-stroke:none"
       d="m -31.124663,29.247444 h 2.249326 v -1.27407 c 0,-0.149408 0.07529,-0.299985 0.224697,-0.375278 0.37528,-0.149407 0.749384,-0.375277 1.049373,-0.599977 0.149406,-0.07529 0.299988,-0.07529 0.449394,0 l 1.124663,0.674092 1.124663,-1.94934 -1.124663,-0.674092 c -0.149406,-0.14823 -0.224697,-0.298808 -0.149406,-0.448215 0,-0.2247 0.07529,-0.375285 0.07529,-0.599978 0,-0.2247 0,-0.375285 -0.07529,-0.599977 0,-0.149408 0.07529,-0.299993 0.149406,-0.375278 l 1.124663,-0.674092 -1.124663,-1.94934 -1.124663,0.674092 c -0.149406,0.07529 -0.299988,0.07529 -0.449394,0 -0.299989,-0.2247 -0.674093,-0.449392 -1.049373,-0.599977 -0.149406,-0.149408 -0.224697,-0.299993 -0.224697,-0.449393 v -1.272892 h -2.249326 v 1.274062 c 0,0.149408 -0.07529,0.299993 -0.224697,0.375285 -0.37528,0.149408 -0.749384,0.375278 -1.049372,0.599978 -0.149406,0.07529 -0.299988,0.07529 -0.449394,0 l -1.124664,-0.599978 -1.124663,1.948163 1.124663,0.674092 c 0.149406,0.07529 0.224698,0.224693 0.149406,0.375278 0,0.224692 -0.07529,0.375277 -0.07529,0.599977 0,0.224693 0,0.375278 0.07529,0.599978 0.07529,0.149407 0,0.299985 -0.149406,0.375277 l -1.124663,0.674093 1.124663,1.94934 1.124664,-0.674093 c 0.149406,-0.07529 0.299988,-0.07529 0.449394,0 0.299988,0.224693 0.674092,0.449393 1.049372,0.599978 0.149406,0.07529 0.224697,0.224692 0.224697,0.375277 z m 2.623429,0.749385 h -2.997532 c -0.224697,0 -0.37528,-0.149408 -0.37528,-0.375285 v -1.42347 c -0.299989,-0.149408 -0.599977,-0.299993 -0.824674,-0.4494 l -1.198778,0.749385 c -0.149407,0.07529 -0.37528,0.07529 -0.524686,-0.149408 l -1.499943,-2.623425 c -0.149406,-0.2247 -0.07529,-0.449392 0.149406,-0.524685 l 1.198778,-0.749385 v -0.899962 l -1.197601,-0.749385 c -0.224698,-0.07529 -0.299989,-0.299993 -0.149406,-0.524685 l 1.498766,-2.623433 c 0.07529,-0.149407 0.299988,-0.2247 0.524686,-0.07529 l 1.198778,0.749385 c 0.224697,-0.149407 0.524685,-0.375277 0.824674,-0.449392 v -1.499947 c 0,-0.224693 0.149406,-0.375278 0.37528,-0.375278 h 2.998709 c 0.224697,0 0.37528,0.149408 0.37528,0.375278 v 1.424654 c 0.299989,0.149408 0.599977,0.299985 0.824675,0.449393 l 1.198777,-0.749385 c 0.149406,-0.07528 0.37528,-0.07528 0.524687,0.149407 l 1.498766,2.623433 c 0.149405,0.224692 0.07529,0.449392 -0.149406,0.524685 l -1.198778,0.749385 v 0.899962 l 1.198778,0.749385 c 0.149406,0.07529 0.224697,0.299985 0.149406,0.524685 l -1.498766,2.623433 c -0.07529,0.1494 -0.299989,0.224692 -0.524687,0.1494 l -1.198777,-0.749378 c -0.224698,0.1494 -0.524686,0.375278 -0.824675,0.449393 v 1.424647 c -0.0012,0.225878 -0.150583,0.375285 -0.376457,0.375285 z M -30,26.249911 c -1.274069,0 -2.249326,-0.974077 -2.249326,-2.249325 0,-1.275247 0.975257,-2.249325 2.249326,-2.249325 1.274069,0 2.249326,0.975255 2.249326,2.249325 0,1.27407 -0.975257,2.249325 -2.249326,2.249325 z m 0,-3.748095 c -0.824674,0 -1.498766,0.674093 -1.498766,1.49877 0,0.82467 0.674092,1.498763 1.498766,1.498763 0.824675,0 1.498766,-0.674093 1.498766,-1.498763 0,-0.824677 -0.674091,-1.49877 -1.498766,-1.49877 z"
       id="path1204" />
  </g>
</svg>
