<?xml version="1.0" encoding="UTF-8" standalone="no"?>
<svg
   id="svg"
   inkscape:version="1.1 (c4e8f9ed74, 2021-05-24)"
   sodipodi:docname="device.svg"
   version="1.1"
   viewBox="0 0 22 22"
   xmlns:inkscape="http://www.inkscape.org/namespaces/inkscape"
   xmlns:sodipodi="http://sodipodi.sourceforge.net/DTD/sodipodi-0.dtd"
   xmlns="http://www.w3.org/2000/svg"
   xmlns:svg="http://www.w3.org/2000/svg"
   xmlns:rdf="http://www.w3.org/1999/02/22-rdf-syntax-ns#"
   xmlns:cc="http://creativecommons.org/ns#"
   xmlns:dc="http://purl.org/dc/elements/1.1/">
  <metadata
     id="metadata28">
    <rdf:RDF>
      <cc:Work
         rdf:about="">
        <dc:format>image/svg+xml</dc:format>
        <dc:type
           rdf:resource="http://purl.org/dc/dcmitype/StillImage" />
        <dc:title />
      </cc:Work>
    </rdf:RDF>
  </metadata>
  <sodipodi:namedview
     id="namedview33"
     bordercolor="#666666"
     borderopacity="1"
     gridtolerance="10"
     guidetolerance="10"
     inkscape:bbox-nodes="true"
     inkscape:current-layer="svg"
     inkscape:cx="-13.1875"
     inkscape:cy="20"
     inkscape:object-nodes="true"
     inkscape:object-paths="true"
     inkscape:pageopacity="0"
     inkscape:pageshadow="2"
     inkscape:snap-bbox="true"
     inkscape:snap-bbox-edge-midpoints="true"
     inkscape:snap-intersection-paths="true"
     inkscape:snap-midpoints="true"
     inkscape:snap-nodes="true"
     inkscape:snap-smooth-nodes="true"
     inkscape:window-height="954"
     inkscape:window-maximized="1"
     inkscape:window-width="1920"
     inkscape:window-x="0"
     inkscape:window-y="40"
     inkscape:zoom="8"
     objecttolerance="10"
     pagecolor="#c8c8c8"
     showgrid="true"
     showguides="true"
     inkscape:document-rotation="0"
     inkscape:pagecheckerboard="0"
     inkscape:lockguides="false">
    <inkscape:grid
       id="grid842"
       type="xygrid" />
  </sodipodi:namedview>
  <defs
     id="defs3">
    <style
       id="current-color-scheme"
       type="text/css">.ColorScheme-Text { color:#dedede; } .ColorScheme-Highlight { color:#5294e2; } .ColorScheme-ButtonBackground { color:#dedede; }</style>
  </defs>
  <g
     id="16-16-device-notifier">
    <rect
       style="opacity:0.2;fill:none;fill-opacity:1;stroke:none"
       id="rect4182"
       width="15.999985"
       height="15.999985"
       x="0"
       y="26.000002" />
    <g
       transform="translate(-7.6293945e-6)"
       id="g999">
      <path
         inkscape:connector-curvature="0"
         style="opacity:1;fill:#fbfbfb;fill-opacity:1;stroke:none;stroke-width:1.28900659;stroke-miterlimit:4;stroke-dasharray:none;stroke-opacity:1"
         d="m 5,31 v 9 h 6 v -9 z m 1,1 h 4 v 7.076172 H 6 Z"
         id="rect945" />
      <path
         style="opacity:1;fill:#fbfbfb;fill-opacity:1;stroke:none;stroke-width:0.70164645;stroke-miterlimit:4;stroke-dasharray:none;stroke-opacity:1"
         d="M 6 29 L 6 32 L 10 32 L 10 29 L 6 29 z M 7 30 L 9 30 L 9 31 L 7 31 L 7 30 z "
         transform="translate(7.6293945e-6)"
         id="rect979" />
    </g>
  </g>
  <g
     id="device-notifier">
    <rect
       y="-35.999996"
       x="-4.9999924"
       height="31.999985"
       width="31.999985"
       id="rect4151"
       style="opacity:0.2;fill:none;fill-opacity:1;stroke:none" />
    <g
       id="g1887"
       transform="translate(-29)">
      <path
         id="rect890"
         style="fill:#ffffff;fill-opacity:1;stroke-width:0.05;stroke-linecap:round;stroke-linejoin:round"
         d="m 30,-15 c -0.554,0 -1,0.446 -1,1 v 6 c 0,0.554 0.446,1 1,1 h 20 c 0.554,0 1,-0.446 1,-1 v -6 c 0,-0.554 -0.446,-1 -1,-1 z m 0,1 h 20 v 6 H 30 Z"
         sodipodi:nodetypes="sssssssssccccc" />
      <path
         id="rect2527"
         style="color:#000000;fill:#ffffff;stroke-width:0.0738341;stroke-linecap:round;stroke-linejoin:round;-inkscape-stroke:none"
         d="m 34,-22 c -0.549112,0 -0.687596,0.539044 -0.992188,1 l -3.964979,6.708456 H 50.957167 L 46.992188,-21 C 46.687596,-21.460956 46.549112,-22 46,-22 Z"
         sodipodi:nodetypes="sccccss" />
      <circle
         style="opacity:0.8;fill:#04ff04;fill-opacity:1;stroke-width:0.1;stroke-linecap:round;stroke-linejoin:round"
         id="path4724"
         cx="33"
         cy="-11"
         r="1" />
    </g>
  </g>
  <g
     id="22-22-device-notifier">
    <rect
       y="1.2617187e-05"
       x="9.9999997e-06"
       height="21.999985"
       width="21.999985"
       id="rect4157"
       style="opacity:0.2;fill:none;fill-opacity:1;stroke:none" />
    <g
       id="g1588"
       transform="translate(-18,-1)">
      <path
         id="rect877"
         style="fill:#fffffe;stroke:none;stroke-width:2.17423;stroke-linecap:round;stroke-linejoin:round"
         d="m 25,7 c -1.108,0 -2,0.892 -2,2 v 10 c 0,1.108 0.892,2 2,2 h 8 c 1.108,0 2,-0.892 2,-2 V 9 C 35,7.892 34.108,7 33,7 Z m 0,1 h 8 c 0.554,0 1,0.446 1,1 v 10 c 0,0.554 -0.446,1 -1,1 h -8 c -0.554,0 -1,-0.446 -1,-1 V 9 c 0,-0.554 0.446,-1 1,-1 z"
         sodipodi:nodetypes="ssssssssssssssssss" />
      <path
         id="rect1303"
         style="fill:#fffffe;stroke:none;stroke-width:2;stroke-linecap:round;stroke-linejoin:round"
         d="m 27,3 c -0.554,0 -1,0.446 -1,1 v 3 c 0,0.554 0.446,1 1,1 h 4 c 0.554,0 1,-0.446 1,-1 V 4 C 32,3.446 31.554,3 31,3 Z m 0,1 h 4 v 3 h -4 z"
         sodipodi:nodetypes="sssssssssccccc" />
    </g>
  </g>
</svg>
