<?xml version="1.0" encoding="UTF-8" standalone="no"?>
<svg
   id="svg19"
   viewBox="0 0 32 32"
   version="1.1"
   sodipodi:docname="kate.svg"
   inkscape:version="1.2.1 (9c6d41e410, 2022-07-14, custom)"
   xmlns:inkscape="http://www.inkscape.org/namespaces/inkscape"
   xmlns:sodipodi="http://sodipodi.sourceforge.net/DTD/sodipodi-0.dtd"
   xmlns="http://www.w3.org/2000/svg"
   xmlns:svg="http://www.w3.org/2000/svg"
   xmlns:rdf="http://www.w3.org/1999/02/22-rdf-syntax-ns#"
   xmlns:cc="http://creativecommons.org/ns#"
   xmlns:dc="http://purl.org/dc/elements/1.1/">
  <sodipodi:namedview
     pagecolor="#c8c8c8"
     bordercolor="#666666"
     borderopacity="1"
     objecttolerance="10"
     gridtolerance="10"
     guidetolerance="10"
     inkscape:pageopacity="0"
     inkscape:pageshadow="2"
     inkscape:window-width="1920"
     inkscape:window-height="1005"
     id="namedview13"
     showgrid="true"
     inkscape:zoom="8.562621"
     inkscape:cx="33.050628"
     inkscape:cy="16.174954"
     inkscape:window-x="0"
     inkscape:window-y="0"
     inkscape:window-maximized="1"
     inkscape:current-layer="svg19"
     inkscape:document-rotation="0"
     inkscape:showpageshadow="0"
     inkscape:pagecheckerboard="0"
     inkscape:deskcolor="#c8c8c8">
    <inkscape:grid
       type="xygrid"
       id="grid838" />
  </sodipodi:namedview>
  <metadata
     id="metadata21">
    <rdf:RDF>
      <cc:Work
         rdf:about="">
        <dc:format>image/svg+xml</dc:format>
        <dc:type
           rdf:resource="http://purl.org/dc/dcmitype/StillImage" />
        <dc:title />
      </cc:Work>
    </rdf:RDF>
  </metadata>
  <defs
     id="defs5">
    <style
       type="text/css"
       id="current-color-scheme"> .ColorScheme-Text { color:#363636; } </style>
  </defs>
  <g
     id="22-22-kate"
     transform="translate(0,-27.863281)">
    <path
       id="path295"
       style="fill:none;fill-opacity:1;stroke:#fbfbfb;stroke-width:1;stroke-linecap:round;stroke-linejoin:round;stroke-dasharray:none;stroke-opacity:1;paint-order:stroke fill markers"
       d="m 59.713022,41.359515 c -1.147067,0.03867 -2.441323,0.400301 -3.699219,1.328125 -1.30593,0.96327 -1.880226,1.226645 -2.513672,1.546875 0.56439,0.04385 3.9416,-0.445546 4.539062,1.574219 0.02782,-0.0087 0.146246,-0.04474 0.185547,-0.05664 -2.429067,0.688376 -3.784705,2.272487 -2.757812,4.470703 1.030561,2.20622 2.811177,2.258398 5.009765,3.75586 1.716409,1.16905 2.136637,1.764404 3.244141,3.384765 -0.230313,-2.238946 -1.293639,-5.125077 -1.791015,-6.396484 1.92025,1.169495 2.893036,1.431249 5.570312,1.716797 -3.474215,-2.51818 -4.13246,-3.01032 -6.121094,-4.736328 -1.33414,0.06848 -1.18789,0.05561 -1.974609,0.101562 1.035713,1.488214 1.444402,3.675017 -0.449219,4.076172 -1.772478,0.375473 -3.482029,-1.182913 -2.996094,-2.851563 0.527648,-1.811913 2.805896,-1.462981 5.195313,-1.777343 2.38933,-0.314307 4.571675,-2.700683 5.884765,-4.466797 -1.874921,0.651384 -4.279573,1.394738 -6.929687,2.167968 -0.536748,-1.067138 -1.224921,-3.083748 2.416016,-3.22461 -0.666913,-0.368465 -1.665434,-0.651956 -2.8125,-0.613281 z" />
    <path
       id="path297"
       fill="none"
       d="m 49,37.863281 h 22 v 22 H 49 Z"
       style="color:#363636" />
  </g>
  <g
     id="kate"
     transform="translate(2.8953998e-8,-39)">
    <rect
       id="rect1271"
       fill="none"
       height="32"
       width="32"
       y="39"
       x="-2.8954e-08"
       style="color:#363636" />
    <path
       style="color:#363636;font-style:normal;font-variant:normal;font-weight:normal;font-stretch:normal;font-size:medium;line-height:normal;font-family:sans-serif;font-variant-ligatures:normal;font-variant-position:normal;font-variant-caps:normal;font-variant-numeric:normal;font-variant-alternates:normal;font-variant-east-asian:normal;font-feature-settings:normal;font-variation-settings:normal;text-indent:0;text-align:start;text-decoration:none;text-decoration-line:none;text-decoration-style:solid;text-decoration-color:#000000;letter-spacing:normal;word-spacing:normal;text-transform:none;writing-mode:lr-tb;direction:ltr;text-orientation:mixed;dominant-baseline:auto;baseline-shift:baseline;text-anchor:start;white-space:normal;shape-padding:0;shape-margin:0;inline-size:0;clip-rule:nonzero;display:inline;overflow:visible;visibility:visible;isolation:auto;mix-blend-mode:normal;color-interpolation:sRGB;color-interpolation-filters:linearRGB;solid-color:#000000;solid-opacity:1;fill:none;fill-opacity:1;fill-rule:nonzero;stroke:#fbfbfb;stroke-width:1.00399;stroke-linecap:round;stroke-linejoin:round;stroke-miterlimit:4;stroke-dasharray:none;stroke-dashoffset:0;stroke-opacity:1;color-rendering:auto;image-rendering:auto;shape-rendering:auto;text-rendering:auto;enable-background:accumulate;stop-color:#000000"
       d="m 15.037082,41.50828 c -2.129984,0.06763 -4.533717,0.701707 -6.8695003,2.324453 -2.4249782,1.684742 -3.489484,2.144969 -4.6657273,2.705045 1.0480129,0.0767 7.3185586,-0.781605 8.4279866,2.750928 0.05168,-0.01524 0.271219,-0.07548 0.344197,-0.09629 -4.5105274,1.203957 -7.0266469,3.972334 -5.1198127,7.816976 1.9136462,3.858639 5.2201977,3.950871 9.3027497,6.569903 3.187194,2.044648 3.966922,3.084861 6.023443,5.918842 -0.427668,-3.915875 -2.403571,-8.963104 -3.327149,-11.186772 3.565706,2.045425 5.373452,2.50363 10.344876,3.003048 -6.451257,-4.404252 -7.67534,-5.265911 -11.368027,-8.284665 -2.47736,0.11977 -2.205721,0.09844 -3.666578,0.1788 1.923214,2.602859 2.684455,6.427747 -0.831804,7.12936 -3.291307,0.656696 -6.4668235,-2.069845 -5.564491,-4.988283 0.9797864,-3.169002 5.210142,-2.558687 9.647045,-3.108499 4.436739,-0.549718 8.489935,-4.723563 10.928214,-7.812465 -3.48154,1.13925 -7.947955,2.439232 -12.868943,3.791599 -0.996685,-1.866405 -2.27205,-5.392825 4.488796,-5.63919 -1.238389,-0.644436 -3.095079,-1.140464 -5.225063,-1.072824 z"
       id="path1273" />
  </g>
</svg>
