<?xml version="1.0" encoding="UTF-8" standalone="no"?>
<svg
   width="22"
   height="22"
   version="1.1"
   id="svg21"
   sodipodi:docname="kdf.svg"
   inkscape:version="1.1 (c4e8f9ed74, 2021-05-24)"
   xmlns:inkscape="http://www.inkscape.org/namespaces/inkscape"
   xmlns:sodipodi="http://sodipodi.sourceforge.net/DTD/sodipodi-0.dtd"
   xmlns="http://www.w3.org/2000/svg"
   xmlns:svg="http://www.w3.org/2000/svg"
   xmlns:rdf="http://www.w3.org/1999/02/22-rdf-syntax-ns#"
   xmlns:cc="http://creativecommons.org/ns#"
   xmlns:dc="http://purl.org/dc/elements/1.1/">
  <metadata
     id="metadata25">
    <rdf:RDF>
      <cc:Work
         rdf:about="">
        <dc:format>image/svg+xml</dc:format>
        <dc:type
           rdf:resource="http://purl.org/dc/dcmitype/StillImage" />
        <dc:title />
      </cc:Work>
    </rdf:RDF>
  </metadata>
  <sodipodi:namedview
     pagecolor="#c8c8c8"
     bordercolor="#666666"
     borderopacity="1"
     objecttolerance="10"
     gridtolerance="10"
     guidetolerance="10"
     inkscape:pageopacity="0"
     inkscape:pageshadow="2"
     inkscape:window-width="1920"
     inkscape:window-height="954"
     id="namedview23"
     showgrid="true"
     inkscape:zoom="16"
     inkscape:cx="-6.21875"
     inkscape:cy="-2.5625"
     inkscape:window-x="0"
     inkscape:window-y="40"
     inkscape:window-maximized="1"
     inkscape:current-layer="svg21"
     inkscape:pagecheckerboard="0"
     inkscape:snap-intersection-paths="true"
     inkscape:object-nodes="false"
     inkscape:snap-bbox="true"
     inkscape:bbox-nodes="true"
     inkscape:snap-bbox-edge-midpoints="true">
    <inkscape:grid
       type="xygrid"
       id="grid850" />
  </sodipodi:namedview>
  <defs
     id="defs3">
    <style
       id="current-color-scheme"
       type="text/css">.ColorScheme-Text { color:#dedede; } .ColorScheme-Highlight { color:#5294e2; } .ColorScheme-ButtonBackground { color:#dedede; }</style>
  </defs>
  <rect
     class="ColorScheme-Text"
     x="-20.43"
     y="-19.39"
     width="16"
     height="16"
     ry="0"
     opacity="0"
     id="rect5" />
  <g
     id="kdf">
    <rect
       style="opacity:0.00100002;fill:#ffffff;fill-opacity:1;stroke:none;stroke-width:0.1;stroke-miterlimit:4;stroke-dasharray:none;stroke-opacity:1"
       id="rect846"
       width="22"
       height="22"
       x="0"
       y="0"
       ry="0" />
    <path
       id="rect901"
       style="fill:#fffffe;stroke-width:2;stroke-linecap:round;stroke-linejoin:round"
       d="m 4,11 c -1.108,0 -2,0.892 -2,2 v 4 c 0,1.108 0.892,2 2,2 h 14 c 1.108,0 2,-0.892 2,-2 v -4 c 0,-1.108 -0.892,-2 -2,-2 z m 0,1 h 14 c 0.554,0 1,0.446 1,1 v 4 c 0,0.554 -0.446,1 -1,1 H 4 C 3.446,18 3,17.554 3,17 v -4 c 0,-0.554 0.446,-1 1,-1 z"
       sodipodi:nodetypes="ssssssssssssssssss" />
    <circle
       style="fill:#fffffe;stroke-width:2;stroke-linecap:round;stroke-linejoin:round"
       id="path1126"
       cx="16"
       cy="15"
       r="1" />
    <g
       id="g15946"
       transform="translate(-76,1)" />
  </g>
  <g
     id="16-16-kdf"
     transform="translate(26,-10)">
    <path
       id="path17"
       d="m -42,16 v 16 h 16 V 16 Z"
       inkscape:connector-curvature="0"
       style="fill:none" />
    <g
       id="g1657"
       transform="translate(-0.51276779)">
      <path
         id="path1249"
         style="fill:#fffffe;stroke-width:2;stroke-linecap:round;stroke-linejoin:round"
         d="m -38.487232,23 c -1.108,0 -2,0.892 -2,2 v 2 c 0,1.108 0.892,2 2,2 h 10 c 1.108,0 2,-0.892 2,-2 v -2 c 0,-1.108 -0.892,-2 -2,-2 z m 0,1 h 10 c 0.554,0 1,0.446 1,1 v 2 c 0,0.554 -0.446,1 -1,1 h -10 c -0.554,0 -1,-0.446 -1,-1 v -2 c 0,-0.554 0.446,-1 1,-1 z"
         sodipodi:nodetypes="ssssssssssssssssss" />
      <circle
         style="fill:#fffffe;stroke-width:2;stroke-linecap:round;stroke-linejoin:round"
         id="circle1251"
         cx="-30.487232"
         cy="26"
         r="1" />
    </g>
  </g>
</svg>
