<?xml version="1.0" encoding="UTF-8" standalone="no"?>
<svg
   width="22"
   height="22"
   version="1.1"
   id="svg21"
   sodipodi:docname="kdf.svg"
   inkscape:version="1.1.1 (3bf5ae0d25, 2021-09-20, custom)"
   xmlns:inkscape="http://www.inkscape.org/namespaces/inkscape"
   xmlns:sodipodi="http://sodipodi.sourceforge.net/DTD/sodipodi-0.dtd"
   xmlns="http://www.w3.org/2000/svg"
   xmlns:svg="http://www.w3.org/2000/svg"
   xmlns:rdf="http://www.w3.org/1999/02/22-rdf-syntax-ns#"
   xmlns:cc="http://creativecommons.org/ns#"
   xmlns:dc="http://purl.org/dc/elements/1.1/">
  <metadata
     id="metadata25">
    <rdf:RDF>
      <cc:Work
         rdf:about="">
        <dc:format>image/svg+xml</dc:format>
        <dc:type
           rdf:resource="http://purl.org/dc/dcmitype/StillImage" />
        <dc:title />
      </cc:Work>
    </rdf:RDF>
  </metadata>
  <sodipodi:namedview
     pagecolor="#c8c8c8"
     bordercolor="#666666"
     borderopacity="1"
     objecttolerance="10"
     gridtolerance="10"
     guidetolerance="10"
     inkscape:pageopacity="0"
     inkscape:pageshadow="2"
     inkscape:window-width="1920"
     inkscape:window-height="1005"
     id="namedview23"
     showgrid="true"
     inkscape:zoom="11.313709"
     inkscape:cx="-15.512155"
     inkscape:cy="2.032932"
     inkscape:window-x="0"
     inkscape:window-y="0"
     inkscape:window-maximized="1"
     inkscape:current-layer="svg21"
     inkscape:pagecheckerboard="0"
     inkscape:snap-intersection-paths="true"
     inkscape:object-nodes="false"
     inkscape:snap-bbox="true"
     inkscape:bbox-nodes="true"
     inkscape:snap-bbox-edge-midpoints="true">
    <inkscape:grid
       type="xygrid"
       id="grid850" />
  </sodipodi:namedview>
  <defs
     id="defs3">
    <style
       id="current-color-scheme"
       type="text/css">.ColorScheme-Text { color:#dedede; } .ColorScheme-Highlight { color:#5294e2; } .ColorScheme-ButtonBackground { color:#dedede; }</style>
  </defs>
  <rect
     class="ColorScheme-Text"
     x="-20.43"
     y="-19.39"
     width="16"
     height="16"
     ry="0"
     opacity="0"
     id="rect5" />
  <g
     id="kdf"
     transform="translate(22,-10)">
    <rect
       style="opacity:0.00100002;fill:#ffffff;fill-opacity:1;stroke:none;stroke-width:0.1;stroke-miterlimit:4;stroke-dasharray:none;stroke-opacity:1"
       id="rect846-3"
       width="22"
       height="22"
       x="-22"
       y="10"
       ry="0" />
    <path
       id="rect1665"
       style="fill:#ffffff;fill-opacity:1;fill-rule:evenodd;stroke:none;stroke-linecap:round;stroke-linejoin:round;paint-order:stroke fill markers"
       d="m -5.5,29 c 1.38071,0 2.5,-1.11929 2.5,-2.5 v -11 C -3,14.1193 -4.11929,13 -5.5,13 h -11 c -1.3807,0 -2.5,1.1193 -2.5,2.5 v 11 c 0,1.38071 1.1193,2.5 2.5,2.5 z m 0,-1 H -9 V 25.5 C -9,24.67157 -9.67157,24 -10.5,24 H -18 v -8.5 c 0,-0.8284 0.6716,-1.5 1.5,-1.5 h 11 c 0.82843,0 1.5,0.6716 1.5,1.5 v 11 c 0,0.82843 -0.67157,1.5 -1.5,1.5 z m -4.5,0 h -6.5 C -17.3284,28 -18,27.32843 -18,26.5 V 25 h 7.5 c 0.27614,0 0.5,0.22386 0.5,0.5 z" />
  </g>
  <g
     id="16-16-kdf"
     transform="translate(26,-10)">
    <path
       id="path17-6"
       d="m -42,16 v 16 h 16 V 16 Z"
       inkscape:connector-curvature="0"
       style="fill:none" />
    <path
       id="path3447"
       style="fill:#ffffff;fill-opacity:1;fill-rule:evenodd;stroke:none;stroke-linecap:round;stroke-linejoin:round;paint-order:stroke fill markers"
       d="m -29.5,31 c 1.38071,0 2.5,-1.11929 2.5,-2.5 v -9 c 0,-1.3807 -1.11929,-2.5 -2.5,-2.5 h -9 c -1.3807,0 -2.5,1.1193 -2.5,2.5 v 9 c 0,1.38071 1.1193,2.5 2.5,2.5 z m 0,-1 h -3.25 v -1.5 c 0,-0.82843 -0.67157,-1.5 -1.5,-1.5 H -40 v -7.5 c 0,-0.8284 0.6716,-1.5 1.5,-1.5 h 9 c 0.82843,0 1.5,0.6716 1.5,1.5 v 9 c 0,0.82843 -0.67157,1.5 -1.5,1.5 z m -4.25,0 H -38.5 C -39.3284,30 -40,29.32843 -40,28.5 V 28 h 5.75 c 0.27614,0 0.5,0.22386 0.5,0.5 z"
       sodipodi:nodetypes="sssssssssscsscsssssscsscssc" />
  </g>
</svg>
