<?xml version="1.0" encoding="UTF-8" standalone="no"?>
<svg
   width="32"
   height="32"
   version="1"
   id="svg12"
   sodipodi:docname="knotes.svg"
   inkscape:version="1.1 (c4e8f9ed74, 2021-05-24)"
   xmlns:inkscape="http://www.inkscape.org/namespaces/inkscape"
   xmlns:sodipodi="http://sodipodi.sourceforge.net/DTD/sodipodi-0.dtd"
   xmlns="http://www.w3.org/2000/svg"
   xmlns:svg="http://www.w3.org/2000/svg"
   xmlns:rdf="http://www.w3.org/1999/02/22-rdf-syntax-ns#"
   xmlns:cc="http://creativecommons.org/ns#"
   xmlns:dc="http://purl.org/dc/elements/1.1/">
  <metadata
     id="metadata18">
    <rdf:RDF>
      <cc:Work
         rdf:about="">
        <dc:format>image/svg+xml</dc:format>
        <dc:type
           rdf:resource="http://purl.org/dc/dcmitype/StillImage" />
        <dc:title />
      </cc:Work>
    </rdf:RDF>
  </metadata>
  <defs
     id="defs16" />
  <sodipodi:namedview
     pagecolor="#c8c8c8"
     bordercolor="#666666"
     borderopacity="1"
     objecttolerance="10"
     gridtolerance="10"
     guidetolerance="10"
     inkscape:pageopacity="0"
     inkscape:pageshadow="2"
     inkscape:window-width="1920"
     inkscape:window-height="954"
     id="namedview14"
     showgrid="true"
     inkscape:zoom="6.9384853"
     inkscape:cx="-3.6751537"
     inkscape:cy="6.9179364"
     inkscape:window-x="0"
     inkscape:window-y="40"
     inkscape:window-maximized="1"
     inkscape:current-layer="svg12"
     inkscape:document-rotation="0"
     inkscape:pagecheckerboard="0">
    <inkscape:grid
       type="xygrid"
       id="grid857"
       originx="0"
       originy="0" />
  </sodipodi:namedview>
  <g
     id="knotes">
    <rect
       y="0"
       x="-2.8953547e-08"
       height="32"
       width="32.000004"
       id="rect4230-3"
       style="fill:none;fill-opacity:1;stroke:none" />
    <g
       id="g2755"
       transform="translate(39.000002,1)">
      <path
         id="rect1646"
         style="fill:#fffffe;fill-opacity:1;stroke-width:1.22581;stroke-linecap:round;stroke-linejoin:round"
         d="m -33,4 c -1.108,0 -2,0.892 -2,2 v 20 c 0,1.108 0.892,2 2,2 h 6.777344 c -0.260722,-0.289066 -0.465815,-0.627716 -0.59961,-1 H -33 c -0.554,0 -1,-0.446 -1,-1 V 6 c 0,-0.554 0.446,-1 1,-1 h 3 V 4 Z m 13,0 v 1 h 3 c 0.554,0 1,0.446 1,1 v 3 h 1 V 6 c 0,-1.108 -0.892,-2 -2,-2 z"
         sodipodi:nodetypes="ssssccssssccsccssccssc" />
      <path
         id="rect1953"
         style="fill:#fffffe;fill-opacity:1;stroke-width:1.34164;stroke-linecap:round;stroke-linejoin:round"
         d="m -29,3.000001 c -0.554,0 -1,0.446 -1,1 v 1 c 0,0.554 0.446,1 1,1 h 8 c 0.554,0 1,-0.446 1,-1 v -1 c 0,-0.554 -0.446,-1 -1,-1 z m 0,1 h 8 v 1 h -8 z"
         sodipodi:nodetypes="sssssssssccccc" />
      <path
         style="color:#000000;fill:#fffffe;stroke-width:2;stroke-linecap:round;stroke-linejoin:round;-inkscape-stroke:none"
         d="m -24,10 c -1.108,0 -2,0.892 -2,2 v 14 c 0,1.108 0.892,2 2,2 h 11 c 1.108,0 2,-0.892 2,-2 V 12 c 0,-1.108 -0.892,-2 -2,-2 z m 0,1 h 11 c 0.554,0 1,0.446 1,1 v 14 c 0,0.554 -0.446,1 -1,1 h -11 c -0.554,0 -1,-0.446 -1,-1 V 12 c 0,-0.554 0.446,-1 1,-1 z"
         id="path2564" />
    </g>
  </g>
  <g
     id="22-22-knotes"
     transform="translate(0,5.000001)">
    <rect
       style="fill:none;fill-opacity:1;stroke:none;stroke-width:0.1;stroke-linecap:square;stroke-linejoin:miter;stroke-miterlimit:4;stroke-dasharray:none;stroke-dashoffset:0;stroke-opacity:1"
       id="rect4148-6"
       width="22"
       height="22"
       x="35"
       y="4.999999" />
    <g
       id="g2550"
       transform="translate(-17)">
      <path
         id="rect1827"
         style="fill:#fffffe;fill-opacity:1;stroke-width:0.806927;stroke-linecap:round;stroke-linejoin:round"
         d="m 57,8 c -1.108,0 -2,0.892 -2,2 v 12 c 0,1.108 0.892,2 2,2 h 3.777344 c -0.260722,-0.289066 -0.465815,-0.627716 -0.59961,-1 H 57 c -0.554,0 -1,-0.446 -1,-1 V 10 c 0,-0.554 0.446,-1 1,-1 h 1 V 8 Z m 8,0 v 1 h 1 c 0.554,0 1,0.446 1,1 v 1 h 1 V 10 C 68,8.892 67.108,8 66,8 Z"
         sodipodi:nodetypes="ssssccssssccsccssccssc" />
      <path
         id="rect994"
         style="fill:#fffffe;stroke:none;stroke-width:2.41523;stroke-linecap:round;stroke-linejoin:round"
         d="m 59,7.000001 c -0.554,0 -1,0.446 -1,1 v 1 c 0,0.554 0.446,1 1,1 h 5 c 0.554,0 1,-0.446 1,-1 v -1 c 0,-0.554 -0.446,-1 -1,-1 z m 0,1 h 5 v 1 h -5 z"
         sodipodi:nodetypes="sssssssssccccc" />
      <path
         style="color:#000000;fill:#fffffe;stroke-width:2;stroke-linecap:round;stroke-linejoin:round;-inkscape-stroke:none"
         d="m 63,12 c -1.108,0 -2,0.892 -2,2 v 8 c 0,1.108 0.892,2 2,2 h 5 c 1.108,0 2,-0.892 2,-2 v -8 c 0,-1.108 -0.892,-2 -2,-2 z m 0,1 h 5 c 0.554,0 1,0.446 1,1 v 8 c 0,0.554 -0.446,1 -1,1 h -5 c -0.554,0 -1,-0.446 -1,-1 v -8 c 0,-0.554 0.446,-1 1,-1 z"
         id="path2401" />
    </g>
  </g>
</svg>
