<?xml version="1.0" encoding="UTF-8" standalone="no"?>
<svg
   version="1.1"
   viewBox="0 0 22 22"
   id="svg12"
   sodipodi:docname="notifications.svg"
   inkscape:version="1.1.2 (0a00cf5339, 2022-02-04, custom)"
   xmlns:inkscape="http://www.inkscape.org/namespaces/inkscape"
   xmlns:sodipodi="http://sodipodi.sourceforge.net/DTD/sodipodi-0.dtd"
   xmlns="http://www.w3.org/2000/svg"
   xmlns:svg="http://www.w3.org/2000/svg"
   xmlns:rdf="http://www.w3.org/1999/02/22-rdf-syntax-ns#"
   xmlns:cc="http://creativecommons.org/ns#"
   xmlns:dc="http://purl.org/dc/elements/1.1/">
  <metadata
     id="metadata16">
    <rdf:RDF>
      <cc:Work
         rdf:about="">
        <dc:format>image/svg+xml</dc:format>
        <dc:type
           rdf:resource="http://purl.org/dc/dcmitype/StillImage" />
        <dc:title />
      </cc:Work>
    </rdf:RDF>
  </metadata>
  <sodipodi:namedview
     pagecolor="#c8c8c8"
     bordercolor="#666666"
     borderopacity="1"
     objecttolerance="10"
     gridtolerance="10"
     guidetolerance="10"
     inkscape:pageopacity="0"
     inkscape:pageshadow="2"
     inkscape:window-width="1920"
     inkscape:window-height="1001"
     id="namedview14"
     showgrid="false"
     inkscape:zoom="13.21004"
     inkscape:cx="1.8546499"
     inkscape:cy="17.37315"
     inkscape:window-x="0"
     inkscape:window-y="0"
     inkscape:window-maximized="1"
     inkscape:current-layer="svg12"
     inkscape:document-rotation="0"
     inkscape:pagecheckerboard="0" />
  <defs
     id="defs3">
    <style
       id="current-color-scheme"
       type="text/css">.ColorScheme-Text { color:#363636; }</style>
  </defs>
  <g
     id="notification-disabled">
    <rect
       y="0"
       x="0"
       height="22"
       width="22"
       id="rect3028"
       style="fill:#ffffff;fill-opacity:0;stroke:none" />
    <path
       style="color:#000000;fill:#ffffff;fill-opacity:1;-inkscape-stroke:none"
       d="m 10.994199,3 c 3.14894,0 5.74394,2.33488 5.98444,5.3554 l 0.0134,0.22222 0.0045,0.22452 -10e-4,3.59586 0.9254,2.2222 c 0.0226,0.0541 0.0403,0.11 0.053,0.1669 l 0.0152,0.0862 0.0087,0.1313 c 0,0.448 -0.2965,0.8341 -0.7492,0.9631 l -0.1163,0.0268 -0.1345,0.0101 -3.5017,-6e-4 -0.005,0.1613 c -0.0851,1.3037 -1.1694,2.3347 -2.4946,2.3347 -1.3254703,0 -2.4100203,-1.0315 -2.4946703,-2.3356 l -0.0057,-0.1604 -3.50071,6e-4 c -0.08795,0 -0.17533,-0.0116 -0.25989,-0.0344 l -0.12446,-0.0425 c -0.41078,-0.171 -0.65275,-0.5885 -0.60235,-1.052 l 0.02109,-0.1274 0.04242,-0.1281 0.9233,-2.2192 0.0011,-3.60819 0.0043,-0.22457 C 5.1235887,5.45115 7.7676087,3 10.994229,3 Z m 1.50194,13.004 H 9.4961587 l 0.0073,0.1414 c 0.06855,0.7127 0.6357803,1.2796 1.3485903,1.3477 l 0.14444,0.0069 c 0.7797,0 1.4205,-0.5949 1.4931,-1.3555 z M 10.994199,4 C 8.3716487,4 6.2237087,5.92372 6.0136887,8.38498 l -0.01322,0.21225 -0.0039,0.20491 V 12.5 l -0.03841,0.1922 -0.96271,2.3124 11.9577003,0.002 0.0453,-0.0021 -0.9635,-2.3123 -0.0384,-0.1922 10e-5,-3.68759 -0.0041,-0.2041 C 15.887449,6.0349 13.691249,4 10.994209,4 Z"
       id="path865" />
  </g>
</svg>
