<?xml version="1.0" encoding="UTF-8" standalone="no"?>
<svg
   width="22"
   height="22"
   version="1.1"
   id="svg21"
   sodipodi:docname="pamac.svg"
   inkscape:version="1.1.2 (0a00cf5339, 2022-02-04, custom)"
   xmlns:inkscape="http://www.inkscape.org/namespaces/inkscape"
   xmlns:sodipodi="http://sodipodi.sourceforge.net/DTD/sodipodi-0.dtd"
   xmlns="http://www.w3.org/2000/svg"
   xmlns:svg="http://www.w3.org/2000/svg">
  <sodipodi:namedview
     id="namedview23"
     pagecolor="#c8c8c8"
     bordercolor="#666666"
     borderopacity="1.0"
     inkscape:pageshadow="2"
     inkscape:pageopacity="0"
     inkscape:pagecheckerboard="0"
     showgrid="true"
     inkscape:snap-bbox="true"
     inkscape:bbox-nodes="true"
     inkscape:snap-bbox-edge-midpoints="true"
     inkscape:snap-nodes="true"
     inkscape:zoom="5.6568543"
     inkscape:cx="19.003495"
     inkscape:cy="65.672542"
     inkscape:window-width="1920"
     inkscape:window-height="1001"
     inkscape:window-x="0"
     inkscape:window-y="0"
     inkscape:window-maximized="1"
     inkscape:current-layer="svg21"
     inkscape:object-paths="true"
     inkscape:snap-intersection-paths="true">
    <inkscape:grid
       type="xygrid"
       id="grid1777" />
  </sodipodi:namedview>
  <defs
     id="defs3">
    <style
       id="current-color-scheme"
       type="text/css">.ColorScheme-Text{color:#dfdfdf;}.ColorScheme-Highlight{color:#5294e2;}</style>
  </defs>
  <defs
     id="defs7">
    <style
       type="text/css"
       id="style5" />
  </defs>
  <g
     id="pamac-tray-no-update">
    <rect
       style="fill:none;fill-opacity:1;stroke:none;stroke-width:2.11786;stroke-linecap:round;stroke-linejoin:round;stroke-miterlimit:4;stroke-dasharray:none;stroke-opacity:1;paint-order:stroke fill markers;stop-color:#000000"
       id="rect1079"
       width="32"
       height="32"
       x="-5"
       y="30.050793"
       rx="0"
       ry="0" />
    <g
       id="g1217"
       transform="translate(26,0.05079395)">
      <path
         d="m -14.999872,31.949206 a 4.4070833,4.3916969 0 0 1 1.911631,0.437451 l 7.798087,3.767656 a 3.4911592,3.4789706 0 0 1 1.9568144,3.112586 v 5.819818 A 15.583854,15.529446 0 0 1 -13.84724,59.754363 l -0.09424,0.03079 a 3.4855723,3.4734031 0 0 1 -2.117109,0 l -0.0816,-0.02661 a 15.585825,15.531411 0 0 1 -10.52647,-14.67174 V 39.266985 A 3.4912415,3.4790525 0 0 1 -24.70985,36.1544 l 7.798099,-3.767657 a 4.4070833,4.3916969 0 0 1 1.911864,-0.437533 z m 0,26.527028 a 1.9895961,1.9826498 0 0 0 0.607002,-0.09439 c 5.756245,-1.976018 9.5808075,-7.310571 9.5808075,-13.295118 v -5.81974 a 2.0038097,1.9968138 0 0 0 -1.1231324,-1.78648 l -7.7984121,-3.767739 a 2.9028088,2.8926742 0 0 0 -2.532926,0 l -7.798087,3.767739 a 2.0038097,1.9968138 0 0 0 -1.123139,1.78648 v 5.819817 a 14.103324,14.054084 0 0 0 9.520253,13.275551 2.1019915,2.0946528 0 0 0 0.667634,0.11389 z"
         p-id="1538"
         id="path6-3"
         style="fill:#fbfbfb;fill-opacity:1;stroke-width:0.0320378" />
      <g
         id="g1209"
         transform="matrix(1.4285713,0,0,1.3333333,2.1428556,32.724464)">
        <rect
           style="opacity:1;fill:#fbfbfb;fill-opacity:1;fill-rule:evenodd;stroke:none;stroke-width:3.16273;stroke-linecap:round;stroke-linejoin:round;paint-order:stroke fill markers"
           id="rect1201"
           width="6.6685567"
           height="1"
           x="-13.668557"
           y="-12.5"
           ry="0.5"
           transform="rotate(-90)" />
        <g
           id="g1207"
           transform="translate(0.70710691)">
          <rect
             style="opacity:1;fill:#fbfbfb;fill-opacity:1;fill-rule:evenodd;stroke:none;stroke-width:2.73861;stroke-linecap:round;stroke-linejoin:round;paint-order:stroke fill markers"
             id="rect1203"
             width="5"
             height="1"
             x="-18.227922"
             y="-4.7426405"
             ry="0.5"
             transform="rotate(-45)" />
          <rect
             style="opacity:1;fill:#fbfbfb;fill-opacity:1;fill-rule:evenodd;stroke:none;stroke-width:2.73861;stroke-linecap:round;stroke-linejoin:round;paint-order:stroke fill markers"
             id="rect1205"
             width="5"
             height="1"
             x="-0.2573595"
             y="13.227922"
             ry="0.5"
             transform="matrix(-0.70710678,-0.70710678,-0.70710678,0.70710678,0,0)" />
        </g>
      </g>
    </g>
  </g>
  <g
     id="pamac-tray-update">
    <rect
       style="fill:none;fill-opacity:1;stroke:none;stroke-width:2.11786;stroke-linecap:round;stroke-linejoin:round;stroke-miterlimit:4;stroke-dasharray:none;stroke-opacity:1;paint-order:stroke fill markers;stop-color:#000000"
       id="rect3729"
       width="32"
       height="32"
       x="35.000004"
       y="30.050793"
       rx="0"
       ry="0" />
    <circle
       style="fill:#00a0ff;fill-opacity:1;fill-rule:evenodd;stroke:none;stroke-width:4.8;stroke-linecap:round;stroke-linejoin:round;paint-order:stroke fill markers"
       id="path3769"
       cx="59"
       cy="56"
       r="3.9999981" />
    <g
       id="g3330"
       transform="translate(-26,-1.3548956e-4)">
      <g
         id="g1231"
         transform="translate(91.999997)">
        <path
           id="path1219"
           style="fill:#fbfbfb;fill-opacity:1;stroke-width:0.0320375"
           d="M 51 32 A 4.4070346 4.3916483 0 0 0 49.087891 32.4375 L 41.291016 36.203125 A 3.4912029 3.479014 0 0 0 39.333984 39.316406 L 39.333984 45.138672 A 15.585653 15.531239 0 0 0 49.861328 59.808594 L 49.941406 59.835938 A 3.4855338 3.4733647 0 0 0 52.058594 59.835938 L 52.152344 59.804688 A 15.583681 15.529274 0 0 0 53.853516 59.0625 A 6 6 0 0 1 53.261719 57.740234 C 52.729456 58.001406 52.178461 58.234942 51.605469 58.431641 A 1.9895741 1.9826279 0 0 1 51 58.527344 A 2.1019682 2.0946296 0 0 1 50.332031 58.414062 A 14.103168 14.053929 0 0 1 40.8125 45.138672 L 40.8125 39.316406 A 2.0037876 1.9967917 0 0 1 41.935547 37.529297 L 49.732422 33.763672 A 2.9027767 2.8926422 0 0 1 52.267578 33.763672 L 60.064453 37.529297 A 2.0037876 1.9967917 0 0 1 61.1875 39.316406 L 61.1875 45.136719 C 61.1875 46.880539 60.855936 48.566837 60.251953 50.132812 A 6 6 0 0 1 61.605469 50.595703 A 15.583681 15.529274 0 0 0 62.666016 45.136719 L 62.666016 39.316406 A 3.4911206 3.4789321 0 0 0 60.708984 36.203125 L 52.912109 32.4375 A 4.4070346 4.3916483 0 0 0 51 32 z "
           transform="translate(-65.999997,1.3548956e-4)" />
        <g
           id="g1229"
           transform="matrix(1.4285713,0,0,1.3333333,2.1428556,32.724464)">
          <rect
             style="opacity:1;fill:#fbfbfb;fill-opacity:1;fill-rule:evenodd;stroke:none;stroke-width:3.10458;stroke-linecap:round;stroke-linejoin:round;paint-order:stroke fill markers"
             id="rect1221"
             width="6.7066522"
             height="0.95809317"
             x="-13.706653"
             y="-12.479047"
             ry="0.47904658"
             transform="rotate(-90)" />
          <g
             id="g1227"
             transform="translate(0.70710691)">
            <rect
               style="opacity:1;fill:#fbfbfb;fill-opacity:1;fill-rule:evenodd;stroke:none;stroke-width:2.73861;stroke-linecap:round;stroke-linejoin:round;paint-order:stroke fill markers"
               id="rect1223"
               width="5"
               height="1"
               x="-18.227922"
               y="-4.7426405"
               ry="0.5"
               transform="rotate(-45)" />
            <rect
               style="opacity:1;fill:#fbfbfb;fill-opacity:1;fill-rule:evenodd;stroke:none;stroke-width:2.73861;stroke-linecap:round;stroke-linejoin:round;paint-order:stroke fill markers"
               id="rect1225"
               width="5"
               height="1"
               x="-0.2573595"
               y="13.227922"
               ry="0.5"
               transform="matrix(-0.70710678,-0.70710678,-0.70710678,0.70710678,0,0)" />
          </g>
        </g>
      </g>
    </g>
  </g>
  <g
     id="22-22-pamac-tray-no-update">
    <rect
       width="22"
       height="22"
       opacity="0"
       id="rect9"
       x="0"
       y="0" />
    <g
       id="g4122"
       transform="translate(20.5)">
      <path
         d="m -9.4999101,2 a 3.0220009,2.823234 0 0 1 1.3108328,0.2812185 l 5.3472607,2.4220647 A 2.3939385,2.2364813 0 0 1 -1.5,6.7042319 v 3.7413111 a 10.686075,9.9832165 0 0 1 -7.2095345,9.429203 l -0.064631,0.01979 a 2.3901074,2.2329023 0 0 1 -1.4517325,0 l -0.05596,-0.01711 A 10.687426,9.9844795 0 0 1 -17.5,10.445597 V 6.7042844 a 2.3939948,2.236534 0 0 1 1.341812,-2.000948 l 5.34727,-2.4220654 A 3.0220009,2.823234 0 0 1 -9.4999262,2 Z m 0,17.053091 a 1.3642948,1.2745607 0 0 0 0.4162287,-0.06068 c 3.9471413,-1.270297 6.5696995,-4.699653 6.5696995,-8.546863 V 6.7042864 A 1.3740414,1.2836662 0 0 0 -3.28413,5.5558348 l -5.3474845,-2.422118 a 1.990498,1.8595765 0 0 0 -1.7368645,0 l -5.347262,2.422118 a 1.3740414,1.2836662 0 0 0 -0.770152,1.1484516 v 3.7413116 a 9.670853,9.0347696 0 0 0 6.5281765,8.534283 1.4413661,1.3465627 0 0 0 0.4578064,0.07321 z"
         p-id="1538"
         id="path871"
         style="fill:#fbfbfb;fill-opacity:1;stroke-width:0.0212711" />
      <g
         id="g3757"
         transform="translate(2.5,0.79334765)">
        <rect
           style="opacity:1;fill:#fbfbfb;fill-opacity:1;fill-rule:evenodd;stroke:none;stroke-width:3.24037;stroke-linecap:round;stroke-linejoin:round;paint-order:stroke fill markers"
           id="rect3749"
           width="7"
           height="1"
           x="-14.206653"
           y="-12.5"
           ry="0.5"
           transform="rotate(-90)" />
        <g
           id="g3755"
           transform="translate(0.70710691)">
          <rect
             style="opacity:1;fill:#fbfbfb;fill-opacity:1;fill-rule:evenodd;stroke:none;stroke-width:2.73861;stroke-linecap:round;stroke-linejoin:round;paint-order:stroke fill markers"
             id="rect3751"
             width="5"
             height="1"
             x="-18.227922"
             y="-4.7426405"
             ry="0.5"
             transform="rotate(-45)" />
          <rect
             style="opacity:1;fill:#fbfbfb;fill-opacity:1;fill-rule:evenodd;stroke:none;stroke-width:2.73861;stroke-linecap:round;stroke-linejoin:round;paint-order:stroke fill markers"
             id="rect3753"
             width="5"
             height="1"
             x="-0.2573595"
             y="13.227922"
             ry="0.5"
             transform="matrix(-0.70710678,-0.70710678,-0.70710678,0.70710678,0,0)" />
        </g>
      </g>
    </g>
  </g>
  <g
     id="22-22-pamac-tray-update">
    <rect
       width="22"
       height="22"
       opacity="0"
       id="rect2428"
       x="38"
       y="0" />
    <g
       id="g5550"
       transform="translate(-27)">
      <g
         id="g4483"
         transform="translate(85.5)">
        <path
           id="path4471"
           style="fill:#fbfbfb;fill-opacity:1;stroke-width:0.0212711"
           d="M 76,2 A 3.0220009,2.823234 0 0 0 74.689453,2.28125 L 69.341797,4.703125 A 2.3939948,2.236534 0 0 0 68,6.7050781 v 3.7402339 a 10.687426,9.9844795 0 0 0 7.21875,9.431641 l 0.05469,0.01758 a 2.3901074,2.2329023 0 0 0 1.453124,0 L 76.791016,19.875 A 10.686075,9.9832165 0 0 0 79.115234,18.816406 3,3 0 0 1 79,18 3,3 0 0 1 79.01953,17.720703 c -0.779256,0.532607 -1.652206,0.965327 -2.603515,1.271485 A 1.3642948,1.2745607 0 0 1 76,19.052734 1.4413661,1.3465627 0 0 1 75.542969,18.980469 9.670853,9.0347696 0 0 1 69.013672,10.445312 V 6.7050781 a 1.3740414,1.2836662 0 0 1 0.771484,-1.1484375 l 5.345703,-2.4238281 a 1.990498,1.8595765 0 0 1 1.738282,0 l 5.347656,2.4238281 a 1.3740414,1.2836662 0 0 1 0.769531,1.1484375 v 3.7402339 c 0,1.649359 -0.483942,3.221522 -1.345703,4.580079 A 3,3 0 0 1 82,15 3,3 0 0 1 82.755859,15.097656 10.686075,9.9832165 0 0 0 84,10.445312 V 6.7050781 A 2.3939385,2.2364813 0 0 0 82.658203,4.703125 L 77.310547,2.28125 A 3.0220009,2.823234 0 0 0 76,2 Z"
           transform="translate(-85.5)" />
        <g
           id="g4481"
           transform="translate(2.5,0.79334765)">
          <rect
             style="opacity:1;fill:#fbfbfb;fill-opacity:1;fill-rule:evenodd;stroke:none;stroke-width:3.24037;stroke-linecap:round;stroke-linejoin:round;paint-order:stroke fill markers"
             id="rect4473"
             width="7"
             height="1"
             x="-14.206653"
             y="-12.5"
             ry="0.5"
             transform="rotate(-90)" />
          <g
             id="g4479"
             transform="translate(0.70710691)">
            <rect
               style="opacity:1;fill:#fbfbfb;fill-opacity:1;fill-rule:evenodd;stroke:none;stroke-width:2.73861;stroke-linecap:round;stroke-linejoin:round;paint-order:stroke fill markers"
               id="rect4475"
               width="5"
               height="1"
               x="-18.227922"
               y="-4.7426405"
               ry="0.5"
               transform="rotate(-45)" />
            <rect
               style="opacity:1;fill:#fbfbfb;fill-opacity:1;fill-rule:evenodd;stroke:none;stroke-width:2.73861;stroke-linecap:round;stroke-linejoin:round;paint-order:stroke fill markers"
               id="rect4477"
               width="5"
               height="1"
               x="-0.2573595"
               y="13.227922"
               ry="0.5"
               transform="matrix(-0.70710678,-0.70710678,-0.70710678,0.70710678,0,0)" />
          </g>
        </g>
      </g>
      <circle
         style="fill:#00a0ff;fill-opacity:1;fill-rule:evenodd;stroke-width:3;stroke-linecap:round;stroke-linejoin:round;paint-order:stroke fill markers"
         id="path4597"
         cx="82"
         cy="18"
         r="2" />
    </g>
  </g>
</svg>
