<?xml version="1.0" encoding="UTF-8" standalone="no"?>
<svg
   width="32"
   height="32"
   x="0"
   y="0"
   version="1.1"
   xml:space="preserve"
   id="svg16"
   sodipodi:docname="thunderbird.svg"
   inkscape:version="1.2.2 (b0a8486541, 2022-12-01)"
   xmlns:inkscape="http://www.inkscape.org/namespaces/inkscape"
   xmlns:sodipodi="http://sodipodi.sourceforge.net/DTD/sodipodi-0.dtd"
   xmlns:xlink="http://www.w3.org/1999/xlink"
   xmlns="http://www.w3.org/2000/svg"
   xmlns:svg="http://www.w3.org/2000/svg"
   xmlns:rdf="http://www.w3.org/1999/02/22-rdf-syntax-ns#"
   xmlns:cc="http://creativecommons.org/ns#"
   xmlns:dc="http://purl.org/dc/elements/1.1/"><metadata
   id="metadata22"><rdf:RDF><cc:Work
       rdf:about=""><dc:format>image/svg+xml</dc:format><dc:type
         rdf:resource="http://purl.org/dc/dcmitype/StillImage" /></cc:Work></rdf:RDF></metadata><defs
   id="defs20">
  <linearGradient
   id="linearGradient-1"
   x1="93.544998"
   x2="18.601999"
   y1="104.29"
   y2="21.722"
   gradientTransform="matrix(0.47860022,0,0,0.43436948,-9.2078203,-59.414856)"
   gradientUnits="userSpaceOnUse"><stop
     stop-color="#130036"
     offset="0"
     id="stop1393" /><stop
     stop-color="#18023B"
     offset=".2297"
     id="stop1395" /><stop
     stop-color="#26094A"
     offset=".5122"
     id="stop1397" /><stop
     stop-color="#3D1563"
     offset=".8211"
     id="stop1399" /><stop
     stop-color="#4E1D75"
     offset="1"
     id="stop1401" /></linearGradient><linearGradient
   id="linearGradient-2"
   x1="6.1662998"
   x2="34.738998"
   y1="38.339001"
   y2="38.339001"
   gradientTransform="matrix(0.37269447,0,0,0.557797,-9.2078203,-59.414856)"
   gradientUnits="userSpaceOnUse"><stop
     stop-color="#3156A8"
     offset="0"
     id="stop1404" /><stop
     stop-color="#3351A4"
     offset=".2474"
     id="stop1406" /><stop
     stop-color="#3B4397"
     offset=".5365"
     id="stop1408" /><stop
     stop-color="#472C82"
     offset=".8453"
     id="stop1410" /><stop
     stop-color="#4E1D75"
     offset="1"
     id="stop1412" /></linearGradient><radialGradient
   id="radialGradient-3"
   cx="38.772999"
   cy="42.032001"
   r="55.952"
   gradientTransform="matrix(0.34183646,0,0,0.60813277,-9.2078203,-59.414856)"
   gradientUnits="userSpaceOnUse"><stop
     stop-color="#14CDDA"
     offset=".1654"
     id="stop1415" /><stop
     stop-color="#2061BD"
     offset=".5478"
     id="stop1417" /><stop
     stop-color="#2658AC"
     offset=".6546"
     id="stop1419" /><stop
     stop-color="#373F81"
     offset=".864"
     id="stop1421" /><stop
     stop-color="#432D62"
     offset="1"
     id="stop1423" /></radialGradient><linearGradient
   id="linearGradient1008"
   x1="0.19829001"
   x2="58.432999"
   y1="29.618"
   y2="29.618"
   gradientTransform="scale(1.242,0.80516)"
   gradientUnits="userSpaceOnUse"
   xlink:href="#linearGradient-4" /><linearGradient
   id="linearGradient-4"
   x1="1.1634e-05"
   y1="0.49998999"
   y2="0.49998999"><stop
     stop-color="#2061BD"
     offset="0"
     id="stop1427" /><stop
     stop-color="#2B51AC"
     offset=".1846"
     id="stop1429" /><stop
     stop-color="#442C84"
     offset=".6826"
     id="stop1431" /><stop
     stop-color="#4E1D75"
     offset=".9409"
     id="stop1433" /></linearGradient><linearGradient
   id="linearGradient1745"
   x1="1.1634e-05"
   y1="0.49998999"
   y2="0.49998999"><stop
     stop-color="#2061BD"
     offset="0"
     id="stop1737" /><stop
     stop-color="#2B51AC"
     offset=".1846"
     id="stop1739" /><stop
     stop-color="#442C84"
     offset=".6826"
     id="stop1741" /><stop
     stop-color="#4E1D75"
     offset=".9409"
     id="stop1743" /></linearGradient><linearGradient
   id="linearGradient-5"
   x1="27.301001"
   x2="69.007004"
   y1="13.621"
   y2="65.202003"
   gradientTransform="matrix(0.54384523,0,0,0.38225098,-9.2078203,-59.414856)"
   gradientUnits="userSpaceOnUse"><stop
     stop-color="#48A8E0"
     offset=".0202"
     id="stop1436" /><stop
     stop-color="#2061BD"
     offset=".3883"
     id="stop1438" /><stop
     stop-color="#2B51AC"
     offset=".4968"
     id="stop1440" /><stop
     stop-color="#442C84"
     offset=".7892"
     id="stop1442" /><stop
     stop-color="#4E1D75"
     offset=".9409"
     id="stop1444" /></linearGradient><linearGradient
   id="linearGradient-6"
   x1="12.234"
   x2="135.44"
   y1="131.42"
   y2="16.993999"
   gradientTransform="matrix(0.36086739,0,0,0.57608019,-9.2078203,-59.414856)"
   gradientUnits="userSpaceOnUse"><stop
     stop-color="#3156A8"
     offset=".3787"
     id="stop1447" /><stop
     stop-color="#4E1D75"
     offset="1"
     id="stop1449" /></linearGradient><linearGradient
   id="linearGradient-7"
   x1="55.195999"
   x2="117.71"
   y1="118.27"
   y2="13.812"
   gradientTransform="matrix(0.39326193,0,0,0.52861684,-9.2078203,-59.414856)"
   gradientUnits="userSpaceOnUse"><stop
     stop-color="#29ABE2"
     offset="0"
     id="stop1452" /><stop
     stop-color="#385AA6"
     offset=".7733"
     id="stop1454" /><stop
     stop-color="#414293"
     offset=".8575"
     id="stop1456" /><stop
     stop-color="#4E1D75"
     offset="1"
     id="stop1458" /></linearGradient><linearGradient
   id="linearGradient-8"
   x1="26.261"
   x2="29.51"
   y1="40.964001"
   y2="42.493"
   gradientTransform="matrix(0.41239773,0,0,0.50408726,-9.2078203,-59.414856)"
   gradientUnits="userSpaceOnUse"><stop
     stop-color="#B0DCD6"
     offset="0"
     id="stop1461" /><stop
     stop-color="#53ACE0"
     offset="1"
     id="stop1463" /></linearGradient><linearGradient
   id="linearGradient1016"
   x1="4.6623001"
   x2="0.73539001"
   y1="4.2711"
   y2="2.4033"
   gradientTransform="scale(1.5005,0.66645)"
   gradientUnits="userSpaceOnUse"
   xlink:href="#linearGradient-9" /><linearGradient
   id="linearGradient-9"
   x1="0.90678"
   x2="0.10458"
   y1="0.71357"
   y2="0.33201"><stop
     stop-color="#3092B9"
     offset="0"
     id="stop1467" /><stop
     stop-color="#258DB6"
     offset=".2199"
     id="stop1469" /><stop
     stop-color="#1685B1"
     offset=".6564"
     id="stop1471" /><stop
     stop-color="#1082AF"
     offset="1"
     id="stop1473" /></linearGradient><linearGradient
   id="linearGradient-10"
   x1="40.854"
   x2="45.837002"
   y1="18.208"
   y2="37.132"
   gradientTransform="matrix(0.44365698,0,0,0.46856954,-9.2078203,-59.414856)"
   gradientUnits="userSpaceOnUse"><stop
     stop-color="#1398D1"
     stop-opacity="0"
     offset=".0074"
     id="stop1476" /><stop
     stop-color="#1187C2"
     stop-opacity=".6197"
     offset=".2482"
     id="stop1478" /><stop
     stop-color="#3F6499"
     stop-opacity=".71"
     offset=".6422"
     id="stop1480" /><stop
     stop-color="#2F4282"
     stop-opacity=".5"
     offset="1"
     id="stop1482" /></linearGradient><linearGradient
   id="linearGradient-11"
   x1="37.583"
   x2="34.780998"
   y1="34.328999"
   y2="32.799"
   gradientTransform="matrix(0.43459289,0,0,0.47832665,-9.2078203,-59.414856)"
   gradientUnits="userSpaceOnUse"><stop
     stop-color="#F9C21B"
     offset="0"
     id="stop1485" /><stop
     stop-color="#F3BA1B"
     offset=".1479"
     id="stop1487" /><stop
     stop-color="#E3A41B"
     offset=".3787"
     id="stop1489" /><stop
     stop-color="#C9801C"
     offset=".6634"
     id="stop1491" /><stop
     stop-color="#A44E1C"
     offset=".9884"
     id="stop1493" /><stop
     stop-color="#A34C1C"
     offset="1"
     id="stop1495" /></linearGradient><linearGradient
   id="linearGradient-12"
   x1="130.82001"
   x2="107.49"
   y1="49.676998"
   y2="18.142"
   gradientTransform="matrix(0.35367266,0,0,0.58779785,-9.2078203,-59.414856)"
   gradientUnits="userSpaceOnUse"><stop
     stop-color="#409EC3"
     offset="0"
     id="stop1498" /><stop
     stop-color="#2061BD"
     offset=".62"
     id="stop1500" /></linearGradient><linearGradient
   id="linearGradient-13"
   x1="81.893997"
   x2="69.683998"
   y1="53.868"
   y2="11.475"
   gradientTransform="matrix(0.48429947,0,0,0.42926295,-9.2078203,-59.414856)"
   gradientUnits="userSpaceOnUse"><stop
     stop-color="#14B2DA"
     offset="0"
     id="stop1503" /><stop
     stop-color="#297CCC"
     offset=".4028"
     id="stop1505" /><stop
     stop-color="#256FC5"
     offset=".5077"
     id="stop1507" /><stop
     stop-color="#2164BF"
     offset=".6492"
     id="stop1509" /><stop
     stop-color="#2061BD"
     offset=".8162"
     id="stop1511" /><stop
     stop-color="#2061BD"
     offset=".9835"
     id="stop1513" /></linearGradient></defs><sodipodi:namedview
   pagecolor="#d7d7d7"
   bordercolor="#666666"
   borderopacity="1"
   objecttolerance="10"
   gridtolerance="10"
   guidetolerance="10"
   inkscape:pageopacity="0"
   inkscape:pageshadow="2"
   inkscape:window-width="3840"
   inkscape:window-height="1979"
   id="namedview18"
   showgrid="false"
   inkscape:zoom="22.627417"
   inkscape:cx="14.628272"
   inkscape:cy="2.4085825"
   inkscape:window-x="1920"
   inkscape:window-y="52"
   inkscape:window-maximized="1"
   inkscape:current-layer="svg16"
   inkscape:document-rotation="0"
   inkscape:showpageshadow="0"
   inkscape:pagecheckerboard="0"
   inkscape:deskcolor="#d1d1d1" />
  <g
   id="22-22-thunderbird"><rect
     style="opacity:0.00100002"
     width="22"
     height="22"
     x="32"
     y="10"
     id="rect2" /><g
     id="g29932"
     transform="matrix(0.64001268,0,0,0.64001268,-6.1951458,10.759639)"><path
       id="path28307"
       style="fill:#ffffff;fill-opacity:1;stroke:#ffffff;stroke-width:0.468741;stroke-dasharray:none;stroke-opacity:1"
       d="m 74.884766,4.5859375 c -0.01179,1.265e-4 -0.02376,0.00133 -0.03711,0.00195 -0.320299,0.014916 -1.093558,0.1783871 -2.154297,1.2441406 -0.118376,0.1190255 -0.227757,0.2420046 -0.333984,0.3671876 -4.12206,0.997216 -7.072266,3.659107 -7.072266,6.7871093 0,0.613425 -0.18745,1.289061 0.01563,1.962891 -0.08113,1.076243 0.0918,4.011719 0.0918,4.011719 0,0 1.115488,6.039922 5.40625,7.089843 0.06818,0.01636 -0.897513,-1.504699 -1.324219,-3.339843 0.830753,0.845 1.820311,1.513118 2.931641,1.628906 0.131773,0.01362 -0.582355,-0.835842 -1.240234,-1.876953 l -5.103516,-1.697266 c -0.426505,-1.323747 -0.612629,-2.875133 -0.503906,-4.6875 0.252459,0.484036 1.033061,0.884157 1.517578,0.892578 -0.583739,-0.550152 -1.807517,-3.263995 -0.08398,-5.691406 1.265742,1.848543 5.271782,7.849609 5.521484,7.849609 0.0015,0 0.0048,4.81e-4 0.0059,0 1.693065,-0.603309 6.134,-2.133656 9.175782,-3.179687 -0.01601,2.435807 -0.623047,3.365234 -0.623047,3.365234 0,0 2.066456,-0.793018 3.05664,-3.34375 0.04645,0.123142 0.08056,0.246284 0.107422,0.369141 L 82.1856,25.068356 c 3.623904,-1.572455 3.280834,-1.536731 4.265625,-2.603515 2.412222,-2.611204 2.748442,-4.092405 2.140625,-8.466797 C 88.180899,11.04517 86.001581,8.1203163 83.599609,7.1542969 82.106536,6.1790921 80.198218,5.8641919 79.144531,5.7539062 c -1.127902,-0.1178913 -2.10909,-0.097176 -2.970703,0.029297 -0.07303,-9.637e-4 -0.145394,-0.00391 -0.21875,-0.00391 -0.05603,0 -0.109662,0.00131 -0.166016,0.00195 0.02316,-0.028337 0.03906,-0.044922 0.03906,-0.044922 0,0 -0.04586,0.00656 -0.134766,0.046875 -0.279658,0.00454 -0.557876,0.01442 -0.832031,0.033203 0.382014,-0.4187757 0.695313,-0.6386718 0.695313,-0.6386718 0,0 -0.372915,0.055526 -1.050782,0.6699218 -0.322425,0.029636 -0.640575,0.068282 -0.953125,0.1171876 0.71237,-0.9638646 1.458985,-1.3691407 1.458985,-1.3691407 0,0 -0.04446,-0.010651 -0.126953,-0.00977 z m -3.126791,3.627061 c -0.05458,0.2183349 0.415192,0.075529 0.451172,0.1113281 0.205043,0.203341 0.159784,0.576904 0.01953,0.886719 l 9.765463,3.2069234 c -0.195045,0.665384 -0.374782,1.563795 -0.322266,2.529297 0.0079,0.146011 0.01343,0.28422 0.01758,0.421875 -3.426857,1.288698 -7.424419,2.749303 -9.119141,3.199218 -0.234013,0.06229 -4.697684,-6.677222 -5.349609,-7.580078 0.276101,-0.330656 0.570427,-0.584532 0.876953,-0.777343 l 0.423828,0.07812 2.365397,-1.2909074 c 0.04369,-0.186548 0.139034,-0.384905 0.339844,-0.580078 0.159689,-0.1549468 0.573704,-0.3748948 0.53125,-0.2050781 z"
       sodipodi:nodetypes="ccccsccccccccccscccccccccccsccccccccccscccccccccccss" /><path
       style="color:#000000;fill:#ffffff;stroke-width:0.468741;-inkscape-stroke:none"
       d="M 66.117746,21.125116 81.550027,26.256098 81.379503,25.858558 66.06366,20.767121 Z"
       id="path2202"
       sodipodi:nodetypes="ccccc" /><path
       style="color:#000000;fill:#ffffff;stroke-width:0.209231;-inkscape-stroke:none"
       d="m 65.774986,20.424132 0.132404,0.8782 0.136491,0.04536 15.55508,5.204893 -0.04539,-0.883365 z"
       id="path2204"
       sodipodi:nodetypes="cccccc" /><path
       id="path28311"
       style="fill:#ffffff;fill-opacity:1;fill-rule:evenodd;stroke-width:0.209231"
       d="m 75.087891,3.5039062 c 0,1e-7 -1.883211,0.4787294 -2.34375,1.4628907 -5.335762,1.5432741 -8.591797,6.0549431 -8.591797,11.0058591 0,7.028905 5.534784,9.950517 6.648437,10.078125 -3.407849,-1.638487 -5.555859,-4.711333 -5.240234,-9.972656 0.252459,0.484036 1.033061,0.884157 1.517578,0.892578 -1.790336,-3.978103 0.40358,-5.969233 1.880859,-6.806641 0.02419,0.222781 0.06605,0.452697 0.119141,0.69336 0.08551,0.385423 0.172486,0.569872 0.06836,0.96289 -0.05749,0.216827 -0.04773,0.418952 -0.11914,0.546876 -0.09862,0.176836 -0.22546,0.370096 -0.267578,0.6875 -0.10526,0.792692 0.176187,1.045793 0.351562,1.3125 0.249865,-0.248086 0.737539,-0.832999 1.617188,-1.181641 0.879816,-0.348663 1.457878,-0.872968 2.560546,-1.435547 1.506526,-0.768401 3.27298,0.397905 6.621094,-0.699219 0.07137,-0.02339 0.151215,-0.06555 0.234375,-0.117187 0.342501,0.429935 0.604007,0.869436 0.798828,1.251953 0.518537,1.018767 0.730469,2.810547 0.730469,2.810547 0.162614,3.152454 -0.599609,4.318359 -0.599609,4.318359 0,0 0.80385,-0.309887 1.648437,-1.160156 -0.0057,0.660261 -0.165568,2.401108 -1.583984,4.107422 0,0 0.733772,-0.205292 1.560547,-0.607422 -0.454125,2.128309 -1.678341,4.671056 -5.638672,6.597656 0,0 3.331659,-0.272079 4.984375,-2.132812 C 81.372703,27.664855 79.529297,28.5 79.529297,28.5 c 1.357366,-0.198537 4.922157,-1.251571 7.193359,-4.091797 2.570403,-3.215044 3.344259,-6.230257 2.570313,-10.273437 -0.236904,-1.258781 -0.736628,-2.48491 -1.404297,-3.601563 -0.0651,-0.111692 -0.1337,-0.225252 -0.208984,-0.339844 -0.0022,-0.0033 -0.0057,-0.0084 -0.0078,-0.01172 C 87.502541,9.9182852 87.323275,9.6626569 87.136719,9.4140625 85.703719,7.4581413 84.616728,6.8234401 84.447266,6.7324219 84.245715,6.5918576 84.043601,6.4612589 83.847656,6.3398438 82.003662,5.196396 80.818359,5.0351563 80.818359,5.0351562 c 0,0 -0.104908,0.020363 -0.228515,0.048828 -0.887403,-0.2910169 -1.729364,-0.4365727 -2.328125,-0.4824219 -0.78505,-0.060255 -1.506926,-0.057335 -2.173828,-0.00391 0.144729,-0.072032 0.235518,-0.135934 0.228515,-0.1875 -0.192514,0.00635 -0.383393,0.018118 -0.572265,0.03125 0.0056,-0.021779 0.0078,-0.029297 0.0078,-0.029297 -0.05119,5.491e-4 -0.107284,0.014731 -0.183594,0.041016 -0.181307,0.014683 -0.359284,0.031914 -0.537109,0.052734 0.241096,-0.4510375 0.423828,-0.5390625 0.423828,-0.5390625 -0.236745,0.02833 -0.736635,0.2642484 -1.599609,0.6992187 0.373603,-0.7489632 1.232422,-1.1621093 1.232422,-1.1621094 z m -6.148438,6.3125 c 2.5e-5,0.00459 -4.8e-5,0.00908 0,0.013672 l -0.06445,0.00977 c 0.02151,-0.0076 0.04292,-0.01619 0.06445,-0.023438 z m 2.494141,0.00977 c 0.225048,-0.00171 0.415192,0.075529 0.451172,0.1113281 0.272209,0.2699497 0.100482,0.8396847 -0.144532,1.1621087 -0.01244,0.01631 -0.02637,0.0332 -0.04297,0.05078 -0.0018,0.0024 -0.0041,0.0055 -0.0059,0.0078 -0.05448,0.07184 -0.169183,0.16675 -0.322265,0.21875 -0.184073,0.08239 -0.416328,0.128023 -0.677735,0.06445 0,0 -0.480697,-0.737938 0.210938,-1.410156 0.159689,-0.1549465 0.356212,-0.2037478 0.53125,-0.2050778 z" /></g></g><g
   id="thunderbird"
   transform="translate(-60.865536)"><rect
     style="opacity:0.00100002"
     width="32"
     height="32"
     x="60.865536"
     y="0"
     id="rect29797" /><path
     style="color:#000000;fill:#ffffff;stroke-width:0.5;-inkscape-stroke:none"
     d="m 74.884766,4.5859375 c -0.01179,1.265e-4 -0.02376,0.00133 -0.03711,0.00195 -0.320299,0.014916 -1.093558,0.1783871 -2.154297,1.2441406 -0.118376,0.1190255 -0.227757,0.2420046 -0.333984,0.3671876 -4.12206,0.997216 -7.072266,3.659107 -7.072266,6.7871093 0,0.613425 -0.18745,1.289061 0.01563,1.962891 -0.08113,1.076243 0.0918,4.011719 0.0918,4.011719 0,0 1.115488,6.039922 5.40625,7.089843 0.06818,0.01636 -0.897513,-1.504699 -1.324219,-3.339843 0.830753,0.845 1.820311,1.513118 2.931641,1.628906 0.131773,0.01362 -0.582355,-0.835842 -1.240234,-1.876953 l -5.103516,-1.697266 c -0.426505,-1.323747 -0.612629,-2.875133 -0.503906,-4.6875 0.252459,0.484036 1.033061,0.884157 1.517578,0.892578 -0.583739,-0.550152 -1.807517,-3.263995 -0.08398,-5.691406 1.265742,1.848543 5.271782,7.849609 5.521484,7.849609 0.0015,0 0.0048,4.81e-4 0.0059,0 1.693065,-0.603309 6.134,-2.133656 9.175782,-3.179687 -0.01601,2.435807 -0.623047,3.365234 -0.623047,3.365234 0,0 2.066456,-0.793018 3.05664,-3.34375 0.04645,0.123142 0.08056,0.246284 0.107422,0.369141 L 82.1856,25.068356 c 3.623904,-1.572455 3.280834,-1.536731 4.265625,-2.603515 2.412222,-2.611204 2.748442,-4.092405 2.140625,-8.466797 C 88.180899,11.04517 86.001581,8.1203163 83.599609,7.1542969 82.106536,6.1790921 80.198218,5.8641919 79.144531,5.7539062 c -1.127902,-0.1178913 -2.10909,-0.097176 -2.970703,0.029297 -0.07303,-9.637e-4 -0.145394,-0.00391 -0.21875,-0.00391 -0.05603,0 -0.109662,0.00131 -0.166016,0.00195 0.02316,-0.028337 0.03906,-0.044922 0.03906,-0.044922 0,0 -0.04586,0.00656 -0.134766,0.046875 -0.279658,0.00454 -0.557876,0.01442 -0.832031,0.033203 0.382014,-0.4187757 0.695313,-0.6386718 0.695313,-0.6386718 0,0 -0.372915,0.055526 -1.050782,0.6699218 -0.322425,0.029636 -0.640575,0.068282 -0.953125,0.1171876 0.71237,-0.9638646 1.458985,-1.3691407 1.458985,-1.3691407 0,0 -0.04446,-0.010651 -0.126953,-0.00977 z m -3.451172,5.2402344 c 0.225048,-0.00171 0.415192,0.075529 0.451172,0.1113281 0.205043,0.203341 0.159784,0.576904 0.01953,0.886719 l 10.089844,1.59375 c -0.195045,0.665384 -0.374782,1.563795 -0.322266,2.529297 0.0079,0.146011 0.01343,0.28422 0.01758,0.421875 -3.426857,1.288698 -7.424419,2.749303 -9.119141,3.199218 -0.234013,0.06229 -4.697684,-6.677222 -5.349609,-7.580078 0.276101,-0.330656 0.570427,-0.584532 0.876953,-0.777343 l 0.423828,0.07812 2.041016,0.322266 c 0.04369,-0.186548 0.139034,-0.384905 0.339844,-0.580078 0.159689,-0.1549468 0.356212,-0.2037481 0.53125,-0.2050781 z"
     id="path1369" /><path
     style="color:#000000;fill:#ffffff;-inkscape-stroke:none"
     d="m 74.882812,4.3359375 -0.322265,0.00391 0.01953,0.070312 c -0.438595,0.072544 -1.126359,0.3035653 -2.064453,1.2460938 -0.109404,0.1100047 -0.20818,0.2216834 -0.304688,0.3339844 -2.055727,0.5123849 -3.834142,1.4225111 -5.105468,2.6210937 -1.291352,1.2174628 -2.06836,2.7324036 -2.06836,4.3749996 0,0.562495 -0.203277,1.276424 0.02539,2.035156 l -0.0098,-0.0918 c -0.08569,1.136773 0.0918,4.046874 0.0918,4.046874 l 0.002,0.01367 0.002,0.01563 c 0,0 0.284899,1.541207 1.117188,3.216797 0.832289,1.67559 2.228536,3.520236 4.476562,4.070313 5.33e-4,1.28e-4 0.0953,0.0059 0.0957,0.0059 4.07e-4,-5.9e-5 0.128623,-0.05835 0.128906,-0.05859 2.83e-4,-2.45e-4 0.07015,-0.103085 0.07031,-0.103515 1.61e-4,-4.3e-4 0.01559,-0.07165 0.01563,-0.07227 4e-5,-6.13e-4 0.0011,-0.03181 0,-0.04297 -0.0011,-0.01116 -0.0024,-0.01989 -0.0039,-0.02734 -0.003,-0.01491 -0.0069,-0.02635 -0.0098,-0.03516 -0.01131,-0.03522 -0.02097,-0.05237 -0.0332,-0.07813 -0.02447,-0.05152 -0.05773,-0.11664 -0.101562,-0.201172 -0.08766,-0.169062 -0.212653,-0.41192 -0.353516,-0.710937 -0.184752,-0.392181 -0.363517,-0.975508 -0.544922,-1.517578 0.707482,0.57177 1.480926,1.043363 2.376953,1.136719 0.03429,0.0035 0.08547,0.0049 0.146485,-0.02539 0.06101,-0.03034 0.115227,-0.09782 0.132812,-0.152344 0.03517,-0.109039 0.0056,-0.1521 -0.0059,-0.185547 -0.0229,-0.06689 -0.04875,-0.104913 -0.08203,-0.158203 -0.06656,-0.106579 -0.164567,-0.245063 -0.28711,-0.416015 -0.245085,-0.341904 -0.584683,-0.808334 -0.908203,-1.320313 l -0.04687,-0.07617 -5.041015,-1.675781 C 65.949787,19.480167 65.848403,18.148448 65.875,16.699219 c 0.08881,0.06564 0.138137,0.16657 0.234375,0.220703 0.316377,0.177958 0.656131,0.295416 0.964844,0.300781 l 0.646484,0.01172 L 67.25,16.789062 c -0.103006,-0.09708 -0.286796,-0.353903 -0.447266,-0.703125 -0.160469,-0.349221 -0.306899,-0.794457 -0.384765,-1.294921 -0.139413,-0.896039 0.01482,-1.960132 0.621093,-3.001953 0.67704,0.993825 1.79387,2.655587 2.890625,4.249999 0.596062,0.866527 1.160666,1.674439 1.59375,2.269532 0.216543,0.297546 0.399851,0.54261 0.541016,0.716797 0.07058,0.08709 0.130314,0.156382 0.183594,0.210937 0.02664,0.02728 0.05085,0.05041 0.08203,0.07422 0.03118,0.02381 0.05257,0.06836 0.185547,0.06836 0.0073,1.9e-5 0.01533,1.4e-5 0.01563,0 2.44e-4,-1.1e-5 0.03105,-0.0039 0.03125,-0.0039 1.98e-4,-3.3e-5 0.05846,-0.01752 0.05859,-0.01758 l -0.01563,0.0078 c 1.619369,-0.577048 5.776543,-2.009897 8.796875,-3.048828 -0.04014,0.929435 -0.138101,1.721743 -0.263672,2.160156 -0.147029,0.51333 -0.273438,0.701172 -0.273438,0.701172 l -0.421875,0.646485 0.720703,-0.275391 c 0,0 1.552165,-0.692354 2.654297,-2.517578 l -1.990234,8.464844 0.457031,-0.199219 c 1.813959,-0.787098 2.639429,-1.168886 3.160156,-1.509766 0.520728,-0.340879 0.70593,-0.628561 1.189454,-1.152343 1.218169,-1.318655 1.938929,-2.38519 2.261718,-3.681641 0.32279,-1.296451 0.248662,-2.793007 -0.05664,-4.990234 C 88.416999,10.924557 86.224117,7.9622815 83.720703,6.9394531 82.169059,5.931897 80.238197,5.6176719 79.169922,5.5058594 78.111899,5.395272 77.202864,5.4289342 76.369141,5.5332031 l 0.140625,-0.1464844 -0.716797,0.1015625 c 0,0 -0.07733,0.024688 -0.142578,0.046875 -0.03983,7.183e-4 -0.07933,0.00296 -0.119141,0.00391 0.03524,-0.027177 0.169922,-0.15625 0.169922,-0.15625 l -0.181641,-0.453125 c 0,0 -0.14742,0.026876 -0.347656,0.1289062 -0.182304,0.092894 -0.450184,0.2797349 -0.759766,0.5488282 -0.04743,0.00456 -0.09336,0.012621 -0.140625,0.017578 0.360685,-0.3263283 0.827586,-0.7843367 0.839844,-0.7910156 l 0.09766,-0.00195 -0.01367,-0.052734 0.507813,-0.2753907 -0.632813,-0.1503906 c 0,0 -0.08253,-0.018699 -0.1875,-0.017578 z m -0.689453,0.6933594 c -0.29976,0.2310091 -0.436234,0.2383668 -0.841797,0.7871093 l -0.361328,0.4902344 0.601563,-0.095703 c 0.306823,-0.04801 0.619875,-0.08604 0.9375,-0.1152344 l 0.08203,-0.00586 0.0059,-0.00586 0.261719,-0.017578 c 0.268612,-0.018403 0.541897,-0.028715 0.81836,-0.033203 H 75.75 l 0.0039,-0.00195 h 0.03711 c 0.05843,-6.635e-4 0.111929,-0.00195 0.164062,-0.00195 0.06666,0 0.13727,0.00288 0.214844,0.00391 h 0.02148 l 0.01953,-0.00195 c 0.838511,-0.1230818 1.798224,-0.1453149 2.908204,-0.029297 1.035765,0.1084099 2.911703,0.4259826 4.34375,1.3613281 l 0.02148,0.013672 0.02148,0.00977 c 2.288463,0.9203684 4.440467,3.7908067 4.837891,6.6464847 0.302514,2.17716 0.364781,3.608282 0.06836,4.798828 -0.296421,1.190546 -0.95048,2.170344 -2.144531,3.462891 -0.501266,0.543001 -0.635793,0.771198 -1.095703,1.072265 -0.390935,0.255915 -1.325948,0.680455 -2.623047,1.251954 l 1.945313,-8.277344 -0.01172,-0.05469 c -0.02885,-0.131945 -0.06558,-0.267474 -0.117188,-0.404296 l -0.230468,-0.611329 -0.236329,0.609375 c -0.695002,1.790339 -1.700588,2.485872 -2.316406,2.832032 0.01912,-0.05841 0.02006,-0.03325 0.03906,-0.09961 0.160492,-0.560335 0.318032,-1.423649 0.326172,-2.662109 l 0.002,-0.353516 -0.333985,0.115235 c -2.997817,1.030912 -7.294678,2.510605 -9.044922,3.132812 -0.01462,-0.01604 -0.03412,-0.0388 -0.05273,-0.06055 0.03551,0.01401 0.03724,0.04667 0.117188,0.02539 1.730178,-0.459328 5.714021,-1.917694 9.142578,-3.207031 l 0.167968,-0.0625 -0.0059,-0.179688 c -0.0042,-0.139303 -0.0096,-0.27951 -0.01758,-0.427734 -0.05038,-0.926214 0.122881,-1.798438 0.3125,-2.445313 l 0.08008,-0.273437 -9.746035,-3.2425488 c 0.02218,-0.09191 0.06446,-0.178096 0.06641,-0.273438 0.0041,-0.202883 -0.04949,-0.4238926 -0.21289,-0.5859378 -0.05518,-0.0549 -0.08495,-0.06345 -0.125,-0.082031 -0.04005,-0.018581 -0.084,-0.035855 -0.134766,-0.050781 -0.10153,-0.029853 -0.227483,-0.051858 -0.36914,-0.050781 -0.220076,0.00167 -0.488695,0.067328 -0.703125,0.2753906 -0.161962,0.1574142 -0.21608,0.3242222 -0.285157,0.4882812 L 68.564453,10.042969 68.046875,9.9472656 67.964844,10 c -0.329194,0.207069 -0.643774,0.4787 -0.935547,0.828125 l -0.02148,0.02734 -0.0098,-0.01367 -0.09375,0.134766 -0.113281,0.158203 c -0.9034,1.272338 -1.038394,2.632041 -0.867188,3.732422 0.0856,0.55019 0.246477,1.037523 0.425781,1.427734 0.04979,0.108359 0.103188,0.145701 0.154297,0.238281 -0.05446,-0.02465 -0.09564,-0.01913 -0.148437,-0.04883 -0.258168,-0.145216 -0.483785,-0.348098 -0.574219,-0.521484 l -0.214844,-0.414063 c 0.002,-0.215783 -0.02484,-0.43191 -0.01367,-0.580078 l 0.002,-0.04687 -0.01172,-0.04492 c -0.177492,-0.588927 -0.0059,-1.226271 -0.0059,-1.890625 0,-1.485403 0.697846,-2.864981 1.91211,-4.0097655 1.214263,-1.1447849 2.943886,-2.0452977 4.96875,-2.5351563 l 0.08008,-0.017578 0.05273,-0.0625 C 72.654492,6.2391104 72.759135,6.1203855 72.871094,6.0078125 73.41308,5.4632636 73.848968,5.1859202 74.193359,5.0292969 Z m -2.396425,3.4000293 c 0.08339,-6.34e-4 0.16581,0.01396 0.224609,0.03125 0.02411,0.0071 0.03916,0.01377 0.05273,0.01953 0.03778,0.04178 0.06271,0.102821 0.06055,0.208985 -0.0023,0.112186 -0.03893,0.255045 -0.09766,0.384765 l -0.134765,0.298828 9.816347,3.2542678 c -0.174009,0.655106 -0.345688,1.436568 -0.296875,2.333985 0.0044,0.08101 0.0067,0.156891 0.0098,0.234375 -3.338719,1.253878 -7.14871,2.640564 -8.8125,3.091796 -0.03439,-0.0374 -0.07053,-0.07917 -0.125,-0.146484 -0.14022,-0.173285 -0.33499,-0.433231 -0.564454,-0.75 -0.458927,-0.633538 -1.05909,-1.4984 -1.671875,-2.392578 -1.171457,-1.709396 -2.307145,-3.404711 -2.708984,-3.972656 0.199925,-0.216466 0.406046,-0.405379 0.619141,-0.546875 l 0.310547,0.05664 2.636777,-1.2874708 0.05273,-0.226562 c 0.03425,-0.146232 0.101068,-0.293298 0.269531,-0.457031 0.104948,-0.101832 0.229379,-0.133778 0.359375,-0.134766 z m -5.380918,12.7171578 2.644531,0.878907 0.171875,0.742187 c 0.219324,0.943252 0.574483,1.796872 0.865234,2.414063 0.05112,0.108506 0.08087,0.162855 0.126953,0.255859 C 68.594837,24.75531 67.411334,23.406127 66.712891,22 66.491989,21.555274 66.561921,21.542927 66.416016,21.146484 Z m 2.779296,0.923828 1.814454,0.601563 c 0.302229,0.471299 0.604952,0.898406 0.832031,1.214844 -0.792713,-0.242085 -1.542382,-0.695381 -2.1875,-1.351563 z"
     id="path1371"
     sodipodi:nodetypes="cccccsscccccsscsssssccsscccscssccccscccsscssssscsccccsccccccscsccccccccccscccccccccccccccccccccsccccccccscscccccccccccccccccccccccsscccccccccccsscccccccsscccccccccccccccssscccccccccccscscccccc" /><path
     style="color:#000000;fill:#ffffff;stroke-width:0.5;-inkscape-stroke:none"
     d="M 66.117746,21.125116 81.550027,26.256098 81.379503,25.858558 66.06366,20.767121 Z"
     id="path1377" /><path
     style="color:#000000;fill:#ffffff;stroke-width:0.209231;-inkscape-stroke:none"
     d="m 65.755371,20.401247 0.138125,0.912936 0.145481,0.04822 15.574378,5.177964 -0.04835,-0.883409 z"
     id="path1379"
     sodipodi:nodetypes="cccccc" /><path
     id="path29803"
     style="fill:#ffffff;fill-opacity:1;fill-rule:evenodd;stroke-width:0.209231"
     d="m 75.087891,3.5039062 c 0,1e-7 -1.883211,0.4787294 -2.34375,1.4628907 -5.335762,1.5432741 -8.591797,6.0549431 -8.591797,11.0058591 0,7.028905 5.534784,9.950517 6.648437,10.078125 -3.407849,-1.638487 -5.555859,-4.711333 -5.240234,-9.972656 0.252459,0.484036 1.033061,0.884157 1.517578,0.892578 -1.790336,-3.978103 0.40358,-5.969233 1.880859,-6.806641 0.02419,0.222781 0.06605,0.452697 0.119141,0.69336 0.08551,0.385423 0.172486,0.569872 0.06836,0.96289 -0.05749,0.216827 -0.04773,0.418952 -0.11914,0.546876 -0.09862,0.176836 -0.22546,0.370096 -0.267578,0.6875 -0.10526,0.792692 0.176187,1.045793 0.351562,1.3125 0.249865,-0.248086 0.737539,-0.832999 1.617188,-1.181641 0.879816,-0.348663 1.457878,-0.872968 2.560546,-1.435547 1.506526,-0.768401 3.27298,0.397905 6.621094,-0.699219 0.07137,-0.02339 0.151215,-0.06555 0.234375,-0.117187 0.342501,0.429935 0.604007,0.869436 0.798828,1.251953 0.518537,1.018767 0.730469,2.810547 0.730469,2.810547 0.162614,3.152454 -0.599609,4.318359 -0.599609,4.318359 0,0 0.80385,-0.309887 1.648437,-1.160156 -0.0057,0.660261 -0.165568,2.401108 -1.583984,4.107422 0,0 0.733772,-0.205292 1.560547,-0.607422 -0.454125,2.128309 -1.678341,4.671056 -5.638672,6.597656 0,0 3.331659,-0.272079 4.984375,-2.132812 C 81.372703,27.664855 79.529297,28.5 79.529297,28.5 c 1.357366,-0.198537 4.922157,-1.251571 7.193359,-4.091797 2.570403,-3.215044 3.344259,-6.230257 2.570313,-10.273437 -0.236904,-1.258781 -0.736628,-2.48491 -1.404297,-3.601563 -0.0651,-0.111692 -0.1337,-0.225252 -0.208984,-0.339844 -0.0022,-0.0033 -0.0057,-0.0084 -0.0078,-0.01172 C 87.502541,9.9182852 87.323275,9.6626569 87.136719,9.4140625 85.703719,7.4581413 84.616728,6.8234401 84.447266,6.7324219 84.245715,6.5918576 84.043601,6.4612589 83.847656,6.3398438 82.003662,5.196396 80.818359,5.0351563 80.818359,5.0351562 c 0,0 -0.104908,0.020363 -0.228515,0.048828 -0.887403,-0.2910169 -1.729364,-0.4365727 -2.328125,-0.4824219 -0.78505,-0.060255 -1.506926,-0.057335 -2.173828,-0.00391 0.144729,-0.072032 0.235518,-0.135934 0.228515,-0.1875 -0.192514,0.00635 -0.383393,0.018118 -0.572265,0.03125 0.0056,-0.021779 0.0078,-0.029297 0.0078,-0.029297 -0.05119,5.491e-4 -0.107284,0.014731 -0.183594,0.041016 -0.181307,0.014683 -0.359284,0.031914 -0.537109,0.052734 0.241096,-0.4510375 0.423828,-0.5390625 0.423828,-0.5390625 -0.236745,0.02833 -0.736635,0.2642484 -1.599609,0.6992187 0.373603,-0.7489632 1.232422,-1.1621093 1.232422,-1.1621094 z m -6.148438,6.3125 c 2.5e-5,0.00459 -4.8e-5,0.00908 0,0.013672 l -0.06445,0.00977 c 0.02151,-0.0076 0.04292,-0.01619 0.06445,-0.023438 z m 2.494141,0.00977 c 0.225048,-0.00171 0.415192,0.075529 0.451172,0.1113281 0.272209,0.2699497 0.100482,0.8396847 -0.144532,1.1621087 -0.01244,0.01631 -0.02637,0.0332 -0.04297,0.05078 -0.0018,0.0024 -0.0041,0.0055 -0.0059,0.0078 -0.05448,0.07184 -0.169183,0.16675 -0.322265,0.21875 -0.184073,0.08239 -0.416328,0.128023 -0.677735,0.06445 0,0 -0.480697,-0.737938 0.210938,-1.410156 0.159689,-0.1549465 0.356212,-0.2037478 0.53125,-0.2050778 z" /></g></svg>
