<?xml version="1.0" encoding="UTF-8" standalone="no"?>
<svg
   width="22"
   height="22"
   version="1.1"
   id="svg12"
   sodipodi:docname="yakuake.svg"
   inkscape:version="1.1.1 (3bf5ae0d25, 2021-09-20, custom)"
   xmlns:inkscape="http://www.inkscape.org/namespaces/inkscape"
   xmlns:sodipodi="http://sodipodi.sourceforge.net/DTD/sodipodi-0.dtd"
   xmlns="http://www.w3.org/2000/svg"
   xmlns:svg="http://www.w3.org/2000/svg"
   xmlns:rdf="http://www.w3.org/1999/02/22-rdf-syntax-ns#"
   xmlns:cc="http://creativecommons.org/ns#"
   xmlns:dc="http://purl.org/dc/elements/1.1/">
  <metadata
     id="metadata16">
    <rdf:RDF>
      <cc:Work
         rdf:about="">
        <dc:format>image/svg+xml</dc:format>
        <dc:type
           rdf:resource="http://purl.org/dc/dcmitype/StillImage" />
        <dc:title />
      </cc:Work>
    </rdf:RDF>
  </metadata>
  <sodipodi:namedview
     pagecolor="#c8c8c8"
     bordercolor="#666666"
     borderopacity="1"
     objecttolerance="10"
     gridtolerance="10"
     guidetolerance="10"
     inkscape:pageopacity="0"
     inkscape:pageshadow="2"
     inkscape:window-width="1920"
     inkscape:window-height="936"
     id="namedview14"
     showgrid="true"
     inkscape:snap-bbox="true"
     inkscape:bbox-nodes="true"
     inkscape:snap-bbox-edge-midpoints="true"
     inkscape:zoom="9.443182"
     inkscape:cx="-8.7364619"
     inkscape:cy="8.7364619"
     inkscape:window-x="0"
     inkscape:window-y="40"
     inkscape:window-maximized="1"
     inkscape:current-layer="svg12"
     inkscape:document-rotation="0"
     inkscape:pagecheckerboard="0">
    <inkscape:grid
       type="xygrid"
       id="grid841" />
  </sodipodi:namedview>
  <defs
     id="defs3">
    <style
       id="current-color-scheme"
       type="text/css">.ColorScheme-Text { color:#363636; } .ColorScheme-Highlight { color:#4285f4; }</style>
  </defs>
  <g
     id="yakuake">
    <rect
       width="22"
       height="22"
       fill="none"
       id="rect9"
       x="0"
       y="0" />
    <path
       id="rect836"
       style="fill:#fbfbfb;fill-opacity:1;stroke-width:2.01449;stroke-linecap:round;stroke-linejoin:round;paint-order:stroke fill markers"
       d="M 4,2 C 2.892,2 2,2.892 2,4 v 14 c 0,1.108 0.892,2 2,2 h 14 c 1.108,0 2,-0.892 2,-2 V 4 C 20,2.892 19.108,2 18,2 Z m 0,1 h 14 c 0.554,0 1,0.446 1,1 v 14 c 0,0.554 -0.446,1 -1,1 H 4 C 3.446,19 3,18.554 3,18 V 4 C 3,3.446 3.446,3 4,3 Z" />
    <rect
       style="fill:#fbfbfb;fill-opacity:1;fill-rule:evenodd;stroke-linecap:round;stroke-linejoin:round;stroke-opacity:0.94902;paint-order:stroke fill markers"
       id="rect855"
       width="5"
       height="1"
       x="10"
       y="14"
       ry="0.5" />
    <g
       id="g2704"
       transform="translate(-0.17066231,-0.17157214)">
      <rect
         style="fill:#fbfbfb;fill-opacity:1;fill-rule:evenodd;stroke-linecap:round;stroke-linejoin:round;stroke-opacity:0.94902;paint-order:stroke fill markers"
         id="rect2698"
         width="5"
         height="1"
         x="-5.9148569"
         y="14.349242"
         ry="0.5"
         transform="rotate(-45)" />
      <rect
         style="fill:#fbfbfb;fill-opacity:1;fill-rule:evenodd;stroke-linecap:round;stroke-linejoin:round;stroke-opacity:0.94902;paint-order:stroke fill markers"
         id="rect2700"
         width="5"
         height="1"
         x="10.349241"
         y="-1.9148569"
         ry="0.5"
         transform="matrix(0.70710678,0.70710678,0.70710678,-0.70710678,0,0)" />
    </g>
  </g>
</svg>
