<?xml version="1.0" encoding="UTF-8" standalone="no"?>
<svg
   id="svg4306"
   width="22"
   height="22"
   version="1.1"
   style="enable-background:new"
   sodipodi:docname="restore.svg"
   inkscape:version="1.1 (c4e8f9ed74, 2021-05-24)"
   xmlns:inkscape="http://www.inkscape.org/namespaces/inkscape"
   xmlns:sodipodi="http://sodipodi.sourceforge.net/DTD/sodipodi-0.dtd"
   xmlns:xlink="http://www.w3.org/1999/xlink"
   xmlns="http://www.w3.org/2000/svg"
   xmlns:svg="http://www.w3.org/2000/svg"
   xmlns:rdf="http://www.w3.org/1999/02/22-rdf-syntax-ns#"
   xmlns:cc="http://creativecommons.org/ns#"
   xmlns:dc="http://purl.org/dc/elements/1.1/">
  <metadata
     id="metadata24">
    <rdf:RDF>
      <cc:Work
         rdf:about="">
        <dc:format>image/svg+xml</dc:format>
        <dc:type
           rdf:resource="http://purl.org/dc/dcmitype/StillImage" />
        <dc:title />
      </cc:Work>
    </rdf:RDF>
  </metadata>
  <defs
     id="defs22" />
  <sodipodi:namedview
     pagecolor="#c8c8c8"
     bordercolor="#666666"
     borderopacity="1"
     objecttolerance="10"
     gridtolerance="10"
     guidetolerance="10"
     inkscape:pageopacity="0"
     inkscape:pageshadow="2"
     inkscape:window-width="1920"
     inkscape:window-height="998"
     id="namedview20"
     showgrid="true"
     inkscape:zoom="16"
     inkscape:cx="46.71875"
     inkscape:cy="6.03125"
     inkscape:window-x="0"
     inkscape:window-y="0"
     inkscape:window-maximized="1"
     inkscape:current-layer="svg4306"
     inkscape:document-rotation="0"
     inkscape:snap-bbox="true"
     inkscape:bbox-nodes="true"
     inkscape:snap-bbox-edge-midpoints="true"
     inkscape:pagecheckerboard="0"
     inkscape:snap-smooth-nodes="true"
     inkscape:snap-nodes="false">
    <inkscape:grid
       type="xygrid"
       id="grid74" />
  </sodipodi:namedview>
  <use
     x="0"
     y="0"
     xlink:href="#g1000"
     id="use1002"
     transform="translate(28.476029)"
     width="100%"
     height="100%" />
  <g
     id="active-center">
    <rect
       ry="0"
       rx="0"
       y="9.5367432e-07"
       x="9.5367432e-07"
       height="21.999998"
       width="21.999998"
       id="rect962"
       style="opacity:0;fill:#000000;fill-opacity:1;fill-rule:evenodd;stroke:none;stroke-width:3;stroke-linecap:round;stroke-linejoin:round;stroke-miterlimit:4;stroke-dasharray:none;stroke-opacity:1;paint-order:fill markers stroke" />
    <g
       id="g7129"
       transform="translate(14)">
      <path
         id="rect5015"
         style="fill:#000000;fill-opacity:1;stroke-linecap:round;stroke-linejoin:round"
         d="M 8 9 C 7.446 9 7 9.446 7 10 L 7 14 C 7 14.554 7.446 15 8 15 L 11 15 C 11.554 15 12 14.554 12 14 L 12 10 C 12 9.446 11.554 9 11 9 L 8 9 z M 7.9824219 9.6367188 L 11.017578 9.6367188 C 11.220786 9.6367188 11.382813 9.8006981 11.382812 10.003906 L 11.382812 13.996094 C 11.382812 14.199302 11.220786 14.363281 11.017578 14.363281 L 7.9824219 14.363281 C 7.7792137 14.363281 7.6171875 14.199302 7.6171875 13.996094 L 7.6171875 10.003906 C 7.6171875 9.8006981 7.7792137 9.6367188 7.9824219 9.6367188 z "
         transform="translate(-14)" />
      <rect
         style="opacity:1;fill:#000000;fill-opacity:1;stroke-width:0.573549;stroke-linecap:round;stroke-linejoin:round"
         id="rect1292"
         width="4.6382227"
         height="0.63831115"
         x="-5"
         y="7"
         ry="0.31915557" />
      <rect
         style="opacity:1;fill:#000000;fill-opacity:1;stroke-width:0.671661;stroke-linecap:round;stroke-linejoin:round"
         id="rect6797"
         width="6.3616886"
         height="0.63822269"
         x="-13.361689"
         y="-1"
         ry="0.31911135"
         transform="rotate(-90)" />
    </g>
  </g>
  <g
     id="hover-center">
    <rect
       y="32"
       x="0"
       height="22"
       width="22"
       id="rect909"
       style="display:inline;fill:none;fill-opacity:1;stroke:none;stroke-width:1.375;stroke-linecap:butt;stroke-linejoin:miter;stroke-miterlimit:4;stroke-dasharray:none;stroke-dashoffset:0;stroke-opacity:0" />
    <rect
       style="fill:#ebebeb;fill-opacity:1;stroke:none;stroke-width:1.29412;stroke-linecap:round;stroke-miterlimit:4;stroke-dasharray:none;stroke-opacity:1"
       id="rect911"
       width="22"
       height="22"
       x="0"
       y="32"
       ry="0" />
    <g
       id="g2017"
       transform="translate(14,32)">
      <path
         id="path2011"
         style="fill:#000000;fill-opacity:1;stroke-linecap:round;stroke-linejoin:round"
         d="M 8,9 C 7.446,9 7,9.446 7,10 v 4 c 0,0.554 0.446,1 1,1 h 3 c 0.554,0 1,-0.446 1,-1 V 10 C 12,9.446 11.554,9 11,9 Z M 7.982422,9.6367188 h 3.035156 c 0.203208,0 0.365235,0.1639793 0.365234,0.3671872 v 3.992188 c 0,0.203208 -0.162026,0.367187 -0.365234,0.367187 H 7.9824219 c -0.2032082,0 -0.3652344,-0.163979 -0.3652344,-0.367187 v -3.992188 c 0,-0.2032079 0.1620262,-0.3671872 0.3652345,-0.3671872 z"
         transform="translate(-14)" />
      <rect
         style="opacity:1;fill:#000000;fill-opacity:1;stroke-width:0.573549;stroke-linecap:round;stroke-linejoin:round"
         id="rect2013"
         width="4.6382227"
         height="0.63831115"
         x="-5"
         y="7"
         ry="0.31915557" />
      <rect
         style="opacity:1;fill:#000000;fill-opacity:1;stroke-width:0.671661;stroke-linecap:round;stroke-linejoin:round"
         id="rect2015"
         width="6.3616886"
         height="0.63822269"
         x="-13.361689"
         y="-1"
         ry="0.31911135"
         transform="rotate(-90)" />
    </g>
  </g>
  <g
     id="pressed-center">
    <rect
       y="57"
       x="0"
       height="22"
       width="22"
       id="rect7546"
       style="display:inline;fill:none;fill-opacity:1;stroke:none;stroke-width:1.375;stroke-linecap:butt;stroke-linejoin:miter;stroke-miterlimit:4;stroke-dasharray:none;stroke-dashoffset:0;stroke-opacity:0" />
    <rect
       style="fill:#ebebeb;fill-opacity:1;stroke:none;stroke-width:1.29412;stroke-linecap:round;stroke-miterlimit:4;stroke-dasharray:none;stroke-opacity:1"
       id="rect7548"
       width="22"
       height="22"
       x="0"
       y="57"
       ry="0" />
    <g
       id="g2406"
       transform="translate(14,57)">
      <path
         id="path2400"
         style="fill:#000000;fill-opacity:1;stroke-linecap:round;stroke-linejoin:round"
         d="M 8,9 C 7.446,9 7,9.446 7,10 v 4 c 0,0.554 0.446,1 1,1 h 3 c 0.554,0 1,-0.446 1,-1 V 10 C 12,9.446 11.554,9 11,9 Z M 7.982422,9.6367188 h 3.035156 c 0.203208,0 0.365235,0.1639793 0.365234,0.3671872 v 3.992188 c 0,0.203208 -0.162026,0.367187 -0.365234,0.367187 H 7.9824219 c -0.2032082,0 -0.3652344,-0.163979 -0.3652344,-0.367187 v -3.992188 c 0,-0.2032079 0.1620262,-0.3671872 0.3652345,-0.3671872 z"
         transform="translate(-14)" />
      <rect
         style="opacity:1;fill:#000000;fill-opacity:1;stroke-width:0.573549;stroke-linecap:round;stroke-linejoin:round"
         id="rect2402"
         width="4.6382227"
         height="0.63831115"
         x="-5"
         y="7"
         ry="0.31915557" />
      <rect
         style="opacity:1;fill:#000000;fill-opacity:1;stroke-width:0.671661;stroke-linecap:round;stroke-linejoin:round"
         id="rect2404"
         width="6.3616886"
         height="0.63822269"
         x="-13.361689"
         y="-1"
         ry="0.31911135"
         transform="rotate(-90)" />
    </g>
  </g>
  <g
     id="inactive-center"
     transform="translate(30)">
    <rect
       ry="0"
       rx="0"
       y="9.5367432e-07"
       x="9.5367432e-07"
       height="21.999998"
       width="21.999998"
       id="rect2792"
       style="opacity:0;fill:#000000;fill-opacity:1;fill-rule:evenodd;stroke:none;stroke-width:3;stroke-linecap:round;stroke-linejoin:round;stroke-miterlimit:4;stroke-dasharray:none;stroke-opacity:1;paint-order:fill markers stroke" />
    <g
       id="g2800"
       transform="translate(14)">
      <path
         id="path2794"
         style="opacity:0.4;fill:#000000;fill-opacity:1;stroke-linecap:round;stroke-linejoin:round"
         d="M 8,9 C 7.446,9 7,9.446 7,10 v 4 c 0,0.554 0.446,1 1,1 h 3 c 0.554,0 1,-0.446 1,-1 V 10 C 12,9.446 11.554,9 11,9 Z M 7.982422,9.6367188 h 3.035156 c 0.203208,0 0.365235,0.1639793 0.365234,0.3671872 v 3.992188 c 0,0.203208 -0.162026,0.367187 -0.365234,0.367187 H 7.9824219 c -0.2032082,0 -0.3652344,-0.163979 -0.3652344,-0.367187 v -3.992188 c 0,-0.2032079 0.1620262,-0.3671872 0.3652345,-0.3671872 z"
         transform="translate(-14)" />
      <path
         id="rect2796"
         style="opacity:0.4;fill:#000000;fill-opacity:1;stroke-width:0.573549;stroke-linecap:round;stroke-linejoin:round"
         d="M 39.318359,-11 C 39.141547,-11 39,-10.858453 39,-10.681641 c 0,0.176813 0.141547,0.320313 0.318359,0.320313 H 43 v 5.4042968 c 0,0.1767876 0.141572,0.3183593 0.318359,0.3183593 0.176788,0 0.320313,-0.1415717 0.320313,-0.3183593 v -5.7246098 c 0,-0.03305 -0.0064,-0.06382 -0.01563,-0.09375 -0.0031,-0.01 -0.0057,-0.01974 -0.0098,-0.0293 -0.0081,-0.0191 -0.01785,-0.03771 -0.0293,-0.05469 -0.01145,-0.01697 -0.02464,-0.03245 -0.03906,-0.04687 -0.01442,-0.01442 -0.0299,-0.02761 -0.04687,-0.03906 -0.0086,-0.0058 -0.01816,-0.01066 -0.02734,-0.01563 -0.009,-0.0049 -0.01779,-0.0096 -0.02734,-0.01367 -0.0191,-0.0081 -0.03973,-0.01529 -0.06055,-0.01953 -0.02081,-0.0042 -0.04235,-0.0059 -0.06445,-0.0059 z"
         transform="translate(-44,17.999999)" />
    </g>
  </g>
  <g
     id="deactivated-center"
     transform="translate(55)">
    <rect
       ry="0"
       rx="0"
       y="9.5367432e-07"
       x="9.5367432e-07"
       height="21.999998"
       width="21.999998"
       id="rect2983"
       style="opacity:0;fill:#000000;fill-opacity:1;fill-rule:evenodd;stroke:none;stroke-width:3;stroke-linecap:round;stroke-linejoin:round;stroke-miterlimit:4;stroke-dasharray:none;stroke-opacity:1;paint-order:fill markers stroke" />
    <g
       id="g2989"
       transform="translate(14)">
      <path
         id="path2985"
         style="opacity:0.4;fill:#000000;fill-opacity:1;stroke-linecap:round;stroke-linejoin:round"
         d="M 8,9 C 7.446,9 7,9.446 7,10 v 4 c 0,0.554 0.446,1 1,1 h 3 c 0.554,0 1,-0.446 1,-1 V 10 C 12,9.446 11.554,9 11,9 Z M 7.982422,9.6367188 h 3.035156 c 0.203208,0 0.365235,0.1639793 0.365234,0.3671872 v 3.992188 c 0,0.203208 -0.162026,0.367187 -0.365234,0.367187 H 7.9824219 c -0.2032082,0 -0.3652344,-0.163979 -0.3652344,-0.367187 v -3.992188 c 0,-0.2032079 0.1620262,-0.3671872 0.3652345,-0.3671872 z"
         transform="translate(-14)" />
      <path
         id="path2987"
         style="opacity:0.4;fill:#000000;fill-opacity:1;stroke-width:0.573549;stroke-linecap:round;stroke-linejoin:round"
         d="M 39.318359,-11 C 39.141547,-11 39,-10.858453 39,-10.681641 c 0,0.176813 0.141547,0.320313 0.318359,0.320313 H 43 v 5.4042968 c 0,0.1767876 0.141572,0.3183593 0.318359,0.3183593 0.176788,0 0.320313,-0.1415717 0.320313,-0.3183593 v -5.7246098 c 0,-0.03305 -0.0064,-0.06382 -0.01563,-0.09375 -0.0031,-0.01 -0.0057,-0.01974 -0.0098,-0.0293 -0.0081,-0.0191 -0.01785,-0.03771 -0.0293,-0.05469 -0.01145,-0.01697 -0.02464,-0.03245 -0.03906,-0.04687 -0.01442,-0.01442 -0.0299,-0.02761 -0.04687,-0.03906 -0.0086,-0.0058 -0.01816,-0.01066 -0.02734,-0.01563 -0.009,-0.0049 -0.01779,-0.0096 -0.02734,-0.01367 -0.0191,-0.0081 -0.03973,-0.01529 -0.06055,-0.01953 -0.02081,-0.0042 -0.04235,-0.0059 -0.06445,-0.0059 z"
         transform="translate(-44,17.999999)" />
    </g>
  </g>
</svg>
