<?xml version="1.0" encoding="UTF-8" standalone="no"?>
<svg
   id="svg4306"
   width="44"
   height="28"
   version="1.1"
   style="enable-background:new"
   sodipodi:docname="restore.svg"
   inkscape:version="1.2.1 (9c6d41e410, 2022-07-14)"
   xmlns:inkscape="http://www.inkscape.org/namespaces/inkscape"
   xmlns:sodipodi="http://sodipodi.sourceforge.net/DTD/sodipodi-0.dtd"
   xmlns:xlink="http://www.w3.org/1999/xlink"
   xmlns="http://www.w3.org/2000/svg"
   xmlns:svg="http://www.w3.org/2000/svg"
   xmlns:rdf="http://www.w3.org/1999/02/22-rdf-syntax-ns#"
   xmlns:cc="http://creativecommons.org/ns#"
   xmlns:dc="http://purl.org/dc/elements/1.1/">
  <metadata
     id="metadata24">
    <rdf:RDF>
      <cc:Work
         rdf:about="">
        <dc:format>image/svg+xml</dc:format>
        <dc:type
           rdf:resource="http://purl.org/dc/dcmitype/StillImage" />
      </cc:Work>
    </rdf:RDF>
  </metadata>
  <defs
     id="defs22" />
  <sodipodi:namedview
     pagecolor="#c8c8c8"
     bordercolor="#666666"
     borderopacity="1"
     objecttolerance="10"
     gridtolerance="10"
     guidetolerance="10"
     inkscape:pageopacity="0"
     inkscape:pageshadow="2"
     inkscape:window-width="1920"
     inkscape:window-height="1005"
     id="namedview20"
     showgrid="true"
     inkscape:zoom="5.656854"
     inkscape:cx="19.975767"
     inkscape:cy="43.045127"
     inkscape:window-x="0"
     inkscape:window-y="0"
     inkscape:window-maximized="1"
     inkscape:current-layer="svg4306"
     inkscape:document-rotation="0"
     inkscape:snap-bbox="true"
     inkscape:bbox-nodes="true"
     inkscape:snap-bbox-edge-midpoints="true"
     inkscape:pagecheckerboard="0"
     inkscape:snap-smooth-nodes="true"
     inkscape:snap-nodes="false"
     inkscape:showpageshadow="0"
     inkscape:deskcolor="#c8c8c8">
    <inkscape:grid
       type="xygrid"
       id="grid74"
       originx="0"
       originy="0" />
  </sodipodi:namedview>
  <use
     x="0"
     y="0"
     xlink:href="#g1000"
     id="use1002"
     transform="translate(28.476029)"
     width="100%"
     height="100%" />
  <g
     id="active-center"
     transform="matrix(3.7795276,0,0,3.7795276,3.5000049,-0.99999899)">
    <g
       id="use1626"
       transform="matrix(1.1578947,0,0,0.87500005,-1.538762,8.8304688)">
      <rect
         style="opacity:0.003;fill:#000000;fill-opacity:1;stroke-width:0.348723"
         id="rect17516"
         width="10.054167"
         height="8.4666662"
         x="0.52916652"
         y="-9.7895832" />
    </g>
    <g
       id="use1638"
       transform="translate(-19.446877,20.6375)">
      <rect
         style="opacity:0.003;fill:#000000;fill-opacity:1;stroke-width:0.220007"
         id="rect17510"
         width="5.8208332"
         height="5.8208332"
         x="21.431252"
         y="-19.579166" />
      <path
         id="path17512"
         style="color:#232629;fill:#000000;fill-opacity:1"
         d="m 83,-89 c -0.741067,0 -1.379047,0.404199 -1.724609,1 H 86 c 1.107999,0 2,0.892001 2,2 v 4.724609 C 88.595797,-81.620953 89,-82.258925 89,-83 v -3 c 0,-1.661998 -1.337998,-3 -3,-3 z m -2,2 c -1.107999,0 -2,0.891997 -2,2 v 4 c 0,1.108003 0.892001,2 2,2 h 4 c 1.108003,0 2,-0.891997 2,-2 v -4 c 0,-1.108003 -0.891997,-2 -2,-2 z m 0,1 h 4 c 0.554003,0 1,0.446001 1,1 v 4 c 0,0.554003 -0.445997,1 -1,1 h -4 c -0.553999,0 -1,-0.445997 -1,-1 v -4 c 0,-0.553999 0.446001,-1 1,-1 z"
         transform="matrix(0.26458333,0,0,0.26458333,2.1166685,5.5562504)"
         class="ColorScheme-Text" />
    </g>
  </g>
  <g
     id="inactive-center">
    <g
       id="use1624"
       transform="matrix(4.376295,0,0,3.3070868,41.684208,32.375002)">
      <rect
         style="opacity:0.003;fill:#000000;fill-opacity:1;stroke-width:0.348723"
         id="rect17618"
         width="10.054167"
         height="8.4666662"
         x="0.52916652"
         y="-9.7895832" />
    </g>
    <g
       id="use1644"
       transform="matrix(3.7795276,0,0,3.7795276,-26.000007,76.999998)"
       style="opacity:1">
      <rect
         style="opacity:0.003;fill:#000000;fill-opacity:1;stroke-width:0.220007"
         id="rect17622"
         width="5.8208332"
         height="5.8208332"
         x="21.431252"
         y="-19.579166" />
      <path
         id="path17624"
         style="color:#232629;fill:#000000;fill-opacity:1;opacity:0.4"
         d="m 83,-89 c -0.741067,0 -1.379047,0.404199 -1.724609,1 H 86 c 1.107999,0 2,0.892001 2,2 v 4.724609 C 88.595797,-81.620953 89,-82.258925 89,-83 v -3 c 0,-1.661998 -1.337998,-3 -3,-3 z m -2,2 c -1.107999,0 -2,0.891997 -2,2 v 4 c 0,1.108003 0.892001,2 2,2 h 4 c 1.108003,0 2,-0.891997 2,-2 v -4 c 0,-1.108003 -0.891997,-2 -2,-2 z m 0,1 h 4 c 0.554003,0 1,0.446001 1,1 v 4 c 0,0.554003 -0.445997,1 -1,1 h -4 c -0.553999,0 -1,-0.445997 -1,-1 v -4 c 0,-0.553999 0.446001,-1 1,-1 z"
         transform="matrix(0.26458333,0,0,0.26458333,2.1166685,5.5562504)"
         class="ColorScheme-Text" />
    </g>
  </g>
  <g
     id="deactivated-center"
     transform="translate(44)">
    <g
       id="g21014"
       transform="matrix(4.376295,0,0,3.3070868,41.684208,32.375002)">
      <rect
         style="opacity:0.003;fill:#000000;fill-opacity:1;stroke-width:0.348723"
         id="rect21012"
         width="10.054167"
         height="8.4666662"
         x="0.52916652"
         y="-9.7895832" />
    </g>
    <g
       id="g21020"
       transform="matrix(3.7795276,0,0,3.7795276,-26.000007,76.999998)"
       style="opacity:1">
      <rect
         style="opacity:0.003;fill:#000000;fill-opacity:1;stroke-width:0.220007"
         id="rect21016"
         width="5.8208332"
         height="5.8208332"
         x="21.431252"
         y="-19.579166" />
      <path
         id="path21018"
         style="color:#232629;opacity:0.4;fill:#000000;fill-opacity:1"
         d="m 83,-89 c -0.741067,0 -1.379047,0.404199 -1.724609,1 H 86 c 1.107999,0 2,0.892001 2,2 v 4.724609 C 88.595797,-81.620953 89,-82.258925 89,-83 v -3 c 0,-1.661998 -1.337998,-3 -3,-3 z m -2,2 c -1.107999,0 -2,0.891997 -2,2 v 4 c 0,1.108003 0.892001,2 2,2 h 4 c 1.108003,0 2,-0.891997 2,-2 v -4 c 0,-1.108003 -0.891997,-2 -2,-2 z m 0,1 h 4 c 0.554003,0 1,0.446001 1,1 v 4 c 0,0.554003 -0.445997,1 -1,1 h -4 c -0.553999,0 -1,-0.445997 -1,-1 v -4 c 0,-0.553999 0.446001,-1 1,-1 z"
         transform="matrix(0.26458333,0,0,0.26458333,2.1166685,5.5562504)"
         class="ColorScheme-Text" />
    </g>
  </g>
  <g
     id="hover-center"
     transform="matrix(3.7795276,0,0,3.7795276,-45.000006,28.000002)">
    <g
       transform="matrix(1.1578947,0,0,0.87500003,11.293531,17.363282)"
       id="use1628">
      <rect
         class="ColorScheme-Text"
         y="-19.84375"
         x="0.52916682"
         height="8.4666662"
         width="10.054167"
         id="rect22562"
         style="color:#232629;opacity:0.1;fill:#000000;fill-opacity:1" />
    </g>
    <g
       id="use1634"
       transform="translate(-12.699999,25.929166)">
      <rect
         style="opacity:0.003;fill:#000000;fill-opacity:1;stroke-width:0.220007"
         id="rect22566"
         width="5.8208327"
         height="5.8208327"
         x="27.516666"
         y="-25.135416" />
      <path
         class="ColorScheme-Text"
         d="m 30.1625,-23.547916 c -0.196074,0 -0.364873,0.106944 -0.456303,0.264583 h 1.250053 c 0.293158,0 0.529167,0.236009 0.529167,0.529167 v 1.250052 C 31.643055,-21.595544 31.75,-21.76434 31.75,-21.960416 v -0.79375 c 0,-0.439737 -0.354012,-0.79375 -0.79375,-0.79375 z m -0.529167,0.529166 c -0.293158,0 -0.529166,0.236008 -0.529166,0.529167 v 1.058333 c 0,0.293159 0.236008,0.529167 0.529166,0.529167 h 1.058334 c 0.293159,0 0.529166,-0.236008 0.529166,-0.529167 v -1.058333 c 0,-0.293159 -0.236007,-0.529167 -0.529166,-0.529167 z m 0,0.264584 h 1.058334 c 0.14658,0 0.264583,0.118004 0.264583,0.264583 v 1.058333 c 0,0.14658 -0.118003,0.264584 -0.264583,0.264584 h -1.058334 c -0.146579,0 -0.264583,-0.118004 -0.264583,-0.264584 v -1.058333 c 0,-0.146579 0.118004,-0.264583 0.264583,-0.264583 z"
         style="color:#232629;fill:#000000;fill-opacity:1"
         id="path22568" />
    </g>
  </g>
  <g
     id="pressed-center"
     transform="matrix(3.7795276,0,0,3.7795276,-45.000006,56)">
    <g
       transform="matrix(1.1578947,0,0,0.87500003,11.293531,17.363282)"
       id="g24758">
      <rect
         class="ColorScheme-Text"
         y="-19.84375"
         x="0.52916682"
         height="8.4666662"
         width="10.054167"
         id="rect24756"
         style="color:#232629;opacity:0.25;fill:#000000;fill-opacity:1" />
    </g>
    <g
       id="g24764"
       transform="translate(-12.699999,25.929166)">
      <rect
         style="opacity:0.003;fill:#000000;fill-opacity:1;stroke-width:0.220007"
         id="rect24760"
         width="5.8208327"
         height="5.8208327"
         x="27.516666"
         y="-25.135416" />
      <path
         class="ColorScheme-Text"
         d="m 30.1625,-23.547916 c -0.196074,0 -0.364873,0.106944 -0.456303,0.264583 h 1.250053 c 0.293158,0 0.529167,0.236009 0.529167,0.529167 v 1.250052 C 31.643055,-21.595544 31.75,-21.76434 31.75,-21.960416 v -0.79375 c 0,-0.439737 -0.354012,-0.79375 -0.79375,-0.79375 z m -0.529167,0.529166 c -0.293158,0 -0.529166,0.236008 -0.529166,0.529167 v 1.058333 c 0,0.293159 0.236008,0.529167 0.529166,0.529167 h 1.058334 c 0.293159,0 0.529166,-0.236008 0.529166,-0.529167 v -1.058333 c 0,-0.293159 -0.236007,-0.529167 -0.529166,-0.529167 z m 0,0.264584 h 1.058334 c 0.14658,0 0.264583,0.118004 0.264583,0.264583 v 1.058333 c 0,0.14658 -0.118003,0.264584 -0.264583,0.264584 h -1.058334 c -0.146579,0 -0.264583,-0.118004 -0.264583,-0.264584 v -1.058333 c 0,-0.146579 0.118004,-0.264583 0.264583,-0.264583 z"
         style="color:#232629;fill:#000000;fill-opacity:1"
         id="path24762" />
    </g>
  </g>
</svg>
